<svg viewBox="0 0 537 252" fill="none" xmlns="http://www.w3.org/2000/svg">
<path opacity="0.4" d="M537 248C537 249.9 535.5 251.4 533.6 251.4H3.4C1.5 251.4 0 249.9 0 248C0 246.1 1.5 244.6 3.4 244.6H533.7C535.5 244.7 537 246.2 537 248Z" fill="#91E89D"/>
<path d="M294.7 243.1H242.3L237.1 163H299.9L294.7 243.1Z" fill="#46D153"/>
<path d="M304.6 156.4H232.5V170.6H304.6V156.4Z" fill="#6CE071"/>
<path opacity="0.6" d="M237.7 170.5H299.4L298.7 182.1L237.9 176.3L237.7 170.5Z" fill="#24BC2B"/>
<path d="M261.1 196.6C261.1 196.6 262.3 194.1 263.7 192.8C265 191.5 265.6 191.7 266.5 192.2C267.5 192.8 268.1 193.8 268.1 193.8L264.6 198.7L261.1 196.6Z" fill="white"/>
<path d="M265.899 191.3H271.299C271.299 191.3 273.499 192.3 274.199 194.9L275.899 194.1L273.999 198.7L269.199 197L270.899 196.4C270.899 196.4 268.799 192.4 265.899 191.3Z" fill="white"/>
<path d="M278.7 200.5C278.7 200.5 280.4 202.8 280.9 204.5C281.4 206.3 281 206.7 280.2 207.3C279.2 207.9 278 207.9 278 207.9L275.3 202.6L278.7 200.5Z" fill="white"/>
<path d="M281.2 207.1L278.7 211.9C278.7 211.9 276.8 213.4 274.2 212.8V214.6L271 210.8L274.7 207.3L274.5 209C274.3 209.2 278.9 209.3 281.2 207.1Z" fill="white"/>
<path d="M265.8 213.3C265.8 213.3 263 213.6 261.2 213.1C259.4 212.6 259.2 212.1 259.2 211.1C259.1 209.9 259.7 208.9 259.7 208.9L265.7 209.2L265.8 213.3Z" fill="white"/>
<path d="M258.8 212.1L255.9 207.5C255.9 207.5 255.6 205.1 257.4 203.1L255.8 202.1L260.7 201.3L261.8 206.2L260.4 205.1C260.5 205.2 258.1 209.1 258.8 212.1Z" fill="white"/>
<path d="M245.3 244.7C245.3 246.5 243.9 247.9 242.1 247.9C240.3 247.9 238.9 246.5 238.9 244.7V233.7C238.9 231.9 240.3 230.5 242.1 230.5C243.9 230.5 245.3 231.9 245.3 233.7V244.7Z" fill="#484F48"/>
<path d="M298.1 244.7C298.1 246.5 296.7 247.9 294.9 247.9C293.1 247.9 291.7 246.5 291.7 244.7V233.7C291.7 231.9 293.1 230.5 294.9 230.5C296.7 230.5 298.1 231.9 298.1 233.7V244.7Z" fill="#484F48"/>
<path d="M199.7 243.1H147.3L142 163H204.9L199.7 243.1Z" fill="#FFC803"/>
<path d="M209.5 156.4H137.4V170.6H209.5V156.4Z" fill="#FFDA64"/>
<path opacity="0.3" d="M142.601 170.5H204.401L203.701 182.1L142.901 176.3L142.601 170.5Z" fill="#FF9406"/>
<path d="M166.101 196.6C166.101 196.6 167.301 194.1 168.701 192.8C170.001 191.5 170.601 191.7 171.501 192.2C172.501 192.8 173.101 193.8 173.101 193.8L169.601 198.7L166.101 196.6Z" fill="white"/>
<path d="M170.801 191.3H176.201C176.201 191.3 178.401 192.3 179.101 194.9L180.801 194.1L178.901 198.7L174.101 197L175.801 196.4C175.801 196.4 173.801 192.4 170.801 191.3Z" fill="white"/>
<path d="M183.601 200.5C183.601 200.5 185.301 202.8 185.801 204.5C186.301 206.3 185.901 206.7 185.101 207.3C184.101 207.9 182.901 207.9 182.901 207.9L180.201 202.6L183.601 200.5Z" fill="white"/>
<path d="M186.201 207.1L183.701 211.9C183.701 211.9 181.801 213.4 179.201 212.8V214.6L176.001 210.8L179.701 207.3L179.501 209C179.301 209.2 183.901 209.3 186.201 207.1Z" fill="white"/>
<path d="M170.801 213.3C170.801 213.3 168.001 213.6 166.201 213.1C164.401 212.6 164.201 212.1 164.201 211.1C164.101 209.9 164.701 208.9 164.701 208.9L170.701 209.2L170.801 213.3Z" fill="white"/>
<path d="M163.801 212.1L160.901 207.5C160.901 207.5 160.601 205.1 162.401 203.1L160.801 202.1L165.701 201.3L166.801 206.2L165.401 205.1C165.501 205.2 163.101 209.1 163.801 212.1Z" fill="white"/>
<path d="M150.3 244.7C150.3 246.5 148.9 247.9 147.1 247.9C145.3 247.9 143.9 246.5 143.9 244.7V233.7C143.9 231.9 145.3 230.5 147.1 230.5C148.9 230.5 150.3 231.9 150.3 233.7V244.7Z" fill="#484F48"/>
<path d="M203.1 244.7C203.1 246.5 201.7 247.9 199.9 247.9C198.1 247.9 196.7 246.5 196.7 244.7V233.7C196.7 231.9 198.1 230.5 199.9 230.5C201.7 230.5 203.1 231.9 203.1 233.7V244.7Z" fill="#484F48"/>
<path d="M389.7 243.1H337.3L332.1 163H395L389.7 243.1Z" fill="#0198CD"/>
<path d="M399.6 156.4H327.5V170.6H399.6V156.4Z" fill="#32C3EA"/>
<path opacity="0.4" d="M332.7 170.5H394.5L393.7 182.1L333 176.3L332.7 170.5Z" fill="#13596B"/>
<path d="M356.2 196.6C356.2 196.6 357.4 194.1 358.8 192.8C360.1 191.5 360.7 191.7 361.6 192.2C362.6 192.8 363.2 193.8 363.2 193.8L359.7 198.7L356.2 196.6Z" fill="white"/>
<path d="M360.9 191.3H366.3C366.3 191.3 368.5 192.3 369.2 194.9L370.9 194.1L369 198.7L364.2 197L365.9 196.4C365.9 196.4 363.8 192.4 360.9 191.3Z" fill="white"/>
<path d="M373.7 200.5C373.7 200.5 375.4 202.8 375.9 204.5C376.4 206.3 376 206.7 375.2 207.3C374.2 207.9 373 207.9 373 207.9L370.3 202.6L373.7 200.5Z" fill="white"/>
<path d="M376.2 207.1L373.7 211.9C373.7 211.9 371.8 213.4 369.2 212.8V214.6L366 210.8L369.7 207.3L369.5 209C369.4 209.2 373.9 209.3 376.2 207.1Z" fill="white"/>
<path d="M360.8 213.3C360.8 213.3 358 213.6 356.2 213.1C354.4 212.6 354.2 212.1 354.2 211.1C354.1 209.9 354.7 208.9 354.7 208.9L360.7 209.2L360.8 213.3Z" fill="white"/>
<path d="M353.8 212.1L350.9 207.5C350.9 207.5 350.6 205.1 352.4 203.1L350.8 202.1L355.7 201.3L356.8 206.2L355.4 205.1C355.5 205.2 353.2 209.1 353.8 212.1Z" fill="white"/>
<path d="M340.3 244.7C340.3 246.5 338.9 247.9 337.1 247.9C335.3 247.9 333.9 246.5 333.9 244.7V233.7C333.9 231.9 335.3 230.5 337.1 230.5C338.9 230.5 340.3 231.9 340.3 233.7V244.7Z" fill="#484F48"/>
<path d="M393.1 244.7C393.1 246.5 391.7 247.9 389.9 247.9C388.1 247.9 386.7 246.5 386.7 244.7V233.7C386.7 231.9 388.1 230.5 389.9 230.5C391.7 230.5 393.1 231.9 393.1 233.7V244.7Z" fill="#484F48"/>
<path d="M449 121.1C478.215 121.1 501.9 94.1028 501.9 60.8C501.9 27.4972 478.215 0.5 449 0.5C419.784 0.5 396.1 27.4972 396.1 60.8C396.1 94.1028 419.784 121.1 449 121.1Z" fill="#46D153"/>
<path d="M412 29.8C412 29.8 412 29.9001 412.1 30.0001C412.1 30.1001 412.2 30.3001 412.3 30.5001C412.5 30.9001 412.6 31.4001 412.7 32.0001C412.9 33.2001 412.8 34.7001 412.3 36.0001C411.8 37.3001 410.9 38.5 410 39.3C409.5 39.7 409 40.0001 408.7 40.2001C408.5 40.3001 408.3 40.4001 408.2 40.4001C408.1 40.4001 408 40.5001 408 40.5001C408 40.5001 408 40.4 407.9 40.3C407.9 40.2 407.7 40 407.7 39.8C407.5 39.4 407.4 38.9 407.3 38.3C407.1 37.1 407.2 35.6 407.7 34.3C408.2 33 409.1 31.8001 410 31.0001C410.5 30.6001 411 30.3001 411.3 30.1001C411.5 30.0001 411.7 29.9001 411.8 29.9001C412 29.8001 412 29.8 412 29.8Z" fill="#76E57B"/>
<path d="M419.9 16.7C419.9 16.7 420 16.6999 420.1 16.7999C420.2 16.7999 420.4 16.9 420.6 17C421 17.2 421.5 17.4 422 17.7C423 18.4 424 19.5 424.7 20.7C425.3 22 425.6 23.4 425.5 24.7C425.4 25.3 425.3 25.8999 425.2 26.2999C425.2 26.4999 425.1 26.6999 425 26.7999C425 26.8999 424.9 27 424.9 27C424.9 27 424.8 26.9999 424.7 26.8999C424.6 26.8999 424.4 26.8 424.2 26.7C423.8 26.5 423.3 26.3 422.8 26C421.8 25.3 420.8 24.2 420.2 23C419.6 21.7 419.3 20.3 419.4 19C419.5 18.4 419.6 17.7999 419.7 17.3999C419.7 17.1999 419.8 16.9999 419.9 16.8999C419.9 16.7999 419.9 16.7 419.9 16.7Z" fill="#76E57B"/>
<path d="M420.999 37.7C420.999 37.7 421.099 37.6999 421.199 37.7999C421.299 37.7999 421.499 37.9 421.699 38C422.099 38.2 422.599 38.4 423.099 38.7C424.099 39.4 425.099 40.5 425.799 41.7C426.399 43 426.699 44.4 426.599 45.7C426.499 46.3 426.399 46.8999 426.299 47.2999C426.299 47.4999 426.199 47.6999 426.099 47.7999C426.099 47.8999 425.999 48 425.999 48C425.999 48 425.899 47.9999 425.799 47.8999C425.699 47.8999 425.499 47.8 425.299 47.7C424.899 47.5 424.399 47.3 423.899 47C422.899 46.3 421.899 45.2 421.299 44C420.699 42.7 420.399 41.3 420.499 40C420.599 39.4 420.699 38.7999 420.799 38.3999C420.799 38.1999 420.899 37.9999 420.999 37.8999C420.999 37.6999 420.999 37.7 420.999 37.7Z" fill="#76E57B"/>
<path d="M437.8 23.9C437.8 23.9 437.8 24 437.9 24.1C437.9 24.2 437.999 24.4 438.099 24.6C438.299 25 438.4 25.5 438.5 26.1C438.7 27.3 438.599 28.8 438.099 30.1C437.599 31.4 436.7 32.6 435.8 33.4C435.3 33.8 434.8 34.1 434.5 34.3C434.3 34.4 434.1 34.5 434 34.5C433.9 34.5 433.8 34.6 433.8 34.6C433.8 34.6 433.8 34.5 433.7 34.4C433.7 34.3 433.5 34.1 433.5 33.9C433.3 33.5 433.199 33 433.099 32.4C432.899 31.2 433 29.7 433.5 28.4C434 27.1 434.9 25.9 435.8 25.1C436.3 24.7 436.799 24.4 437.099 24.2C437.299 24.1 437.499 24 437.599 24C437.799 23.9 437.8 23.9 437.8 23.9Z" fill="#76E57B"/>
<path d="M438.3 7.19995C438.3 7.19995 438.3 7.29995 438.4 7.39995C438.4 7.49995 438.499 7.69995 438.599 7.89995C438.799 8.29995 438.9 8.79995 439 9.39995C439.2 10.5999 439.099 12.0999 438.599 13.3999C438.099 14.6999 437.2 15.9 436.3 16.7C435.8 17.1 435.3 17.3999 435 17.5999C434.8 17.6999 434.6 17.7999 434.5 17.7999C434.4 17.7999 434.3 17.8999 434.3 17.8999C434.3 17.8999 434.3 17.8 434.2 17.7C434.2 17.6 434 17.4 434 17.2C433.8 16.8 433.699 16.3 433.599 15.7C433.399 14.5 433.5 13 434 11.7C434.5 10.4 435.4 9.19995 436.3 8.39995C436.8 7.99995 437.299 7.69995 437.599 7.49995C437.799 7.39995 437.999 7.29994 438.099 7.29994C438.199 7.29994 438.3 7.19995 438.3 7.19995Z" fill="#76E57B"/>
<path d="M414.8 47.9C414.8 47.9 414.8 48 414.9 48.1C414.9 48.2 414.999 48.4 415.099 48.6C415.299 49 415.4 49.5 415.5 50.1C415.7 51.3 415.599 52.8 415.099 54.1C414.599 55.4 413.7 56.6 412.8 57.4C412.3 57.8 411.8 58.1 411.5 58.3C411.3 58.4 411.1 58.5 411 58.5C410.9 58.5 410.8 58.6 410.8 58.6C410.8 58.6 410.8 58.5 410.7 58.4C410.7 58.3 410.5 58.1 410.5 57.9C410.3 57.5 410.199 57 410.099 56.4C409.899 55.2 410 53.7 410.5 52.4C411 51.1 411.9 49.9 412.8 49.1C413.3 48.7 413.799 48.4 414.099 48.2C414.299 48.1 414.499 48 414.599 48C414.799 47.9 414.8 47.9 414.8 47.9Z" fill="#76E57B"/>
<path d="M433.4 48.7C433.4 48.7 433.5 48.6999 433.6 48.7999C433.7 48.7999 433.9 48.9 434.1 49C434.5 49.2 435 49.4 435.5 49.7C436.5 50.4 437.5 51.5 438.2 52.7C438.8 54 439.1 55.4 439 56.7C438.9 57.3 438.8 57.8999 438.7 58.2999C438.7 58.4999 438.6 58.6999 438.5 58.7999C438.5 58.8999 438.4 59 438.4 59C438.4 59 438.3 58.9999 438.2 58.8999C438.1 58.8999 437.9 58.8 437.7 58.7C437.3 58.5 436.8 58.3 436.3 58C435.3 57.3 434.3 56.2 433.7 55C433.1 53.7 432.8 52.3 432.9 51C433 50.4 433.1 49.7999 433.2 49.3999C433.2 49.1999 433.3 48.9999 433.4 48.8999C433.4 48.6999 433.4 48.7 433.4 48.7Z" fill="#76E57B"/>
<path d="M400.7 60.4C400.7 60.4 400.8 60.4 400.9 60.5C401 60.5 401.2 60.6 401.4 60.7C401.8 60.9 402.3 61.1 402.8 61.4C403.8 62.1 404.8 63.2 405.5 64.4C406.1 65.7 406.4 67.1 406.3 68.4C406.2 69 406.1 69.6 406 70C406 70.2 405.9 70.4 405.8 70.5C405.8 70.6 405.7 70.7 405.7 70.7C405.7 70.7 405.6 70.7 405.5 70.6C405.4 70.6 405.2 70.5 405 70.4C404.6 70.2 404.1 70 403.6 69.7C402.6 69 401.6 67.9 401 66.7C400.4 65.4 400.1 64 400.2 62.7C400.3 62.1 400.4 61.5 400.5 61.1C400.5 60.9 400.6 60.7 400.7 60.6C400.7 60.4 400.7 60.4 400.7 60.4Z" fill="#76E57B"/>
<path d="M417.299 68.1C417.299 68.1 417.399 68.1 417.499 68.2C417.599 68.2 417.799 68.3 417.999 68.4C418.399 68.6 418.899 68.8 419.399 69.1C420.399 69.8 421.399 70.9 422.099 72.1C422.699 73.4 422.999 74.8 422.899 76.1C422.799 76.7 422.699 77.3 422.599 77.7C422.599 77.9 422.499 78.1 422.399 78.2C422.399 78.3 422.299 78.4 422.299 78.4C422.299 78.4 422.199 78.4 422.099 78.3C421.999 78.3 421.799 78.2 421.599 78.1C421.199 77.9 420.699 77.7 420.199 77.4C419.199 76.7 418.199 75.6 417.599 74.4C416.999 73.1 416.699 71.7 416.799 70.4C416.899 69.8 416.999 69.2 417.099 68.8C417.099 68.6 417.199 68.4 417.299 68.3C417.199 68.1 417.299 68.1 417.299 68.1Z" fill="#76E57B"/>
<path d="M412 83C412 83 412 83.1 412.1 83.2C412.1 83.3 412.2 83.5 412.3 83.7C412.5 84.1 412.6 84.6 412.7 85.2C412.9 86.4 412.8 87.9 412.3 89.2C411.8 90.5 410.9 91.7 410 92.5C409.5 92.9 409 93.2 408.7 93.4C408.5 93.5 408.3 93.6 408.2 93.6C408.1 93.6 408 93.7 408 93.7C408 93.7 408 93.6 407.9 93.5C407.9 93.4 407.7 93.2 407.7 93C407.5 92.6 407.4 92.1 407.3 91.5C407.1 90.3 407.2 88.8 407.7 87.5C408.2 86.2 409.1 85 410 84.2C410.5 83.8 411 83.5 411.3 83.3C411.5 83.2 411.7 83.1 411.8 83.1C412 83.1 412 83 412 83Z" fill="#76E57B"/>
<path d="M419.9 97.3C419.9 97.3 420 97.3001 420.1 97.4001C420.2 97.4001 420.4 97.5001 420.6 97.6001C421 97.8001 421.5 98 422 98.3C423 99 424 100.1 424.7 101.3C425.3 102.6 425.6 104 425.5 105.3C425.4 105.9 425.3 106.5 425.2 106.9C425.2 107.1 425.1 107.3 425 107.4C425 107.5 424.9 107.6 424.9 107.6C424.9 107.6 424.8 107.6 424.7 107.5C424.6 107.5 424.4 107.4 424.2 107.3C423.8 107.1 423.3 106.9 422.8 106.6C421.8 105.9 420.8 104.8 420.2 103.6C419.6 102.3 419.3 100.9 419.4 99.6001C419.5 99.0001 419.6 98.4001 419.7 98.0001C419.7 97.8001 419.8 97.6001 419.9 97.5001C419.9 97.4001 419.9 97.3 419.9 97.3Z" fill="#76E57B"/>
<path d="M428.5 84.2C428.5 84.2 428.5 84.2999 428.6 84.3999C428.6 84.4999 428.7 84.6999 428.8 84.8999C429 85.2999 429.1 85.7999 429.2 86.3999C429.4 87.5999 429.3 89.0999 428.8 90.3999C428.3 91.6999 427.4 92.9 426.5 93.7C426 94.1 425.5 94.3999 425.2 94.5999C425 94.6999 424.8 94.7999 424.7 94.7999C424.6 94.7999 424.5 94.8999 424.5 94.8999C424.5 94.8999 424.5 94.8 424.4 94.7C424.4 94.6 424.2 94.4 424.2 94.2C424 93.8 423.9 93.3 423.8 92.7C423.6 91.5 423.7 90 424.2 88.7C424.7 87.4 425.6 86.1999 426.5 85.3999C427 84.9999 427.5 84.7 427.8 84.5C428 84.4 428.2 84.2999 428.3 84.2999C428.4 84.1999 428.5 84.2 428.5 84.2Z" fill="#76E57B"/>
<path d="M438.3 102.4C438.3 102.4 438.3 102.5 438.4 102.6C438.4 102.7 438.499 102.9 438.599 103.1C438.799 103.5 438.9 104 439 104.6C439.2 105.8 439.099 107.3 438.599 108.6C438.099 109.9 437.2 111.1 436.3 111.9C435.8 112.3 435.3 112.6 435 112.8C434.8 112.9 434.6 113 434.5 113C434.4 113 434.3 113.1 434.3 113.1C434.3 113.1 434.3 113 434.2 112.9C434.2 112.8 434 112.6 434 112.4C433.8 112 433.699 111.5 433.599 110.9C433.399 109.7 433.5 108.2 434 106.9C434.5 105.6 435.4 104.4 436.3 103.6C436.8 103.2 437.299 102.9 437.599 102.7C437.799 102.6 437.999 102.5 438.099 102.5C438.199 102.4 438.3 102.4 438.3 102.4Z" fill="#76E57B"/>
<path d="M445.599 35.1C445.599 35.1 445.599 35.2 445.699 35.3C445.699 35.4 445.799 35.6 445.899 35.8C446.099 36.2 446.199 36.7 446.299 37.3C446.499 38.5 446.399 40 445.899 41.3C445.399 42.6 444.499 43.8 443.599 44.6C443.099 45 442.599 45.3 442.299 45.5C442.099 45.6 441.899 45.7 441.799 45.7C441.699 45.7 441.599 45.8 441.599 45.8C441.599 45.8 441.599 45.7 441.499 45.6C441.499 45.5 441.299 45.3 441.299 45.1C441.099 44.7 440.999 44.2 440.899 43.6C440.699 42.4 440.799 40.9 441.299 39.6C441.799 38.3 442.699 37.1 443.599 36.3C444.099 35.9 444.599 35.6 444.899 35.4C445.099 35.3 445.299 35.2 445.399 35.2C445.599 35.1 445.599 35.1 445.599 35.1Z" fill="#76E57B"/>
<path d="M460.4 55.5C460.4 55.5 460.4 55.6 460.5 55.7C460.5 55.8 460.6 56 460.7 56.2C460.9 56.6 461 57.1 461.1 57.7C461.3 58.9 461.2 60.4 460.7 61.7C460.2 63 459.3 64.2 458.4 65C457.9 65.4 457.4 65.7 457.1 65.9C456.9 66 456.7 66.1 456.6 66.1C456.5 66.1 456.4 66.2 456.4 66.2C456.4 66.2 456.4 66.1 456.3 66C456.3 65.9 456.1 65.7 456.1 65.5C455.9 65.1 455.8 64.6 455.7 64C455.5 62.8 455.6 61.3 456.1 60C456.6 58.7 457.5 57.5 458.4 56.7C458.9 56.3 459.4 56 459.7 55.8C459.9 55.7 460.1 55.6 460.2 55.6C460.4 55.6 460.4 55.5 460.4 55.5Z" fill="#76E57B"/>
<path d="M455.7 38.9C455.7 38.9 455.8 38.9 455.9 39C456 39 456.2 39.1 456.4 39.2C456.8 39.4 457.3 39.6 457.8 39.9C458.8 40.6 459.8 41.7 460.5 42.9C461.1 44.2 461.4 45.6 461.3 46.9C461.2 47.5 461.1 48.1 461 48.5C461 48.7 460.9 48.9 460.8 49C460.8 49.1 460.7 49.2 460.7 49.2C460.7 49.2 460.6 49.2 460.5 49.1C460.4 49.1 460.2 49 460 48.9C459.6 48.7 459.1 48.5 458.6 48.2C457.6 47.5 456.6 46.4 456 45.2C455.4 43.9 455.1 42.5 455.2 41.2C455.3 40.6 455.4 40 455.5 39.6C455.5 39.4 455.6 39.2 455.7 39.1C455.6 39 455.7 38.9 455.7 38.9Z" fill="#76E57B"/>
<path d="M446.999 21.9C446.999 21.9 447.099 21.9 447.199 22C447.299 22 447.499 22.1 447.699 22.2C448.099 22.4 448.599 22.6 449.099 22.9C450.099 23.6 451.099 24.7 451.799 25.9C452.399 27.2 452.699 28.6 452.599 29.9C452.499 30.5 452.399 31.1 452.299 31.5C452.299 31.7 452.199 31.9 452.099 32C452.099 32.1 451.999 32.2 451.999 32.2C451.999 32.2 451.899 32.2 451.799 32.1C451.699 32.1 451.499 32 451.299 31.9C450.899 31.7 450.399 31.5 449.899 31.2C448.899 30.5 447.899 29.4 447.299 28.2C446.699 26.9 446.399 25.5 446.499 24.2C446.599 23.6 446.699 23 446.799 22.6C446.799 22.4 446.899 22.2 446.999 22.1C446.999 22 446.999 21.9 446.999 21.9Z" fill="#76E57B"/>
<path d="M451.5 5C451.5 5 451.5 5.1 451.6 5.2C451.6 5.3 451.7 5.5 451.8 5.7C452 6.1 452.1 6.6 452.2 7.2C452.4 8.4 452.3 9.9 451.8 11.2C451.3 12.5 450.4 13.7 449.5 14.5C449 14.9 448.5 15.2 448.2 15.4C448 15.5 447.8 15.6 447.7 15.6C447.6 15.6 447.5 15.7 447.5 15.7C447.5 15.7 447.5 15.6 447.4 15.5C447.4 15.4 447.2 15.2 447.2 15C447 14.6 446.9 14.1 446.8 13.5C446.6 12.3 446.7 10.8 447.2 9.5C447.7 8.2 448.6 7 449.5 6.2C450 5.8 450.5 5.49999 450.8 5.29999C451 5.19999 451.2 5.09999 451.3 5.09999C451.4 5.09999 451.5 5 451.5 5Z" fill="#76E57B"/>
<path d="M461.7 7.40002C461.7 7.40002 461.8 7.40003 461.9 7.50003C462 7.50003 462.2 7.60003 462.4 7.70003C462.8 7.90003 463.3 8.10002 463.8 8.40002C464.8 9.10002 465.8 10.2 466.5 11.4C467.1 12.7 467.4 14.1 467.3 15.4C467.2 16 467.1 16.6 467 17C467 17.2 466.9 17.4 466.8 17.5C466.8 17.6 466.7 17.7 466.7 17.7C466.7 17.7 466.6 17.7 466.5 17.6C466.4 17.6 466.2 17.5 466 17.4C465.6 17.2 465.1 17 464.6 16.7C463.6 16 462.6 14.9 462 13.7C461.4 12.4 461.1 11 461.2 9.70003C461.3 9.10003 461.4 8.50002 461.5 8.10002C461.5 7.90002 461.6 7.70002 461.7 7.60002C461.7 7.50002 461.7 7.40002 461.7 7.40002Z" fill="#76E57B"/>
<path d="M460.499 22.6C460.499 22.6 460.599 22.6 460.699 22.7C460.799 22.7 460.999 22.8 461.199 22.9C461.599 23.1 462.099 23.3 462.599 23.6C463.599 24.3 464.599 25.4 465.299 26.6C465.899 27.9 466.199 29.3 466.099 30.6C465.999 31.2 465.899 31.8 465.799 32.2C465.799 32.4 465.699 32.6 465.599 32.7C465.599 32.8 465.499 32.9 465.499 32.9C465.499 32.9 465.399 32.9 465.299 32.8C465.199 32.8 464.999 32.7 464.799 32.6C464.399 32.4 463.899 32.2 463.399 31.9C462.399 31.2 461.399 30.1 460.799 28.9C460.199 27.6 459.899 26.2 459.999 24.9C460.099 24.3 460.199 23.7 460.299 23.3C460.299 23.1 460.399 22.9 460.499 22.8C460.499 22.7 460.499 22.6 460.499 22.6Z" fill="#76E57B"/>
<path d="M480.3 16C480.3 16 480.3 16.1 480.4 16.2C480.4 16.3 480.499 16.5 480.599 16.7C480.799 17.1 480.9 17.6 481 18.2C481.2 19.4 481.099 20.9 480.599 22.2C480.099 23.5 479.2 24.7 478.3 25.5C477.8 25.9 477.3 26.2 477 26.4C476.8 26.5 476.6 26.6 476.5 26.6C476.4 26.6 476.3 26.7 476.3 26.7C476.3 26.7 476.3 26.6 476.2 26.5C476.2 26.4 476 26.2 476 26C475.8 25.6 475.699 25.1 475.599 24.5C475.399 23.3 475.5 21.8 476 20.5C476.5 19.2 477.4 18 478.3 17.2C478.8 16.8 479.299 16.5 479.599 16.3C479.799 16.2 479.999 16.1 480.099 16.1C480.299 16 480.3 16 480.3 16Z" fill="#76E57B"/>
<path d="M477.5 32.4C477.5 32.4 477.5 32.5 477.6 32.6C477.6 32.7 477.7 32.9 477.8 33.1C478 33.5 478.1 34 478.2 34.6C478.4 35.8 478.3 37.3 477.8 38.6C477.3 39.9 476.4 41.1 475.5 41.9C475 42.3 474.5 42.6 474.2 42.8C474 42.9 473.8 43 473.7 43C473.6 43 473.5 43.1 473.5 43.1C473.5 43.1 473.5 43 473.4 42.9C473.4 42.8 473.2 42.6 473.2 42.4C473 42 472.9 41.5 472.8 40.9C472.6 39.7 472.7 38.2 473.2 36.9C473.7 35.6 474.6 34.4 475.5 33.6C476 33.2 476.5 32.9 476.8 32.7C477 32.6 477.2 32.5 477.3 32.5C477.4 32.4 477.5 32.4 477.5 32.4Z" fill="#76E57B"/>
<path d="M488.299 31.5C488.299 31.5 488.399 31.5 488.499 31.6C488.599 31.6 488.799 31.7 488.999 31.8C489.399 32 489.899 32.2 490.399 32.5C491.399 33.2 492.399 34.3 493.099 35.5C493.699 36.8 493.999 38.2 493.899 39.5C493.799 40.1 493.699 40.7 493.599 41.1C493.599 41.3 493.499 41.5 493.399 41.6C493.399 41.7 493.299 41.8 493.299 41.8C493.299 41.8 493.199 41.8 493.099 41.7C492.999 41.7 492.799 41.6 492.599 41.5C492.199 41.3 491.699 41.1 491.199 40.8C490.199 40.1 489.199 39 488.599 37.8C487.999 36.5 487.699 35.1 487.799 33.8C487.899 33.2 487.999 32.6 488.099 32.2C488.099 32 488.199 31.8 488.299 31.7C488.299 31.5 488.299 31.5 488.299 31.5Z" fill="#76E57B"/>
<path d="M470.2 51.4C470.2 51.4 470.3 51.4 470.4 51.5C470.5 51.5 470.7 51.6 470.9 51.7C471.3 51.9 471.8 52.1 472.3 52.4C473.3 53.1 474.3 54.2 475 55.4C475.6 56.7 475.9 58.1 475.8 59.4C475.7 60 475.6 60.6 475.5 61C475.5 61.2 475.4 61.4 475.3 61.5C475.3 61.6 475.2 61.7 475.2 61.7C475.2 61.7 475.1 61.7 475 61.6C474.9 61.6 474.7 61.5 474.5 61.4C474.1 61.2 473.6 61 473.1 60.7C472.1 60 471.1 58.9 470.5 57.7C469.9 56.4 469.6 55 469.7 53.7C469.8 53.1 469.9 52.5 470 52.1C470 51.9 470.1 51.7 470.2 51.6C470.2 51.4 470.2 51.4 470.2 51.4Z" fill="#76E57B"/>
<path d="M487.099 45.1C487.099 45.1 487.099 45.2 487.199 45.3C487.199 45.4 487.299 45.6 487.399 45.8C487.599 46.2 487.699 46.7 487.799 47.3C487.999 48.5 487.899 50 487.399 51.3C486.899 52.6 485.999 53.8 485.099 54.6C484.599 55 484.099 55.3 483.799 55.5C483.599 55.6 483.399 55.7 483.299 55.7C483.199 55.7 483.099 55.8 483.099 55.8C483.099 55.8 483.099 55.7 482.999 55.6C482.999 55.5 482.799 55.3 482.799 55.1C482.599 54.7 482.499 54.2 482.399 53.6C482.199 52.4 482.299 50.9 482.799 49.6C483.299 48.3 484.199 47.1 485.099 46.3C485.599 45.9 486.099 45.6 486.399 45.4C486.599 45.3 486.799 45.2 486.899 45.2C486.999 45.2 487.099 45.1 487.099 45.1Z" fill="#76E57B"/>
<path d="M497.099 55C497.099 55 497.099 55.1 497.199 55.2C497.199 55.3 497.299 55.5 497.399 55.7C497.599 56.1 497.699 56.6 497.799 57.2C497.999 58.4 497.899 59.9 497.399 61.2C496.899 62.5 495.999 63.7 495.099 64.5C494.599 64.9 494.099 65.2 493.799 65.4C493.599 65.5 493.399 65.6 493.299 65.6C493.199 65.6 493.099 65.7 493.099 65.7C493.099 65.7 493.099 65.6 492.999 65.5C492.999 65.4 492.799 65.2 492.799 65C492.599 64.6 492.499 64.1 492.399 63.5C492.199 62.3 492.299 60.8 492.799 59.5C493.299 58.2 494.199 57 495.099 56.2C495.599 55.8 496.099 55.5 496.399 55.3C496.599 55.2 496.799 55.1 496.899 55.1C496.999 55.1 497.099 55 497.099 55Z" fill="#76E57B"/>
<path d="M480.299 65.4C480.299 65.4 480.399 65.4 480.499 65.5C480.599 65.5 480.799 65.6 480.999 65.7C481.399 65.9 481.899 66.1 482.399 66.4C483.399 67.1 484.399 68.2 485.099 69.4C485.699 70.7 485.999 72.1 485.899 73.4C485.799 74 485.699 74.6 485.599 75C485.599 75.2 485.499 75.4 485.399 75.5C485.399 75.6 485.299 75.7 485.299 75.7C485.299 75.7 485.199 75.7 485.099 75.6C484.999 75.6 484.799 75.5 484.599 75.4C484.199 75.2 483.699 75 483.199 74.7C482.199 74 481.199 72.9 480.599 71.7C479.999 70.4 479.699 69 479.799 67.7C479.899 67.1 479.999 66.5 480.099 66.1C480.099 65.9 480.199 65.7 480.299 65.6C480.299 65.5 480.299 65.4 480.299 65.4Z" fill="#76E57B"/>
<path d="M467.2 75.6C467.2 75.6 467.3 75.6 467.4 75.7C467.5 75.7 467.7 75.8 467.9 75.9C468.3 76.1 468.8 76.3 469.3 76.6C470.3 77.3 471.3 78.4 472 79.6C472.6 80.9 472.9 82.3 472.8 83.6C472.7 84.2 472.6 84.8 472.5 85.2C472.5 85.4 472.4 85.6 472.3 85.7C472.3 85.8 472.2 85.9 472.2 85.9C472.2 85.9 472.1 85.9 472 85.8C471.9 85.8 471.7 85.7 471.5 85.6C471.1 85.4 470.6 85.2 470.1 84.9C469.1 84.2 468.1 83.1 467.5 81.9C466.9 80.6 466.6 79.2 466.7 77.9C466.8 77.3 466.9 76.7 467 76.3C467 76.1 467.1 75.9 467.2 75.8C467.2 75.7 467.2 75.6 467.2 75.6Z" fill="#76E57B"/>
<path d="M492.8 80.5C492.8 80.5 492.8 80.6 492.9 80.7C492.9 80.8 492.999 81 493.099 81.2C493.299 81.6 493.4 82.1 493.5 82.7C493.7 83.9 493.599 85.4 493.099 86.7C492.599 88 491.7 89.2 490.8 90C490.3 90.4 489.8 90.7 489.5 90.9C489.3 91 489.1 91.1 489 91.1C488.9 91.1 488.8 91.2 488.8 91.2C488.8 91.2 488.8 91.1 488.7 91C488.7 90.9 488.5 90.7 488.5 90.5C488.3 90.1 488.199 89.6 488.099 89C487.899 87.8 488 86.3 488.5 85C489 83.7 489.9 82.5 490.8 81.7C491.3 81.3 491.799 81 492.099 80.8C492.299 80.7 492.499 80.6 492.599 80.6C492.699 80.5 492.8 80.5 492.8 80.5Z" fill="#76E57B"/>
<path d="M477.299 92.2C477.299 92.2 477.399 92.1999 477.499 92.2999C477.599 92.2999 477.799 92.4 477.999 92.5C478.399 92.7 478.899 92.9 479.399 93.2C480.399 93.9 481.399 95 482.099 96.2C482.699 97.5 482.999 98.8999 482.899 100.2C482.799 100.8 482.699 101.4 482.599 101.8C482.599 102 482.499 102.2 482.399 102.3C482.399 102.4 482.299 102.5 482.299 102.5C482.299 102.5 482.199 102.5 482.099 102.4C481.999 102.4 481.799 102.3 481.599 102.2C481.199 102 480.699 101.8 480.199 101.5C479.199 100.8 478.199 99.7 477.599 98.5C476.999 97.2 476.699 95.8 476.799 94.5C476.899 93.9 476.999 93.2999 477.099 92.8999C477.099 92.6999 477.199 92.4999 477.299 92.3999C477.299 92.2999 477.299 92.2 477.299 92.2Z" fill="#76E57B"/>
<path d="M461.9 89.4C461.9 89.4 461.9 89.5 462 89.6C462 89.7 462.1 89.9 462.2 90.1C462.4 90.5 462.5 91 462.6 91.6C462.8 92.8 462.7 94.3 462.2 95.6C461.7 96.9 460.8 98.1 459.9 98.9C459.4 99.3 458.9 99.6 458.6 99.8C458.4 99.9 458.2 100 458.1 100C458 100 457.9 100.1 457.9 100.1C457.9 100.1 457.9 100 457.8 99.9C457.8 99.8 457.6 99.6 457.6 99.4C457.4 99 457.3 98.5 457.2 97.9C457 96.7 457.1 95.2 457.6 93.9C458.1 92.6 459 91.4 459.9 90.6C460.4 90.2 460.9 89.9 461.2 89.7C461.4 89.6 461.6 89.5 461.7 89.5C461.8 89.4 461.9 89.4 461.9 89.4Z" fill="#76E57B"/>
<path d="M466.499 100C466.499 100 466.599 100 466.699 100.1C466.799 100.1 466.999 100.2 467.199 100.3C467.599 100.5 468.099 100.7 468.599 101C469.599 101.7 470.599 102.8 471.299 104C471.899 105.3 472.199 106.7 472.099 108C471.999 108.6 471.899 109.2 471.799 109.6C471.799 109.8 471.699 110 471.599 110.1C471.599 110.2 471.499 110.3 471.499 110.3C471.499 110.3 471.399 110.3 471.299 110.2C471.199 110.2 470.999 110.1 470.799 110C470.399 109.8 469.899 109.6 469.399 109.3C468.399 108.6 467.399 107.5 466.799 106.3C466.199 105 465.899 103.6 465.999 102.3C466.099 101.7 466.199 101.1 466.299 100.7C466.299 100.5 466.399 100.3 466.499 100.2C466.499 100.1 466.499 100 466.499 100Z" fill="#76E57B"/>
<path d="M459.099 106C459.099 106 459.099 106.1 459.199 106.2C459.199 106.3 459.299 106.5 459.399 106.7C459.599 107.1 459.699 107.6 459.799 108.2C459.999 109.4 459.899 110.9 459.399 112.2C458.899 113.5 457.999 114.7 457.099 115.5C456.599 115.9 456.099 116.2 455.799 116.4C455.599 116.5 455.399 116.6 455.299 116.6C455.199 116.6 455.099 116.7 455.099 116.7C455.099 116.7 455.099 116.6 454.999 116.5C454.999 116.4 454.799 116.2 454.799 116C454.599 115.6 454.499 115.1 454.399 114.5C454.199 113.3 454.299 111.8 454.799 110.5C455.299 109.2 456.199 108 457.099 107.2C457.599 106.8 458.099 106.5 458.399 106.3C458.599 106.2 458.799 106.1 458.899 106.1C458.999 106 459.099 106 459.099 106Z" fill="#76E57B"/>
<path d="M446.499 53.8C446.499 103.3 446.499 152.8 446.499 202.4C446.499 217.6 446.499 232.9 446.499 248.1C446.499 251.3 451.499 251.3 451.499 248.1C451.499 198.6 451.499 149.1 451.499 99.5C451.499 84.3 451.499 69 451.499 53.8C451.499 50.6 446.499 50.6 446.499 53.8Z" fill="#D36248"/>
<path d="M428.599 68.4C434.599 82.9 440.599 97.4 446.599 111.9C447.799 114.8 452.699 113.6 451.399 110.6C445.399 96.1 439.399 81.6 433.399 67.1C432.199 64.2 427.399 65.5 428.599 68.4Z" fill="#D36248"/>
<path d="M465.799 66.1C459.499 74.5 453.099 82.8 446.799 91.2C444.899 93.8 449.199 96.3 451.099 93.7C457.399 85.3 463.799 77 470.099 68.6C472.099 66 467.699 63.5 465.799 66.1Z" fill="#D36248"/>
<path d="M534.599 137.4C531.399 90.7 515.699 47.4 496.499 47.4C477.299 47.4 461.599 90.7 458.399 137.4C455.199 184.1 496.499 195 496.499 195C496.499 195 537.799 184.1 534.599 137.4Z" fill="#86EA8B"/>
<path d="M507.5 121.4C507.5 121.4 507.5 121.5 507.6 121.6C507.6 121.7 507.7 121.9 507.8 122.1C508 122.5 508.1 123 508.2 123.6C508.4 124.8 508.3 126.3 507.8 127.6C507.3 128.9 506.4 130.1 505.5 130.9C505 131.3 504.5 131.6 504.2 131.8C504 131.9 503.8 132 503.7 132C503.6 132 503.5 132.1 503.5 132.1C503.5 132.1 503.5 132 503.4 131.9C503.4 131.8 503.2 131.6 503.2 131.4C503 131 502.9 130.5 502.8 129.9C502.6 128.7 502.7 127.2 503.2 125.9C503.7 124.6 504.6 123.4 505.5 122.6C506 122.2 506.5 121.9 506.8 121.7C507 121.6 507.2 121.5 507.3 121.5C507.4 121.4 507.5 121.4 507.5 121.4Z" fill="#A2F9A2"/>
<path d="M513.1 111.2C513.1 111.2 513.2 111.2 513.3 111.3C513.4 111.4 513.6 111.4 513.8 111.5C514.2 111.7 514.6 112 515.1 112.4C516 113.2 516.9 114.4 517.4 115.7C517.9 117 517.9 118.5 517.7 119.7C517.6 120.3 517.4 120.8 517.2 121.2C517.1 121.4 517 121.6 517 121.7C516.9 121.8 516.9 121.9 516.9 121.9C516.9 121.9 516.8 121.9 516.7 121.8C516.6 121.7 516.4 121.7 516.2 121.6C515.8 121.4 515.4 121.1 514.9 120.7C514 119.9 513.1 118.7 512.6 117.4C512.1 116.1 512.1 114.6 512.3 113.4C512.4 112.8 512.6 112.3 512.8 111.9C512.9 111.7 513 111.5 513 111.4C513 111.3 513.1 111.2 513.1 111.2Z" fill="#A2F9A2"/>
<path d="M525.699 123.3C525.699 123.3 525.699 123.4 525.799 123.5C525.799 123.6 525.899 123.8 525.999 124C526.199 124.4 526.299 124.9 526.399 125.5C526.599 126.7 526.499 128.2 525.999 129.5C525.499 130.8 524.599 132 523.699 132.8C523.199 133.2 522.699 133.5 522.399 133.7C522.199 133.8 521.999 133.9 521.899 133.9C521.799 133.9 521.699 134 521.699 134C521.699 134 521.699 133.9 521.599 133.8C521.599 133.7 521.399 133.5 521.399 133.3C521.199 132.9 521.099 132.4 520.999 131.8C520.799 130.6 520.899 129.1 521.399 127.8C521.899 126.5 522.799 125.3 523.699 124.5C524.199 124.1 524.699 123.8 524.999 123.6C525.199 123.5 525.399 123.4 525.499 123.4C525.599 123.3 525.699 123.3 525.699 123.3Z" fill="#A2F9A2"/>
<path d="M524.699 143.1C524.699 143.1 524.799 143.1 524.899 143.2C524.999 143.3 525.199 143.3 525.399 143.4C525.799 143.6 526.199 143.9 526.699 144.3C527.599 145.1 528.499 146.3 528.999 147.6C529.499 148.9 529.499 150.4 529.299 151.6C529.199 152.2 528.999 152.7 528.799 153.1C528.699 153.3 528.599 153.5 528.599 153.6C528.499 153.7 528.499 153.8 528.499 153.8C528.499 153.8 528.399 153.8 528.299 153.7C528.199 153.6 527.999 153.6 527.799 153.5C527.399 153.3 526.999 153 526.499 152.6C525.599 151.8 524.699 150.6 524.199 149.3C523.699 148 523.699 146.5 523.899 145.3C523.999 144.7 524.199 144.2 524.399 143.8C524.499 143.6 524.599 143.4 524.599 143.3C524.699 143.1 524.699 143.1 524.699 143.1Z" fill="#A2F9A2"/>
<path d="M518.999 156.4C518.999 156.4 519.099 156.4 519.199 156.5C519.299 156.6 519.499 156.6 519.699 156.7C520.099 156.9 520.499 157.2 520.999 157.6C521.899 158.4 522.799 159.6 523.299 160.9C523.799 162.2 523.799 163.7 523.599 164.9C523.499 165.5 523.299 166 523.099 166.4C522.999 166.6 522.899 166.8 522.899 166.9C522.799 167 522.799 167.1 522.799 167.1C522.799 167.1 522.699 167.1 522.599 167C522.499 166.9 522.299 166.9 522.099 166.8C521.699 166.6 521.299 166.3 520.799 165.9C519.899 165.1 518.999 163.9 518.499 162.6C517.999 161.3 517.999 159.8 518.199 158.6C518.299 158 518.499 157.5 518.699 157.1C518.799 156.9 518.899 156.7 518.899 156.6C518.999 156.4 518.999 156.4 518.999 156.4Z" fill="#A2F9A2"/>
<path d="M511.8 173C511.8 173 511.8 173.1 511.9 173.2C511.9 173.3 511.999 173.5 512.099 173.7C512.299 174.1 512.4 174.6 512.5 175.2C512.7 176.4 512.599 177.9 512.099 179.2C511.599 180.5 510.7 181.7 509.8 182.5C509.3 182.9 508.8 183.2 508.5 183.4C508.3 183.5 508.1 183.6 508 183.6C507.9 183.6 507.8 183.7 507.8 183.7C507.8 183.7 507.8 183.6 507.7 183.5C507.7 183.4 507.5 183.2 507.5 183C507.3 182.6 507.199 182.1 507.099 181.5C506.899 180.3 507 178.8 507.5 177.5C508 176.2 508.9 175 509.8 174.2C510.3 173.8 510.799 173.5 511.099 173.3C511.299 173.2 511.499 173.1 511.599 173.1C511.799 173 511.8 173 511.8 173Z" fill="#A2F9A2"/>
<path d="M487.599 173C487.599 173 487.599 173.1 487.699 173.2C487.699 173.3 487.799 173.5 487.899 173.7C488.099 174.1 488.199 174.6 488.299 175.2C488.499 176.4 488.399 177.9 487.899 179.2C487.399 180.5 486.499 181.7 485.599 182.5C485.099 182.9 484.599 183.2 484.299 183.4C484.099 183.5 483.899 183.6 483.799 183.6C483.699 183.6 483.599 183.7 483.599 183.7C483.599 183.7 483.599 183.6 483.499 183.5C483.499 183.4 483.299 183.2 483.299 183C483.099 182.6 482.999 182.1 482.899 181.5C482.699 180.3 482.799 178.8 483.299 177.5C483.799 176.2 484.699 175 485.599 174.2C486.099 173.8 486.599 173.5 486.899 173.3C487.099 173.2 487.299 173.1 487.399 173.1C487.499 173 487.599 173 487.599 173Z" fill="#A2F9A2"/>
<path d="M481.6 157.2C481.6 157.2 481.7 157.2 481.8 157.3C481.9 157.4 482.1 157.4 482.3 157.5C482.7 157.7 483.1 158 483.6 158.4C484.5 159.2 485.4 160.4 485.9 161.7C486.4 163 486.4 164.5 486.2 165.7C486.1 166.3 485.9 166.8 485.7 167.2C485.6 167.4 485.5 167.6 485.5 167.7C485.4 167.8 485.4 167.9 485.4 167.9C485.4 167.9 485.3 167.9 485.2 167.8C485.1 167.7 484.9 167.7 484.7 167.6C484.3 167.4 483.9 167.1 483.4 166.7C482.5 165.9 481.6 164.7 481.1 163.4C480.6 162.1 480.6 160.6 480.8 159.4C480.9 158.8 481.1 158.3 481.3 157.9C481.4 157.7 481.5 157.5 481.5 157.4C481.6 157.2 481.6 157.2 481.6 157.2Z" fill="#A2F9A2"/>
<path d="M468.799 158.1C468.799 158.1 468.899 158.1 468.999 158.2C469.099 158.3 469.299 158.3 469.499 158.4C469.899 158.6 470.299 158.9 470.799 159.3C471.699 160.1 472.599 161.3 473.099 162.6C473.599 163.9 473.599 165.4 473.399 166.6C473.299 167.2 473.099 167.7 472.899 168.1C472.799 168.3 472.699 168.5 472.699 168.6C472.599 168.7 472.599 168.8 472.599 168.8C472.599 168.8 472.499 168.8 472.399 168.7C472.299 168.6 472.099 168.6 471.899 168.5C471.499 168.3 471.099 168 470.599 167.6C469.699 166.8 468.799 165.6 468.299 164.3C467.799 163 467.799 161.5 467.999 160.3C468.099 159.7 468.299 159.2 468.499 158.8C468.599 158.6 468.699 158.4 468.699 158.3C468.699 158.2 468.799 158.1 468.799 158.1Z" fill="#A2F9A2"/>
<path d="M467.5 143.1C467.5 143.1 467.5 143.2 467.6 143.3C467.6 143.4 467.7 143.6 467.8 143.8C468 144.2 468.1 144.7 468.2 145.3C468.4 146.5 468.3 148 467.8 149.3C467.3 150.6 466.4 151.8 465.5 152.6C465 153 464.5 153.3 464.2 153.5C464 153.6 463.8 153.7 463.7 153.7C463.6 153.7 463.5 153.8 463.5 153.8C463.5 153.8 463.5 153.7 463.4 153.6C463.4 153.5 463.2 153.3 463.2 153.1C463 152.7 462.9 152.2 462.8 151.6C462.6 150.4 462.7 148.9 463.2 147.6C463.7 146.3 464.6 145.1 465.5 144.3C466 143.9 466.5 143.6 466.8 143.4C467 143.3 467.2 143.2 467.3 143.2C467.5 143.1 467.5 143.1 467.5 143.1Z" fill="#A2F9A2"/>
<path d="M486.6 129.8C486.6 129.8 486.7 129.8 486.8 129.9C486.9 130 487.1 130 487.3 130.1C487.7 130.3 488.1 130.6 488.6 131C489.5 131.8 490.4 133 490.9 134.3C491.4 135.6 491.4 137.1 491.2 138.3C491.1 138.9 490.9 139.4 490.7 139.8C490.6 140 490.5 140.2 490.5 140.3C490.4 140.4 490.4 140.5 490.4 140.5C490.4 140.5 490.3 140.5 490.2 140.4C490.1 140.3 489.9 140.3 489.7 140.2C489.3 140 488.9 139.7 488.4 139.3C487.5 138.5 486.6 137.3 486.1 136C485.6 134.7 485.6 133.2 485.8 132C485.9 131.4 486.1 130.9 486.3 130.5C486.4 130.3 486.5 130.1 486.5 130C486.6 129.8 486.6 129.8 486.6 129.8Z" fill="#A2F9A2"/>
<path d="M463.199 123.2C463.199 123.2 463.299 123.2 463.399 123.3C463.499 123.4 463.699 123.4 463.899 123.5C464.299 123.7 464.699 124 465.199 124.4C466.099 125.2 466.999 126.4 467.499 127.7C467.999 129 467.999 130.5 467.799 131.7C467.699 132.3 467.499 132.8 467.299 133.2C467.199 133.4 467.099 133.6 467.099 133.7C466.999 133.8 466.999 133.9 466.999 133.9C466.999 133.9 466.899 133.9 466.799 133.8C466.699 133.7 466.499 133.7 466.299 133.6C465.899 133.4 465.499 133.1 464.999 132.7C464.099 131.9 463.199 130.7 462.699 129.4C462.199 128.1 462.199 126.6 462.399 125.4C462.499 124.8 462.699 124.3 462.899 123.9C462.999 123.7 463.099 123.5 463.099 123.4C463.199 123.3 463.199 123.2 463.199 123.2Z" fill="#A2F9A2"/>
<path d="M479.699 118C479.699 118 479.699 118.1 479.799 118.2C479.799 118.3 479.899 118.5 479.999 118.7C480.199 119.1 480.299 119.6 480.399 120.2C480.599 121.4 480.499 122.9 479.999 124.2C479.499 125.5 478.599 126.7 477.699 127.5C477.199 127.9 476.699 128.2 476.399 128.4C476.199 128.5 475.999 128.6 475.899 128.6C475.799 128.6 475.699 128.7 475.699 128.7C475.699 128.7 475.699 128.6 475.599 128.5C475.599 128.4 475.399 128.2 475.399 128C475.199 127.6 475.099 127.1 474.999 126.5C474.799 125.3 474.899 123.8 475.399 122.5C475.899 121.2 476.799 120 477.699 119.2C478.199 118.8 478.699 118.5 478.999 118.3C479.199 118.2 479.399 118.1 479.499 118.1C479.599 118 479.699 118 479.699 118Z" fill="#A2F9A2"/>
<path d="M470.399 107.7C470.399 107.7 470.399 107.8 470.499 107.9C470.499 108 470.599 108.2 470.699 108.4C470.899 108.8 470.999 109.3 471.099 109.9C471.299 111.1 471.199 112.6 470.699 113.9C470.199 115.2 469.299 116.4 468.399 117.2C467.899 117.6 467.399 117.9 467.099 118.1C466.899 118.2 466.699 118.3 466.599 118.3C466.499 118.3 466.399 118.4 466.399 118.4C466.399 118.4 466.399 118.3 466.299 118.2C466.299 118.1 466.099 117.9 466.099 117.7C465.899 117.3 465.799 116.8 465.699 116.2C465.499 115 465.599 113.5 466.099 112.2C466.599 110.9 467.499 109.7 468.399 108.9C468.899 108.5 469.399 108.2 469.699 108C469.899 107.9 470.099 107.8 470.199 107.8C470.299 107.7 470.399 107.7 470.399 107.7Z" fill="#A2F9A2"/>
<path d="M482.799 107.9C482.799 107.9 482.899 107.9 482.999 108C483.099 108.1 483.299 108.1 483.499 108.2C483.899 108.4 484.299 108.7 484.799 109.1C485.699 109.9 486.599 111.1 487.099 112.4C487.599 113.7 487.599 115.2 487.399 116.4C487.299 117 487.099 117.5 486.899 117.9C486.799 118.1 486.699 118.3 486.699 118.4C486.599 118.5 486.599 118.6 486.599 118.6C486.599 118.6 486.499 118.6 486.399 118.5C486.299 118.4 486.099 118.4 485.899 118.3C485.499 118.1 485.099 117.8 484.599 117.4C483.699 116.6 482.799 115.4 482.299 114.1C481.799 112.8 481.799 111.3 481.999 110.1C482.099 109.5 482.299 109 482.499 108.6C482.599 108.4 482.699 108.2 482.699 108.1C482.799 108 482.799 107.9 482.799 107.9Z" fill="#A2F9A2"/>
<path d="M521.9 102.1C521.9 102.1 522 102.1 522.1 102.2C522.2 102.3 522.4 102.3 522.6 102.4C523 102.6 523.4 102.9 523.9 103.3C524.8 104.1 525.7 105.3 526.2 106.6C526.7 107.9 526.7 109.4 526.5 110.6C526.4 111.2 526.2 111.7 526 112.1C525.9 112.3 525.8 112.5 525.8 112.6C525.7 112.7 525.7 112.8 525.7 112.8C525.7 112.8 525.6 112.8 525.5 112.7C525.4 112.6 525.2 112.6 525 112.5C524.6 112.3 524.2 112 523.7 111.6C522.8 110.8 521.9 109.6 521.4 108.3C520.9 107 520.9 105.5 521.1 104.3C521.2 103.7 521.4 103.2 521.6 102.8C521.7 102.6 521.8 102.4 521.8 102.3C521.8 102.2 521.9 102.1 521.9 102.1Z" fill="#A2F9A2"/>
<path d="M496.1 104.3C496.1 104.3 496.2 104.3 496.3 104.4C496.4 104.5 496.6 104.5 496.8 104.6C497.2 104.8 497.6 105.1 498.1 105.5C499 106.3 499.9 107.5 500.4 108.8C500.9 110.1 500.9 111.6 500.7 112.8C500.6 113.4 500.4 113.9 500.2 114.3C500.1 114.5 500 114.7 500 114.8C499.9 114.9 499.9 115 499.9 115C499.9 115 499.8 115 499.7 114.9C499.6 114.8 499.4 114.8 499.2 114.7C498.8 114.5 498.4 114.2 497.9 113.8C497 113 496.1 111.8 495.6 110.5C495.1 109.2 495.1 107.7 495.3 106.5C495.4 105.9 495.6 105.4 495.8 105C495.9 104.8 496 104.6 496 104.5C496.1 104.4 496.1 104.3 496.1 104.3Z" fill="#A2F9A2"/>
<path d="M516 94.5001C516 94.5001 516 94.6001 516.1 94.7001C516.1 94.8001 516.2 95.0001 516.3 95.2001C516.5 95.6001 516.6 96.1001 516.7 96.7001C516.9 97.9001 516.8 99.4001 516.3 100.7C515.8 102 514.9 103.2 514 104C513.5 104.4 513 104.7 512.7 104.9C512.5 105 512.3 105.1 512.2 105.1C512.1 105.1 512 105.2 512 105.2C512 105.2 512 105.1 511.9 105C511.9 104.9 511.7 104.7 511.7 104.5C511.5 104.1 511.4 103.6 511.3 103C511.1 101.8 511.2 100.3 511.7 99.0001C512.2 97.7001 513.1 96.5001 514 95.7001C514.5 95.3001 515 95.0001 515.3 94.8001C515.5 94.7001 515.7 94.6001 515.8 94.6001C516 94.5001 516 94.5001 516 94.5001Z" fill="#A2F9A2"/>
<path d="M477.699 91.1001C477.699 91.1001 477.699 91.2001 477.799 91.3001C477.799 91.4001 477.899 91.6001 477.999 91.8001C478.199 92.2001 478.299 92.7001 478.399 93.3001C478.599 94.5001 478.499 96.0001 477.999 97.3001C477.499 98.6001 476.599 99.8001 475.699 100.6C475.199 101 474.699 101.3 474.399 101.5C474.199 101.6 473.999 101.7 473.899 101.7C473.799 101.7 473.699 101.8 473.699 101.8C473.699 101.8 473.699 101.7 473.599 101.6C473.599 101.5 473.399 101.3 473.399 101.1C473.199 100.7 473.099 100.2 472.999 99.6001C472.799 98.4001 472.899 96.9001 473.399 95.6001C473.899 94.3001 474.799 93.1001 475.699 92.3001C476.199 91.9001 476.699 91.6001 476.999 91.4001C477.199 91.3001 477.399 91.2001 477.499 91.2001C477.599 91.2001 477.699 91.1001 477.699 91.1001Z" fill="#A2F9A2"/>
<path d="M486.6 87.0001C486.6 87.0001 486.7 87.0001 486.8 87.1001C486.9 87.2001 487.1 87.2001 487.3 87.3001C487.7 87.5001 488.1 87.8001 488.6 88.2001C489.5 89.0001 490.4 90.2001 490.9 91.5001C491.4 92.8001 491.4 94.3001 491.2 95.5001C491.1 96.1001 490.9 96.6001 490.7 97.0001C490.6 97.2001 490.5 97.4001 490.5 97.5001C490.4 97.6001 490.4 97.7001 490.4 97.7001C490.4 97.7001 490.3 97.7001 490.2 97.6001C490.1 97.5001 489.9 97.5001 489.7 97.4001C489.3 97.2001 488.9 96.9001 488.4 96.5001C487.5 95.7001 486.6 94.5001 486.1 93.2001C485.6 91.9001 485.6 90.4001 485.8 89.2001C485.9 88.6001 486.1 88.1001 486.3 87.7001C486.4 87.5001 486.5 87.3001 486.5 87.2001C486.6 87.1001 486.6 87.0001 486.6 87.0001Z" fill="#A2F9A2"/>
<path d="M474.9 72.9C474.9 72.9 475 72.9 475.1 73C475.2 73.1 475.4 73.1 475.6 73.2C476 73.4 476.4 73.7 476.9 74.1C477.8 74.9 478.7 76.1 479.2 77.4C479.7 78.7 479.7 80.2 479.5 81.4C479.4 82 479.2 82.5 479 82.9C478.9 83.1 478.8 83.3 478.8 83.4C478.7 83.5 478.7 83.6 478.7 83.6C478.7 83.6 478.6 83.6 478.5 83.5C478.4 83.4 478.2 83.4 478 83.3C477.6 83.1 477.2 82.8 476.7 82.4C475.8 81.6 474.9 80.4 474.4 79.1C473.9 77.8 473.9 76.3 474.1 75.1C474.2 74.5 474.4 74 474.6 73.6C474.7 73.4 474.8 73.2 474.8 73.1C474.9 73 474.9 72.9 474.9 72.9Z" fill="#A2F9A2"/>
<path d="M516.299 78.9C516.299 78.9 516.399 78.9 516.499 79C516.599 79.1 516.799 79.1 516.999 79.2C517.399 79.4 517.799 79.7 518.299 80.1C519.199 80.9 520.099 82.1 520.599 83.4C521.099 84.7 521.099 86.2 520.899 87.4C520.799 88 520.599 88.5 520.399 88.9C520.299 89.1 520.199 89.3 520.199 89.4C520.099 89.5 520.099 89.6 520.099 89.6C520.099 89.6 519.999 89.6 519.899 89.5C519.799 89.4 519.599 89.4 519.399 89.3C518.999 89.1 518.599 88.8 518.099 88.4C517.199 87.6 516.299 86.4 515.799 85.1C515.299 83.8 515.299 82.3 515.499 81.1C515.599 80.5 515.799 80 515.999 79.6C516.099 79.4 516.199 79.2 516.199 79.1C516.199 78.9 516.299 78.9 516.299 78.9Z" fill="#A2F9A2"/>
<path d="M504.699 91.1001C504.699 91.1001 504.699 91.2001 504.799 91.3001C504.799 91.4001 504.899 91.6001 504.999 91.8001C505.199 92.2001 505.299 92.7001 505.399 93.3001C505.599 94.5001 505.499 96.0001 504.999 97.3001C504.499 98.6001 503.599 99.8001 502.699 100.6C502.199 101 501.699 101.3 501.399 101.5C501.199 101.6 500.999 101.7 500.899 101.7C500.799 101.7 500.699 101.8 500.699 101.8C500.699 101.8 500.699 101.7 500.599 101.6C500.599 101.5 500.399 101.3 500.399 101.1C500.199 100.7 500.099 100.2 499.999 99.6001C499.799 98.4001 499.899 96.9001 500.399 95.6001C500.899 94.3001 501.799 93.1001 502.699 92.3001C503.199 91.9001 503.699 91.6001 503.999 91.4001C504.199 91.3001 504.399 91.2001 504.499 91.2001C504.599 91.2001 504.699 91.1001 504.699 91.1001Z" fill="#A2F9A2"/>
<path d="M499.899 77.7001C499.899 77.7001 499.899 77.8001 499.999 77.9001C499.999 78.0001 500.099 78.2001 500.199 78.4001C500.399 78.8001 500.499 79.3001 500.599 79.9001C500.799 81.1001 500.699 82.6001 500.199 83.9001C499.699 85.2001 498.799 86.4001 497.899 87.2001C497.399 87.6001 496.899 87.9001 496.599 88.1001C496.399 88.2001 496.199 88.3001 496.099 88.3001C495.999 88.3001 495.899 88.4001 495.899 88.4001C495.899 88.4001 495.899 88.3001 495.799 88.2001C495.799 88.1001 495.599 87.9001 495.599 87.7001C495.399 87.3001 495.299 86.8001 495.199 86.2001C494.999 85.0001 495.099 83.5001 495.599 82.2001C496.099 80.9001 496.999 79.7001 497.899 78.9001C498.399 78.5001 498.899 78.2001 499.199 78.0001C499.399 77.9001 499.599 77.8001 499.699 77.8001C499.899 77.7001 499.899 77.7001 499.899 77.7001Z" fill="#A2F9A2"/>
<path d="M489 70.3C489 70.3 489 70.4001 489.1 70.5001C489.1 70.6001 489.2 70.8001 489.3 71.0001C489.5 71.4001 489.6 71.9001 489.7 72.5001C489.9 73.7001 489.8 75.2001 489.3 76.5001C488.8 77.8001 487.9 79 487 79.8C486.5 80.2 486 80.5001 485.7 80.7001C485.5 80.8001 485.3 80.9001 485.2 80.9001C485.1 80.9001 485 81.0001 485 81.0001C485 81.0001 485 80.9 484.9 80.8C484.9 80.7 484.7 80.5 484.7 80.3C484.5 79.9 484.4 79.4 484.3 78.8C484.1 77.6 484.2 76.1 484.7 74.8C485.2 73.5 486.1 72.3001 487 71.5001C487.5 71.1001 488 70.8001 488.3 70.6001C488.5 70.5001 488.7 70.4001 488.8 70.4001C488.9 70.4001 489 70.3 489 70.3Z" fill="#A2F9A2"/>
<path d="M485.6 55.4C485.6 55.4 485.7 55.4 485.8 55.5C485.9 55.6 486.1 55.6 486.3 55.7C486.7 55.9 487.1 56.2 487.6 56.6C488.5 57.4 489.4 58.6 489.9 59.9C490.4 61.2 490.4 62.7 490.2 63.9C490.1 64.5 489.9 65 489.7 65.4C489.6 65.6 489.5 65.8 489.5 65.9C489.4 66 489.4 66.1 489.4 66.1C489.4 66.1 489.3 66.1 489.2 66C489.1 65.9 488.9 65.9 488.7 65.8C488.3 65.6 487.9 65.3 487.4 64.9C486.5 64.1 485.6 62.9 485.1 61.6C484.6 60.3 484.6 58.8 484.8 57.6C484.9 57 485.1 56.5 485.3 56.1C485.4 55.9 485.5 55.7 485.5 55.6C485.6 55.4 485.6 55.4 485.6 55.4Z" fill="#A2F9A2"/>
<path d="M510.299 62.7001C510.299 62.7001 510.399 62.7001 510.499 62.8001C510.599 62.9001 510.799 62.9001 510.999 63.0001C511.399 63.2001 511.799 63.5001 512.299 63.9001C513.199 64.7001 514.099 65.9001 514.599 67.2001C515.099 68.5001 515.099 70.0001 514.899 71.2001C514.799 71.8001 514.599 72.3001 514.399 72.7001C514.299 72.9001 514.199 73.1001 514.199 73.2001C514.099 73.3001 514.099 73.4001 514.099 73.4001C514.099 73.4001 513.999 73.4001 513.899 73.3001C513.799 73.2001 513.599 73.2001 513.399 73.1001C512.999 72.9001 512.599 72.6001 512.099 72.2001C511.199 71.4001 510.299 70.2001 509.799 68.9001C509.299 67.6001 509.299 66.1001 509.499 64.9001C509.599 64.3001 509.799 63.8001 509.999 63.4001C510.099 63.2001 510.199 63.0001 510.199 62.9001C510.299 62.8001 510.299 62.7001 510.299 62.7001Z" fill="#A2F9A2"/>
<path d="M502.899 63.5001C502.899 63.5001 502.899 63.6001 502.999 63.7001C502.999 63.8001 503.099 64.0001 503.199 64.2001C503.399 64.6001 503.499 65.1001 503.599 65.7001C503.799 66.9001 503.699 68.4001 503.199 69.7001C502.699 71.0001 501.799 72.2001 500.899 73.0001C500.399 73.4001 499.899 73.7001 499.599 73.9001C499.399 74.0001 499.199 74.1001 499.099 74.1001C498.999 74.1001 498.899 74.2001 498.899 74.2001C498.899 74.2001 498.899 74.1001 498.799 74.0001C498.799 73.9001 498.599 73.7001 498.599 73.5001C498.399 73.1001 498.299 72.6001 498.199 72.0001C497.999 70.8001 498.099 69.3001 498.599 68.0001C499.099 66.7001 499.999 65.5001 500.899 64.7001C501.399 64.3001 501.899 64.0001 502.199 63.8001C502.399 63.7001 502.599 63.6001 502.699 63.6001C502.899 63.5001 502.899 63.5001 502.899 63.5001Z" fill="#A2F9A2"/>
<path d="M510.699 76.5001C510.699 76.5001 510.699 76.6001 510.799 76.7001C510.799 76.8001 510.899 77.0001 510.999 77.2001C511.199 77.6001 511.299 78.1001 511.399 78.7001C511.599 79.9001 511.499 81.4001 510.999 82.7001C510.499 84.0001 509.599 85.2001 508.699 86.0001C508.199 86.4001 507.699 86.7001 507.399 86.9001C507.199 87.0001 506.999 87.1001 506.899 87.1001C506.799 87.1001 506.699 87.2001 506.699 87.2001C506.699 87.2001 506.699 87.1001 506.599 87.0001C506.599 86.9001 506.399 86.7001 506.399 86.5001C506.199 86.1001 506.099 85.6001 505.999 85.0001C505.799 83.8001 505.899 82.3001 506.399 81.0001C506.899 79.7001 507.799 78.5001 508.699 77.7001C509.199 77.3001 509.699 77.0001 509.999 76.8001C510.199 76.7001 510.399 76.6001 510.499 76.6001C510.599 76.5001 510.699 76.5001 510.699 76.5001Z" fill="#A2F9A2"/>
<path d="M499.899 50.2001C499.899 50.2001 499.899 50.3001 499.999 50.4001C499.999 50.5001 500.099 50.7001 500.099 50.9001C500.199 51.3001 500.299 51.9001 500.299 52.5001C500.299 53.7001 499.999 55.2001 499.199 56.4001C498.499 57.6001 497.399 58.6001 496.299 59.2001C495.799 59.5001 495.199 59.7001 494.799 59.8001C494.599 59.9001 494.399 59.9001 494.299 59.9001C494.199 59.9001 494.099 59.9001 494.099 59.9001C494.099 59.9001 494.099 59.8001 493.999 59.7001C493.999 59.6001 493.899 59.4001 493.899 59.2001C493.799 58.8001 493.699 58.2001 493.699 57.6001C493.699 56.4001 493.999 54.9001 494.799 53.7001C495.499 52.5001 496.599 51.5001 497.699 50.9001C498.199 50.6001 498.799 50.4001 499.199 50.3001C499.399 50.2001 499.599 50.2001 499.699 50.2001C499.799 50.2001 499.899 50.2001 499.899 50.2001Z" fill="#A2F9A2"/>
<path d="M499 123.8C499 173.3 499 152.8 499 202.4C499 217.6 499 232.9 499 248.1C499 251.3 494 251.3 494 248.1C494 198.6 494 219.1 494 169.5C494 154.3 494 139 494 123.8C494 120.6 499 120.6 499 123.8Z" fill="#D36248"/>
<path d="M516.899 138.4C510.899 152.9 504.899 167.4 498.899 181.9C497.699 184.8 492.799 183.6 494.099 180.6C500.099 166.1 506.099 151.6 512.099 137.1C513.299 134.2 518.199 135.5 516.899 138.4Z" fill="#D36248"/>
<path d="M479.7 136.1C486 144.5 492.4 152.8 498.7 161.2C500.6 163.8 496.3 166.3 494.4 163.7C488.1 155.3 481.7 147 475.4 138.6C473.4 136 477.8 133.5 479.7 136.1Z" fill="#D36248"/>
<path d="M88.0006 121.1C117.216 121.1 140.901 94.1028 140.901 60.8C140.901 27.4972 117.216 0.5 88.0006 0.5C58.7847 0.5 35.1006 27.4972 35.1006 60.8C35.1006 94.1028 58.7847 121.1 88.0006 121.1Z" fill="#46D153"/>
<path d="M125 29.8C125 29.8 125 29.9001 124.9 30.0001C124.9 30.1001 124.8 30.3001 124.7 30.5001C124.5 30.9001 124.4 31.4001 124.3 32.0001C124.1 33.2001 124.2 34.7001 124.7 36.0001C125.2 37.3001 126.1 38.5 127 39.3C127.5 39.7 128 40.0001 128.3 40.2001C128.5 40.3001 128.7 40.4001 128.8 40.4001C128.9 40.4001 129 40.5001 129 40.5001C129 40.5001 129 40.4 129.1 40.3C129.1 40.2 129.3 40 129.3 39.8C129.5 39.4 129.6 38.9 129.7 38.3C129.9 37.1 129.8 35.6 129.3 34.3C128.8 33 127.9 31.8001 127 31.0001C126.5 30.6001 126 30.3001 125.7 30.1001C125.5 30.0001 125.3 29.9001 125.2 29.9001C125 29.8001 125 29.8 125 29.8Z" fill="#76E57B"/>
<path d="M117.1 16.7C117.1 16.7 117 16.6999 116.9 16.7999C116.8 16.7999 116.6 16.9 116.4 17C116 17.2 115.5 17.4 115 17.7C114 18.4 113 19.5 112.3 20.7C111.7 22 111.4 23.4 111.5 24.7C111.6 25.3 111.7 25.8999 111.8 26.2999C111.8 26.4999 111.9 26.6999 112 26.7999C112 26.8999 112.1 27 112.1 27C112.1 27 112.2 26.9999 112.3 26.8999C112.4 26.8999 112.6 26.8 112.8 26.7C113.2 26.5 113.7 26.3 114.2 26C115.2 25.3 116.2 24.2 116.8 23C117.4 21.7 117.7 20.3 117.6 19C117.5 18.4 117.4 17.7999 117.3 17.3999C117.3 17.1999 117.2 16.9999 117.1 16.8999C117.1 16.7999 117.1 16.7 117.1 16.7Z" fill="#76E57B"/>
<path d="M116 37.7C116 37.7 115.9 37.6999 115.8 37.7999C115.7 37.7999 115.5 37.9 115.3 38C114.9 38.2 114.4 38.4 113.9 38.7C112.9 39.4 111.9 40.5 111.2 41.7C110.6 43 110.3 44.4 110.4 45.7C110.5 46.3 110.6 46.8999 110.7 47.2999C110.7 47.4999 110.8 47.6999 110.9 47.7999C110.9 47.8999 111 48 111 48C111 48 111.1 47.9999 111.2 47.8999C111.3 47.8999 111.5 47.8 111.7 47.7C112.1 47.5 112.6 47.3 113.1 47C114.1 46.3 115.1 45.2 115.7 44C116.3 42.7 116.6 41.3 116.5 40C116.4 39.4 116.3 38.7999 116.2 38.3999C116.2 38.1999 116.1 37.9999 116 37.8999C116 37.6999 116 37.7 116 37.7Z" fill="#76E57B"/>
<path d="M99.1999 23.9C99.1999 23.9 99.1999 24 99.0999 24.1C99.0999 24.2 98.9999 24.4 98.8999 24.6C98.6999 25 98.5999 25.5 98.4999 26.1C98.2999 27.3 98.3999 28.8 98.8999 30.1C99.3999 31.4 100.3 32.6 101.2 33.4C101.7 33.8 102.2 34.1 102.5 34.3C102.7 34.4 102.9 34.5 103 34.5C103.1 34.5 103.2 34.6 103.2 34.6C103.2 34.6 103.2 34.5 103.3 34.4C103.3 34.3 103.5 34.1 103.5 33.9C103.7 33.5 103.8 33 103.9 32.4C104.1 31.2 104 29.7 103.5 28.4C103 27.1 102.1 25.9 101.2 25.1C100.7 24.7 100.2 24.4 99.8999 24.2C99.6999 24.1 99.4999 24 99.3999 24C99.1999 23.9 99.1999 23.9 99.1999 23.9Z" fill="#76E57B"/>
<path d="M98.6999 7.19995C98.6999 7.19995 98.6999 7.29995 98.5999 7.39995C98.5999 7.49995 98.4999 7.69995 98.3999 7.89995C98.1999 8.29995 98.0999 8.79995 97.9999 9.39995C97.7999 10.5999 97.8999 12.0999 98.3999 13.3999C98.8999 14.6999 99.7999 15.9 100.7 16.7C101.2 17.1 101.7 17.3999 102 17.5999C102.2 17.6999 102.4 17.7999 102.5 17.7999C102.6 17.7999 102.7 17.8999 102.7 17.8999C102.7 17.8999 102.7 17.8 102.8 17.7C102.8 17.6 103 17.4 103 17.2C103.2 16.8 103.3 16.3 103.4 15.7C103.6 14.5 103.5 13 103 11.7C102.5 10.4 101.6 9.19995 100.7 8.39995C100.2 7.99995 99.6999 7.69995 99.3999 7.49995C99.1999 7.39995 98.9999 7.29994 98.8999 7.29994C98.7999 7.29994 98.6999 7.19995 98.6999 7.19995Z" fill="#76E57B"/>
<path d="M122.2 47.9C122.2 47.9 122.2 48 122.1 48.1C122.1 48.2 122 48.4 121.9 48.6C121.7 49 121.6 49.5 121.5 50.1C121.3 51.3 121.4 52.8 121.9 54.1C122.4 55.4 123.3 56.6 124.2 57.4C124.7 57.8 125.2 58.1 125.5 58.3C125.7 58.4 125.9 58.5 126 58.5C126.1 58.5 126.2 58.6 126.2 58.6C126.2 58.6 126.2 58.5 126.3 58.4C126.3 58.3 126.5 58.1 126.5 57.9C126.7 57.5 126.8 57 126.9 56.4C127.1 55.2 127 53.7 126.5 52.4C126 51.1 125.1 49.9 124.2 49.1C123.7 48.7 123.2 48.4 122.9 48.2C122.7 48.1 122.5 48 122.4 48C122.2 47.9 122.2 47.9 122.2 47.9Z" fill="#76E57B"/>
<path d="M103.6 48.7C103.6 48.7 103.5 48.6999 103.4 48.7999C103.3 48.7999 103.1 48.9 102.9 49C102.5 49.2 102 49.4 101.5 49.7C100.5 50.4 99.5004 51.5 98.8004 52.7C98.2004 54 97.9004 55.4 98.0004 56.7C98.1004 57.3 98.2004 57.8999 98.3004 58.2999C98.3004 58.4999 98.4004 58.6999 98.5004 58.7999C98.5004 58.8999 98.6004 59 98.6004 59C98.6004 59 98.7004 58.9999 98.8004 58.8999C98.9004 58.8999 99.1004 58.8 99.3004 58.7C99.7004 58.5 100.2 58.3 100.7 58C101.7 57.3 102.7 56.2 103.3 55C103.9 53.7 104.2 52.3 104.1 51C104 50.4 103.9 49.7999 103.8 49.3999C103.8 49.1999 103.7 48.9999 103.6 48.8999C103.6 48.6999 103.6 48.7 103.6 48.7Z" fill="#76E57B"/>
<path d="M136.3 60.4C136.3 60.4 136.2 60.4 136.1 60.5C136 60.5 135.8 60.6 135.6 60.7C135.2 60.9 134.7 61.1 134.2 61.4C133.2 62.1 132.2 63.2 131.5 64.4C130.9 65.7 130.6 67.1 130.7 68.4C130.8 69 130.9 69.6 131 70C131 70.2 131.1 70.4 131.2 70.5C131.2 70.6 131.3 70.7 131.3 70.7C131.3 70.7 131.4 70.7 131.5 70.6C131.6 70.6 131.8 70.5 132 70.4C132.4 70.2 132.9 70 133.4 69.7C134.4 69 135.4 67.9 136 66.7C136.6 65.4 136.9 64 136.8 62.7C136.7 62.1 136.6 61.5 136.5 61.1C136.5 60.9 136.4 60.7 136.3 60.6C136.3 60.4 136.3 60.4 136.3 60.4Z" fill="#76E57B"/>
<path d="M119.7 68.1C119.7 68.1 119.6 68.1 119.5 68.2C119.4 68.2 119.2 68.3 119 68.4C118.6 68.6 118.1 68.8 117.6 69.1C116.6 69.8 115.6 70.9 114.9 72.1C114.3 73.4 114 74.8 114.1 76.1C114.2 76.7 114.3 77.3 114.4 77.7C114.4 77.9 114.5 78.1 114.6 78.2C114.6 78.3 114.7 78.4 114.7 78.4C114.7 78.4 114.8 78.4 114.9 78.3C115 78.3 115.2 78.2 115.4 78.1C115.8 77.9 116.3 77.7 116.8 77.4C117.8 76.7 118.8 75.6 119.4 74.4C120 73.1 120.3 71.7 120.2 70.4C120.1 69.8 120 69.2 119.9 68.8C119.9 68.6 119.8 68.4 119.7 68.3C119.8 68.1 119.7 68.1 119.7 68.1Z" fill="#76E57B"/>
<path d="M125 83C125 83 125 83.1 124.9 83.2C124.9 83.3 124.8 83.5 124.7 83.7C124.5 84.1 124.4 84.6 124.3 85.2C124.1 86.4 124.2 87.9 124.7 89.2C125.2 90.5 126.1 91.7 127 92.5C127.5 92.9 128 93.2 128.3 93.4C128.5 93.5 128.7 93.6 128.8 93.6C128.9 93.6 129 93.7 129 93.7C129 93.7 129 93.6 129.1 93.5C129.1 93.4 129.3 93.2 129.3 93C129.5 92.6 129.6 92.1 129.7 91.5C129.9 90.3 129.8 88.8 129.3 87.5C128.8 86.2 127.9 85 127 84.2C126.5 83.8 126 83.5 125.7 83.3C125.5 83.2 125.3 83.1 125.2 83.1C125 83.1 125 83 125 83Z" fill="#76E57B"/>
<path d="M117.1 97.3C117.1 97.3 117 97.3001 116.9 97.4001C116.8 97.4001 116.6 97.5001 116.4 97.6001C116 97.8001 115.5 98 115 98.3C114 99 113 100.1 112.3 101.3C111.7 102.6 111.4 104 111.5 105.3C111.6 105.9 111.7 106.5 111.8 106.9C111.8 107.1 111.9 107.3 112 107.4C112 107.5 112.1 107.6 112.1 107.6C112.1 107.6 112.2 107.6 112.3 107.5C112.4 107.5 112.6 107.4 112.8 107.3C113.2 107.1 113.7 106.9 114.2 106.6C115.2 105.9 116.2 104.8 116.8 103.6C117.4 102.3 117.7 100.9 117.6 99.6001C117.5 99.0001 117.4 98.4001 117.3 98.0001C117.3 97.8001 117.2 97.6001 117.1 97.5001C117.1 97.4001 117.1 97.3 117.1 97.3Z" fill="#76E57B"/>
<path d="M108.5 84.2C108.5 84.2 108.5 84.2999 108.4 84.3999C108.4 84.4999 108.3 84.6999 108.2 84.8999C108 85.2999 107.9 85.7999 107.8 86.3999C107.6 87.5999 107.7 89.0999 108.2 90.3999C108.7 91.6999 109.6 92.9 110.5 93.7C111 94.1 111.5 94.3999 111.8 94.5999C112 94.6999 112.2 94.7999 112.3 94.7999C112.4 94.7999 112.5 94.8999 112.5 94.8999C112.5 94.8999 112.5 94.8 112.6 94.7C112.6 94.6 112.8 94.4 112.8 94.2C113 93.8 113.1 93.3 113.2 92.7C113.4 91.5 113.3 90 112.8 88.7C112.3 87.4 111.4 86.1999 110.5 85.3999C110 84.9999 109.5 84.7 109.2 84.5C109 84.4 108.8 84.2999 108.7 84.2999C108.6 84.1999 108.5 84.2 108.5 84.2Z" fill="#76E57B"/>
<path d="M98.6999 102.4C98.6999 102.4 98.6999 102.5 98.5999 102.6C98.5999 102.7 98.4999 102.9 98.3999 103.1C98.1999 103.5 98.0999 104 97.9999 104.6C97.7999 105.8 97.8999 107.3 98.3999 108.6C98.8999 109.9 99.7999 111.1 100.7 111.9C101.2 112.3 101.7 112.6 102 112.8C102.2 112.9 102.4 113 102.5 113C102.6 113 102.7 113.1 102.7 113.1C102.7 113.1 102.7 113 102.8 112.9C102.8 112.8 103 112.6 103 112.4C103.2 112 103.3 111.5 103.4 110.9C103.6 109.7 103.5 108.2 103 106.9C102.5 105.6 101.6 104.4 100.7 103.6C100.2 103.2 99.6999 102.9 99.3999 102.7C99.1999 102.6 98.9999 102.5 98.8999 102.5C98.7999 102.4 98.6999 102.4 98.6999 102.4Z" fill="#76E57B"/>
<path d="M91.4001 35.1C91.4001 35.1 91.4001 35.2 91.3001 35.3C91.3001 35.4 91.2001 35.6 91.1001 35.8C90.9001 36.2 90.8001 36.7 90.7001 37.3C90.5001 38.5 90.6001 40 91.1001 41.3C91.6001 42.6 92.5001 43.8 93.4001 44.6C93.9001 45 94.4001 45.3 94.7001 45.5C94.9001 45.6 95.1001 45.7 95.2001 45.7C95.3001 45.7 95.4001 45.8 95.4001 45.8C95.4001 45.8 95.4001 45.7 95.5001 45.6C95.5001 45.5 95.7001 45.3 95.7001 45.1C95.9001 44.7 96.0001 44.2 96.1001 43.6C96.3001 42.4 96.2001 40.9 95.7001 39.6C95.2001 38.3 94.3001 37.1 93.4001 36.3C92.9001 35.9 92.4001 35.6 92.1001 35.4C91.9001 35.3 91.7001 35.2 91.6001 35.2C91.4001 35.1 91.4001 35.1 91.4001 35.1Z" fill="#76E57B"/>
<path d="M76.6003 55.5C76.6003 55.5 76.6003 55.6 76.5003 55.7C76.5003 55.8 76.4003 56 76.3003 56.2C76.1003 56.6 76.0003 57.1 75.9003 57.7C75.7003 58.9 75.8003 60.4 76.3003 61.7C76.8003 63 77.7003 64.2 78.6003 65C79.1003 65.4 79.6003 65.7 79.9003 65.9C80.1003 66 80.3003 66.1 80.4003 66.1C80.5003 66.1 80.6003 66.2 80.6003 66.2C80.6003 66.2 80.6003 66.1 80.7003 66C80.7003 65.9 80.9003 65.7 80.9003 65.5C81.1003 65.1 81.2003 64.6 81.3003 64C81.5003 62.8 81.4003 61.3 80.9003 60C80.4003 58.7 79.5003 57.5 78.6003 56.7C78.1003 56.3 77.6003 56 77.3003 55.8C77.1003 55.7 76.9003 55.6 76.8003 55.6C76.6003 55.6 76.6003 55.5 76.6003 55.5Z" fill="#76E57B"/>
<path d="M81.2996 38.9C81.2996 38.9 81.1996 38.9 81.0996 39C80.9996 39 80.7996 39.1 80.5996 39.2C80.1996 39.4 79.6996 39.6 79.1996 39.9C78.1996 40.6 77.1996 41.7 76.4996 42.9C75.8996 44.2 75.5996 45.6 75.6996 46.9C75.7996 47.5 75.8996 48.1 75.9996 48.5C75.9996 48.7 76.0996 48.9 76.1996 49C76.1996 49.1 76.2996 49.2 76.2996 49.2C76.2996 49.2 76.3996 49.2 76.4996 49.1C76.5996 49.1 76.7996 49 76.9996 48.9C77.3996 48.7 77.8996 48.5 78.3996 48.2C79.3996 47.5 80.3996 46.4 80.9996 45.2C81.5996 43.9 81.8996 42.5 81.7996 41.2C81.6996 40.6 81.5996 40 81.4996 39.6C81.4996 39.4 81.3996 39.2 81.2996 39.1C81.3996 39 81.2996 38.9 81.2996 38.9Z" fill="#76E57B"/>
<path d="M89.9998 21.9C89.9998 21.9 89.8998 21.9 89.7998 22C89.6998 22 89.4998 22.1 89.2998 22.2C88.8998 22.4 88.3998 22.6 87.8998 22.9C86.8998 23.6 85.8998 24.7 85.1998 25.9C84.5998 27.2 84.2998 28.6 84.3998 29.9C84.4998 30.5 84.5998 31.1 84.6998 31.5C84.6998 31.7 84.7998 31.9 84.8998 32C84.8998 32.1 84.9998 32.2 84.9998 32.2C84.9998 32.2 85.0998 32.2 85.1998 32.1C85.2998 32.1 85.4998 32 85.6998 31.9C86.0998 31.7 86.5998 31.5 87.0998 31.2C88.0998 30.5 89.0998 29.4 89.6998 28.2C90.2998 26.9 90.5998 25.5 90.4998 24.2C90.3998 23.6 90.2998 23 90.1998 22.6C90.1998 22.4 90.0998 22.2 89.9998 22.1C89.9998 22 89.9998 21.9 89.9998 21.9Z" fill="#76E57B"/>
<path d="M85.4997 5C85.4997 5 85.4997 5.1 85.3997 5.2C85.3997 5.3 85.2997 5.5 85.1997 5.7C84.9997 6.1 84.8997 6.6 84.7997 7.2C84.5997 8.4 84.6997 9.9 85.1997 11.2C85.6997 12.5 86.5997 13.7 87.4997 14.5C87.9997 14.9 88.4997 15.2 88.7997 15.4C88.9997 15.5 89.1997 15.6 89.2997 15.6C89.3997 15.6 89.4997 15.7 89.4997 15.7C89.4997 15.7 89.4997 15.6 89.5997 15.5C89.5997 15.4 89.7997 15.2 89.7997 15C89.9997 14.6 90.0997 14.1 90.1997 13.5C90.3997 12.3 90.2997 10.8 89.7997 9.5C89.2997 8.2 88.3997 7 87.4997 6.2C86.9997 5.8 86.4997 5.49999 86.1997 5.29999C85.9997 5.19999 85.7997 5.09999 85.6997 5.09999C85.5997 5.09999 85.4997 5 85.4997 5Z" fill="#76E57B"/>
<path d="M75.2996 7.40002C75.2996 7.40002 75.1996 7.40003 75.0996 7.50003C74.9996 7.50003 74.7996 7.60003 74.5996 7.70003C74.1996 7.90003 73.6996 8.10002 73.1996 8.40002C72.1996 9.10002 71.1996 10.2 70.4996 11.4C69.8996 12.7 69.5996 14.1 69.6996 15.4C69.7996 16 69.8996 16.6 69.9996 17C69.9996 17.2 70.0996 17.4 70.1996 17.5C70.1996 17.6 70.2996 17.7 70.2996 17.7C70.2996 17.7 70.3996 17.7 70.4996 17.6C70.5996 17.6 70.7996 17.5 70.9996 17.4C71.3996 17.2 71.8996 17 72.3996 16.7C73.3996 16 74.3996 14.9 74.9996 13.7C75.5996 12.4 75.8996 11 75.7996 9.70003C75.6996 9.10003 75.5996 8.50002 75.4996 8.10002C75.4996 7.90002 75.3996 7.70002 75.2996 7.60002C75.2996 7.50002 75.2996 7.40002 75.2996 7.40002Z" fill="#76E57B"/>
<path d="M76.4998 22.6C76.4998 22.6 76.3998 22.6 76.2998 22.7C76.1998 22.7 75.9998 22.8 75.7998 22.9C75.3998 23.1 74.8998 23.3 74.3998 23.6C73.3998 24.3 72.3998 25.4 71.6998 26.6C71.0998 27.9 70.7998 29.3 70.8998 30.6C70.9998 31.2 71.0998 31.8 71.1998 32.2C71.1998 32.4 71.2998 32.6 71.3998 32.7C71.3998 32.8 71.4998 32.9 71.4998 32.9C71.4998 32.9 71.5998 32.9 71.6998 32.8C71.7998 32.8 71.9998 32.7 72.1998 32.6C72.5998 32.4 73.0998 32.2 73.5998 31.9C74.5998 31.2 75.5998 30.1 76.1998 28.9C76.7998 27.6 77.0998 26.2 76.9998 24.9C76.8998 24.3 76.7998 23.7 76.6998 23.3C76.6998 23.1 76.5998 22.9 76.4998 22.8C76.4998 22.7 76.4998 22.6 76.4998 22.6Z" fill="#76E57B"/>
<path d="M56.6999 16C56.6999 16 56.6999 16.1 56.5999 16.2C56.5999 16.3 56.4999 16.5 56.3999 16.7C56.1999 17.1 56.0999 17.6 55.9999 18.2C55.7999 19.4 55.8999 20.9 56.3999 22.2C56.8999 23.5 57.7999 24.7 58.6999 25.5C59.1999 25.9 59.6999 26.2 59.9999 26.4C60.1999 26.5 60.3999 26.6 60.4999 26.6C60.5999 26.6 60.6999 26.7 60.6999 26.7C60.6999 26.7 60.6999 26.6 60.7999 26.5C60.7999 26.4 60.9999 26.2 60.9999 26C61.1999 25.6 61.2999 25.1 61.3999 24.5C61.5999 23.3 61.4999 21.8 60.9999 20.5C60.4999 19.2 59.5999 18 58.6999 17.2C58.1999 16.8 57.6999 16.5 57.3999 16.3C57.1999 16.2 56.9999 16.1 56.8999 16.1C56.6999 16 56.6999 16 56.6999 16Z" fill="#76E57B"/>
<path d="M59.4997 32.4C59.4997 32.4 59.4997 32.5 59.3997 32.6C59.3997 32.7 59.2997 32.9 59.1997 33.1C58.9997 33.5 58.8997 34 58.7997 34.6C58.5997 35.8 58.6997 37.3 59.1997 38.6C59.6997 39.9 60.5997 41.1 61.4997 41.9C61.9997 42.3 62.4997 42.6 62.7997 42.8C62.9997 42.9 63.1997 43 63.2997 43C63.3997 43 63.4997 43.1 63.4997 43.1C63.4997 43.1 63.4997 43 63.5997 42.9C63.5997 42.8 63.7997 42.6 63.7997 42.4C63.9997 42 64.0997 41.5 64.1997 40.9C64.3997 39.7 64.2997 38.2 63.7997 36.9C63.2997 35.6 62.3997 34.4 61.4997 33.6C60.9997 33.2 60.4997 32.9 60.1997 32.7C59.9997 32.6 59.7997 32.5 59.6997 32.5C59.5997 32.4 59.4997 32.4 59.4997 32.4Z" fill="#76E57B"/>
<path d="M48.7 31.5C48.7 31.5 48.6 31.5 48.5 31.6C48.4 31.6 48.2 31.7 48 31.8C47.6 32 47.1 32.2 46.6 32.5C45.6 33.2 44.6 34.3 43.9 35.5C43.3 36.8 43 38.2 43.1 39.5C43.2 40.1 43.3 40.7 43.4 41.1C43.4 41.3 43.5 41.5 43.6 41.6C43.6 41.7 43.7 41.8 43.7 41.8C43.7 41.8 43.8 41.8 43.9 41.7C44 41.7 44.2 41.6 44.4 41.5C44.8 41.3 45.3 41.1 45.8 40.8C46.8 40.1 47.8 39 48.4 37.8C49 36.5 49.3 35.1 49.2 33.8C49.1 33.2 49 32.6 48.9 32.2C48.9 32 48.8 31.8 48.7 31.7C48.7 31.5 48.7 31.5 48.7 31.5Z" fill="#76E57B"/>
<path d="M66.7996 51.4C66.7996 51.4 66.6996 51.4 66.5996 51.5C66.4996 51.5 66.2996 51.6 66.0996 51.7C65.6996 51.9 65.1996 52.1 64.6996 52.4C63.6996 53.1 62.6996 54.2 61.9996 55.4C61.3996 56.7 61.0996 58.1 61.1996 59.4C61.2996 60 61.3996 60.6 61.4996 61C61.4996 61.2 61.5996 61.4 61.6996 61.5C61.6996 61.6 61.7996 61.7 61.7996 61.7C61.7996 61.7 61.8996 61.7 61.9996 61.6C62.0996 61.6 62.2996 61.5 62.4996 61.4C62.8996 61.2 63.3996 61 63.8996 60.7C64.8996 60 65.8996 58.9 66.4996 57.7C67.0996 56.4 67.3996 55 67.2996 53.7C67.1996 53.1 67.0996 52.5 66.9996 52.1C66.9996 51.9 66.8996 51.7 66.7996 51.6C66.7996 51.4 66.7996 51.4 66.7996 51.4Z" fill="#76E57B"/>
<path d="M49.9001 45.1C49.9001 45.1 49.9001 45.2 49.8001 45.3C49.8001 45.4 49.7001 45.6 49.6001 45.8C49.4001 46.2 49.3001 46.7 49.2001 47.3C49.0001 48.5 49.1001 50 49.6001 51.3C50.1001 52.6 51.0001 53.8 51.9001 54.6C52.4001 55 52.9001 55.3 53.2001 55.5C53.4001 55.6 53.6001 55.7 53.7001 55.7C53.8001 55.7 53.9001 55.8 53.9001 55.8C53.9001 55.8 53.9001 55.7 54.0001 55.6C54.0001 55.5 54.2001 55.3 54.2001 55.1C54.4001 54.7 54.5001 54.2 54.6001 53.6C54.8001 52.4 54.7001 50.9 54.2001 49.6C53.7001 48.3 52.8001 47.1 51.9001 46.3C51.4001 45.9 50.9001 45.6 50.6001 45.4C50.4001 45.3 50.2001 45.2 50.1001 45.2C50.0001 45.2 49.9001 45.1 49.9001 45.1Z" fill="#76E57B"/>
<path d="M39.9001 55C39.9001 55 39.9001 55.1 39.8001 55.2C39.8001 55.3 39.7001 55.5 39.6001 55.7C39.4001 56.1 39.3001 56.6 39.2001 57.2C39.0001 58.4 39.1001 59.9 39.6001 61.2C40.1001 62.5 41.0001 63.7 41.9001 64.5C42.4001 64.9 42.9001 65.2 43.2001 65.4C43.4001 65.5 43.6001 65.6 43.7001 65.6C43.8001 65.6 43.9001 65.7 43.9001 65.7C43.9001 65.7 43.9001 65.6 44.0001 65.5C44.0001 65.4 44.2001 65.2 44.2001 65C44.4001 64.6 44.5001 64.1 44.6001 63.5C44.8001 62.3 44.7001 60.8 44.2001 59.5C43.7001 58.2 42.8001 57 41.9001 56.2C41.4001 55.8 40.9001 55.5 40.6001 55.3C40.4001 55.2 40.2001 55.1 40.1001 55.1C40.0001 55.1 39.9001 55 39.9001 55Z" fill="#76E57B"/>
<path d="M56.7 65.4C56.7 65.4 56.6 65.4 56.5 65.5C56.4 65.5 56.2 65.6 56 65.7C55.6 65.9 55.1 66.1 54.6 66.4C53.6 67.1 52.6 68.2 51.9 69.4C51.3 70.7 51 72.1 51.1 73.4C51.2 74 51.3 74.6 51.4 75C51.4 75.2 51.5 75.4 51.6 75.5C51.6 75.6 51.7 75.7 51.7 75.7C51.7 75.7 51.8 75.7 51.9 75.6C52 75.6 52.2 75.5 52.4 75.4C52.8 75.2 53.3 75 53.8 74.7C54.8 74 55.8 72.9 56.4 71.7C57 70.4 57.3 69 57.2 67.7C57.1 67.1 57 66.5 56.9 66.1C56.9 65.9 56.8 65.7 56.7 65.6C56.7 65.5 56.7 65.4 56.7 65.4Z" fill="#76E57B"/>
<path d="M69.7996 75.6C69.7996 75.6 69.6996 75.6 69.5996 75.7C69.4996 75.7 69.2996 75.8 69.0996 75.9C68.6996 76.1 68.1996 76.3 67.6996 76.6C66.6996 77.3 65.6996 78.4 64.9996 79.6C64.3996 80.9 64.0996 82.3 64.1996 83.6C64.2996 84.2 64.3996 84.8 64.4996 85.2C64.4996 85.4 64.5996 85.6 64.6996 85.7C64.6996 85.8 64.7996 85.9 64.7996 85.9C64.7996 85.9 64.8996 85.9 64.9996 85.8C65.0996 85.8 65.2996 85.7 65.4996 85.6C65.8996 85.4 66.3996 85.2 66.8996 84.9C67.8996 84.2 68.8996 83.1 69.4996 81.9C70.0996 80.6 70.3996 79.2 70.2996 77.9C70.1996 77.3 70.0996 76.7 69.9996 76.3C69.9996 76.1 69.8996 75.9 69.7996 75.8C69.7996 75.7 69.7996 75.6 69.7996 75.6Z" fill="#76E57B"/>
<path d="M44.1999 80.5C44.1999 80.5 44.1999 80.6 44.0999 80.7C44.0999 80.8 43.9999 81 43.8999 81.2C43.6999 81.6 43.5999 82.1 43.4999 82.7C43.2999 83.9 43.3999 85.4 43.8999 86.7C44.3999 88 45.2999 89.2 46.1999 90C46.6999 90.4 47.1999 90.7 47.4999 90.9C47.6999 91 47.8999 91.1 47.9999 91.1C48.0999 91.1 48.1999 91.2 48.1999 91.2C48.1999 91.2 48.1999 91.1 48.2999 91C48.2999 90.9 48.4999 90.7 48.4999 90.5C48.6999 90.1 48.7999 89.6 48.8999 89C49.0999 87.8 48.9999 86.3 48.4999 85C47.9999 83.7 47.0999 82.5 46.1999 81.7C45.6999 81.3 45.1999 81 44.8999 80.8C44.6999 80.7 44.4999 80.6 44.3999 80.6C44.2999 80.5 44.1999 80.5 44.1999 80.5Z" fill="#76E57B"/>
<path d="M59.7 92.2C59.7 92.2 59.6 92.1999 59.5 92.2999C59.4 92.2999 59.2 92.4 59 92.5C58.6 92.7 58.1 92.9 57.6 93.2C56.6 93.9 55.6 95 54.9 96.2C54.3 97.5 54 98.8999 54.1 100.2C54.2 100.8 54.3 101.4 54.4 101.8C54.4 102 54.5 102.2 54.6 102.3C54.6 102.4 54.7 102.5 54.7 102.5C54.7 102.5 54.8 102.5 54.9 102.4C55 102.4 55.2 102.3 55.4 102.2C55.8 102 56.3 101.8 56.8 101.5C57.8 100.8 58.8 99.7 59.4 98.5C60 97.2 60.3 95.8 60.2 94.5C60.1 93.9 60 93.2999 59.9 92.8999C59.9 92.6999 59.8 92.4999 59.7 92.3999C59.7 92.2999 59.7 92.2 59.7 92.2Z" fill="#76E57B"/>
<path d="M75.1003 89.4C75.1003 89.4 75.1003 89.5 75.0003 89.6C75.0003 89.7 74.9003 89.9 74.8003 90.1C74.6003 90.5 74.5003 91 74.4003 91.6C74.2003 92.8 74.3003 94.3 74.8003 95.6C75.3003 96.9 76.2003 98.1 77.1003 98.9C77.6003 99.3 78.1003 99.6 78.4003 99.8C78.6003 99.9 78.8003 100 78.9003 100C79.0003 100 79.1003 100.1 79.1003 100.1C79.1003 100.1 79.1003 100 79.2003 99.9C79.2003 99.8 79.4003 99.6 79.4003 99.4C79.6003 99 79.7003 98.5 79.8003 97.9C80.0003 96.7 79.9003 95.2 79.4003 93.9C78.9003 92.6 78.0003 91.4 77.1003 90.6C76.6003 90.2 76.1003 89.9 75.8003 89.7C75.6003 89.6 75.4003 89.5 75.3003 89.5C75.2003 89.4 75.1003 89.4 75.1003 89.4Z" fill="#76E57B"/>
<path d="M70.4998 100C70.4998 100 70.3998 100 70.2998 100.1C70.1998 100.1 69.9998 100.2 69.7998 100.3C69.3998 100.5 68.8998 100.7 68.3998 101C67.3998 101.7 66.3998 102.8 65.6998 104C65.0998 105.3 64.7998 106.7 64.8998 108C64.9998 108.6 65.0998 109.2 65.1998 109.6C65.1998 109.8 65.2998 110 65.3998 110.1C65.3998 110.2 65.4998 110.3 65.4998 110.3C65.4998 110.3 65.5998 110.3 65.6998 110.2C65.7998 110.2 65.9998 110.1 66.1998 110C66.5998 109.8 67.0998 109.6 67.5998 109.3C68.5998 108.6 69.5998 107.5 70.1998 106.3C70.7998 105 71.0998 103.6 70.9998 102.3C70.8998 101.7 70.7998 101.1 70.6998 100.7C70.6998 100.5 70.5998 100.3 70.4998 100.2C70.4998 100.1 70.4998 100 70.4998 100Z" fill="#76E57B"/>
<path d="M77.9001 106C77.9001 106 77.9001 106.1 77.8001 106.2C77.8001 106.3 77.7001 106.5 77.6001 106.7C77.4001 107.1 77.3001 107.6 77.2001 108.2C77.0001 109.4 77.1001 110.9 77.6001 112.2C78.1001 113.5 79.0001 114.7 79.9001 115.5C80.4001 115.9 80.9001 116.2 81.2001 116.4C81.4001 116.5 81.6001 116.6 81.7001 116.6C81.8001 116.6 81.9001 116.7 81.9001 116.7C81.9001 116.7 81.9001 116.6 82.0001 116.5C82.0001 116.4 82.2001 116.2 82.2001 116C82.4001 115.6 82.5001 115.1 82.6001 114.5C82.8001 113.3 82.7001 111.8 82.2001 110.5C81.7001 109.2 80.8001 108 79.9001 107.2C79.4001 106.8 78.9001 106.5 78.6001 106.3C78.4001 106.2 78.2001 106.1 78.1001 106.1C78.0001 106 77.9001 106 77.9001 106Z" fill="#76E57B"/>
<path d="M90.5 53.8C90.5 103.3 90.5 152.8 90.5 202.4C90.5 217.6 90.5 232.9 90.5 248.1C90.5 251.3 85.5 251.3 85.5 248.1C85.5 198.6 85.5 149.1 85.5 99.5C85.5 84.3 85.5 69 85.5 53.8C85.5 50.6 90.5 50.6 90.5 53.8Z" fill="#D36248"/>
<path d="M108.4 68.4C102.4 82.9 96.4004 97.4 90.4004 111.9C89.2004 114.8 84.3004 113.6 85.6004 110.6C91.6004 96.1 97.6004 81.6 103.6 67.1C104.8 64.2 109.6 65.5 108.4 68.4Z" fill="#D36248"/>
<path d="M71.2005 66.1C77.5005 74.5 83.9005 82.8 90.2005 91.2C92.1005 93.8 87.8005 96.3 85.9005 93.7C79.6005 85.3 73.2005 77 66.9005 68.6C64.9005 66 69.3005 63.5 71.2005 66.1Z" fill="#D36248"/>
<path d="M2.40043 137.4C5.60043 90.7 21.3004 47.4 40.5004 47.4C59.6004 47.4 75.4004 90.7 78.6004 137.4C81.8004 184.1 40.5004 195 40.5004 195C40.5004 195 -0.799572 184.1 2.40043 137.4Z" fill="#86EA8B"/>
<path d="M29.4997 121.4C29.4997 121.4 29.4997 121.5 29.3997 121.6C29.3997 121.7 29.2997 121.9 29.1997 122.1C28.9997 122.5 28.8997 123 28.7997 123.6C28.5997 124.8 28.6997 126.3 29.1997 127.6C29.6997 128.9 30.5997 130.1 31.4997 130.9C31.9997 131.3 32.4997 131.6 32.7997 131.8C32.9997 131.9 33.1997 132 33.2997 132C33.3997 132 33.4997 132.1 33.4997 132.1C33.4997 132.1 33.4997 132 33.5997 131.9C33.5997 131.8 33.7997 131.6 33.7997 131.4C33.9997 131 34.0997 130.5 34.1997 129.9C34.3997 128.7 34.2997 127.2 33.7997 125.9C33.2997 124.6 32.3997 123.4 31.4997 122.6C30.9997 122.2 30.4997 121.9 30.1997 121.7C29.9997 121.6 29.7997 121.5 29.6997 121.5C29.5997 121.4 29.4997 121.4 29.4997 121.4Z" fill="#A2F9A2"/>
<path d="M23.8997 111.2C23.8997 111.2 23.7998 111.2 23.6998 111.3C23.5998 111.4 23.3998 111.4 23.1998 111.5C22.7998 111.7 22.3997 112 21.8997 112.4C20.9997 113.2 20.0998 114.4 19.5998 115.7C19.0998 117 19.0998 118.5 19.2998 119.7C19.3998 120.3 19.5998 120.8 19.7998 121.2C19.8998 121.4 19.9998 121.6 19.9998 121.7C20.0998 121.8 20.0998 121.9 20.0998 121.9C20.0998 121.9 20.1998 121.9 20.2998 121.8C20.3998 121.7 20.5998 121.7 20.7998 121.6C21.1998 121.4 21.5998 121.1 22.0998 120.7C22.9998 119.9 23.8997 118.7 24.3997 117.4C24.8997 116.1 24.8998 114.6 24.6998 113.4C24.5998 112.8 24.3998 112.3 24.1998 111.9C24.0998 111.7 23.9998 111.5 23.9998 111.4C23.9998 111.3 23.8997 111.2 23.8997 111.2Z" fill="#A2F9A2"/>
<path d="M11.3005 123.3C11.3005 123.3 11.3005 123.4 11.2005 123.5C11.2005 123.6 11.1005 123.8 11.0005 124C10.8005 124.4 10.7005 124.9 10.6005 125.5C10.4005 126.7 10.5005 128.2 11.0005 129.5C11.5005 130.8 12.4005 132 13.3005 132.8C13.8005 133.2 14.3005 133.5 14.6005 133.7C14.8005 133.8 15.0005 133.9 15.1005 133.9C15.2005 133.9 15.3005 134 15.3005 134C15.3005 134 15.3005 133.9 15.4005 133.8C15.4005 133.7 15.6005 133.5 15.6005 133.3C15.8005 132.9 15.9005 132.4 16.0005 131.8C16.2005 130.6 16.1005 129.1 15.6005 127.8C15.1005 126.5 14.2005 125.3 13.3005 124.5C12.8005 124.1 12.3005 123.8 12.0005 123.6C11.8005 123.5 11.6005 123.4 11.5005 123.4C11.4005 123.3 11.3005 123.3 11.3005 123.3Z" fill="#A2F9A2"/>
<path d="M12.3002 143.1C12.3002 143.1 12.2001 143.1 12.1001 143.2C12.0001 143.3 11.8001 143.3 11.6001 143.4C11.2001 143.6 10.8002 143.9 10.3002 144.3C9.40015 145.1 8.50015 146.3 8.00015 147.6C7.50015 148.9 7.50014 150.4 7.70014 151.6C7.80014 152.2 8.00014 152.7 8.20014 153.1C8.30014 153.3 8.40015 153.5 8.40015 153.6C8.50015 153.7 8.50015 153.8 8.50015 153.8C8.50015 153.8 8.60014 153.8 8.70014 153.7C8.80014 153.6 9.00014 153.6 9.20014 153.5C9.60014 153.3 10.0001 153 10.5001 152.6C11.4001 151.8 12.3002 150.6 12.8002 149.3C13.3002 148 13.3001 146.5 13.1001 145.3C13.0001 144.7 12.8001 144.2 12.6001 143.8C12.5001 143.6 12.4001 143.4 12.4001 143.3C12.3001 143.1 12.3002 143.1 12.3002 143.1Z" fill="#A2F9A2"/>
<path d="M18.0003 156.4C18.0003 156.4 17.9003 156.4 17.8003 156.5C17.7003 156.6 17.5003 156.6 17.3003 156.7C16.9003 156.9 16.5003 157.2 16.0003 157.6C15.1003 158.4 14.2003 159.6 13.7003 160.9C13.2003 162.2 13.2003 163.7 13.4003 164.9C13.5003 165.5 13.7003 166 13.9003 166.4C14.0003 166.6 14.1003 166.8 14.1003 166.9C14.2003 167 14.2003 167.1 14.2003 167.1C14.2003 167.1 14.3003 167.1 14.4003 167C14.5003 166.9 14.7003 166.9 14.9003 166.8C15.3003 166.6 15.7003 166.3 16.2003 165.9C17.1003 165.1 18.0003 163.9 18.5003 162.6C19.0003 161.3 19.0003 159.8 18.8003 158.6C18.7003 158 18.5003 157.5 18.3003 157.1C18.2003 156.9 18.1003 156.7 18.1003 156.6C18.0003 156.4 18.0003 156.4 18.0003 156.4Z" fill="#A2F9A2"/>
<path d="M25.1999 173C25.1999 173 25.1999 173.1 25.0999 173.2C25.0999 173.3 24.9999 173.5 24.8999 173.7C24.6999 174.1 24.5999 174.6 24.4999 175.2C24.2999 176.4 24.3999 177.9 24.8999 179.2C25.3999 180.5 26.2999 181.7 27.1999 182.5C27.6999 182.9 28.1999 183.2 28.4999 183.4C28.6999 183.5 28.8999 183.6 28.9999 183.6C29.0999 183.6 29.1999 183.7 29.1999 183.7C29.1999 183.7 29.1999 183.6 29.2999 183.5C29.2999 183.4 29.4999 183.2 29.4999 183C29.6999 182.6 29.7999 182.1 29.8999 181.5C30.0999 180.3 29.9999 178.8 29.4999 177.5C28.9999 176.2 28.0999 175 27.1999 174.2C26.6999 173.8 26.1999 173.5 25.8999 173.3C25.6999 173.2 25.4999 173.1 25.3999 173.1C25.1999 173 25.1999 173 25.1999 173Z" fill="#A2F9A2"/>
<path d="M49.4001 173C49.4001 173 49.4001 173.1 49.3001 173.2C49.3001 173.3 49.2001 173.5 49.1001 173.7C48.9001 174.1 48.8001 174.6 48.7001 175.2C48.5001 176.4 48.6001 177.9 49.1001 179.2C49.6001 180.5 50.5001 181.7 51.4001 182.5C51.9001 182.9 52.4001 183.2 52.7001 183.4C52.9001 183.5 53.1001 183.6 53.2001 183.6C53.3001 183.6 53.4001 183.7 53.4001 183.7C53.4001 183.7 53.4001 183.6 53.5001 183.5C53.5001 183.4 53.7001 183.2 53.7001 183C53.9001 182.6 54.0001 182.1 54.1001 181.5C54.3001 180.3 54.2001 178.8 53.7001 177.5C53.2001 176.2 52.3001 175 51.4001 174.2C50.9001 173.8 50.4001 173.5 50.1001 173.3C49.9001 173.2 49.7001 173.1 49.6001 173.1C49.5001 173 49.4001 173 49.4001 173Z" fill="#A2F9A2"/>
<path d="M55.3997 157.2C55.3997 157.2 55.2997 157.2 55.1997 157.3C55.0997 157.4 54.8997 157.4 54.6997 157.5C54.2997 157.7 53.8997 158 53.3997 158.4C52.4997 159.2 51.5998 160.4 51.0998 161.7C50.5998 163 50.5998 164.5 50.7998 165.7C50.8998 166.3 51.0998 166.8 51.2998 167.2C51.3998 167.4 51.4998 167.6 51.4998 167.7C51.5998 167.8 51.5998 167.9 51.5998 167.9C51.5998 167.9 51.6998 167.9 51.7998 167.8C51.8998 167.7 52.0998 167.7 52.2998 167.6C52.6998 167.4 53.0998 167.1 53.5998 166.7C54.4998 165.9 55.3997 164.7 55.8997 163.4C56.3997 162.1 56.3997 160.6 56.1997 159.4C56.0997 158.8 55.8997 158.3 55.6997 157.9C55.5997 157.7 55.4998 157.5 55.4998 157.4C55.3998 157.2 55.3997 157.2 55.3997 157.2Z" fill="#A2F9A2"/>
<path d="M68.2005 158.1C68.2005 158.1 68.1005 158.1 68.0005 158.2C67.9005 158.3 67.7005 158.3 67.5005 158.4C67.1005 158.6 66.7005 158.9 66.2005 159.3C65.3005 160.1 64.4005 161.3 63.9005 162.6C63.4005 163.9 63.4005 165.4 63.6005 166.6C63.7005 167.2 63.9005 167.7 64.1005 168.1C64.2005 168.3 64.3005 168.5 64.3005 168.6C64.4005 168.7 64.4005 168.8 64.4005 168.8C64.4005 168.8 64.5005 168.8 64.6005 168.7C64.7005 168.6 64.9005 168.6 65.1005 168.5C65.5005 168.3 65.9005 168 66.4005 167.6C67.3005 166.8 68.2005 165.6 68.7005 164.3C69.2005 163 69.2005 161.5 69.0005 160.3C68.9005 159.7 68.7005 159.2 68.5005 158.8C68.4005 158.6 68.3005 158.4 68.3005 158.3C68.3005 158.2 68.2005 158.1 68.2005 158.1Z" fill="#A2F9A2"/>
<path d="M69.4997 143.1C69.4997 143.1 69.4997 143.2 69.3997 143.3C69.3997 143.4 69.2997 143.6 69.1997 143.8C68.9997 144.2 68.8997 144.7 68.7997 145.3C68.5997 146.5 68.6997 148 69.1997 149.3C69.6997 150.6 70.5997 151.8 71.4997 152.6C71.9997 153 72.4997 153.3 72.7997 153.5C72.9997 153.6 73.1997 153.7 73.2997 153.7C73.3997 153.7 73.4997 153.8 73.4997 153.8C73.4997 153.8 73.4997 153.7 73.5997 153.6C73.5997 153.5 73.7997 153.3 73.7997 153.1C73.9997 152.7 74.0997 152.2 74.1997 151.6C74.3997 150.4 74.2997 148.9 73.7997 147.6C73.2997 146.3 72.3997 145.1 71.4997 144.3C70.9997 143.9 70.4997 143.6 70.1997 143.4C69.9997 143.3 69.7997 143.2 69.6997 143.2C69.4997 143.1 69.4997 143.1 69.4997 143.1Z" fill="#A2F9A2"/>
<path d="M50.3997 129.8C50.3997 129.8 50.2997 129.8 50.1997 129.9C50.0997 130 49.8997 130 49.6997 130.1C49.2997 130.3 48.8997 130.6 48.3997 131C47.4997 131.8 46.5998 133 46.0998 134.3C45.5998 135.6 45.5998 137.1 45.7998 138.3C45.8998 138.9 46.0998 139.4 46.2998 139.8C46.3998 140 46.4998 140.2 46.4998 140.3C46.5998 140.4 46.5998 140.5 46.5998 140.5C46.5998 140.5 46.6998 140.5 46.7998 140.4C46.8998 140.3 47.0998 140.3 47.2998 140.2C47.6998 140 48.0998 139.7 48.5998 139.3C49.4998 138.5 50.3997 137.3 50.8997 136C51.3997 134.7 51.3997 133.2 51.1997 132C51.0997 131.4 50.8997 130.9 50.6997 130.5C50.5997 130.3 50.4998 130.1 50.4998 130C50.3998 129.8 50.3997 129.8 50.3997 129.8Z" fill="#A2F9A2"/>
<path d="M73.8002 123.2C73.8002 123.2 73.7002 123.2 73.6002 123.3C73.5002 123.4 73.3002 123.4 73.1002 123.5C72.7002 123.7 72.3002 124 71.8002 124.4C70.9002 125.2 70.0001 126.4 69.5001 127.7C69.0001 129 69.0001 130.5 69.2001 131.7C69.3001 132.3 69.5001 132.8 69.7001 133.2C69.8001 133.4 69.9001 133.6 69.9001 133.7C70.0001 133.8 70.0001 133.9 70.0001 133.9C70.0001 133.9 70.1001 133.9 70.2001 133.8C70.3001 133.7 70.5001 133.7 70.7001 133.6C71.1001 133.4 71.5001 133.1 72.0001 132.7C72.9001 131.9 73.8002 130.7 74.3002 129.4C74.8002 128.1 74.8002 126.6 74.6002 125.4C74.5002 124.8 74.3002 124.3 74.1002 123.9C74.0002 123.7 73.9001 123.5 73.9001 123.4C73.8001 123.3 73.8002 123.2 73.8002 123.2Z" fill="#A2F9A2"/>
<path d="M57.3005 118C57.3005 118 57.3005 118.1 57.2005 118.2C57.2005 118.3 57.1005 118.5 57.0005 118.7C56.8005 119.1 56.7005 119.6 56.6005 120.2C56.4005 121.4 56.5005 122.9 57.0005 124.2C57.5005 125.5 58.4005 126.7 59.3005 127.5C59.8005 127.9 60.3005 128.2 60.6005 128.4C60.8005 128.5 61.0005 128.6 61.1005 128.6C61.2005 128.6 61.3005 128.7 61.3005 128.7C61.3005 128.7 61.3005 128.6 61.4005 128.5C61.4005 128.4 61.6005 128.2 61.6005 128C61.8005 127.6 61.9005 127.1 62.0005 126.5C62.2005 125.3 62.1005 123.8 61.6005 122.5C61.1005 121.2 60.2005 120 59.3005 119.2C58.8005 118.8 58.3005 118.5 58.0005 118.3C57.8005 118.2 57.6005 118.1 57.5005 118.1C57.4005 118 57.3005 118 57.3005 118Z" fill="#A2F9A2"/>
<path d="M66.6003 107.7C66.6003 107.7 66.6003 107.8 66.5003 107.9C66.5003 108 66.4003 108.2 66.3003 108.4C66.1003 108.8 66.0003 109.3 65.9003 109.9C65.7003 111.1 65.8003 112.6 66.3003 113.9C66.8003 115.2 67.7003 116.4 68.6003 117.2C69.1003 117.6 69.6003 117.9 69.9003 118.1C70.1003 118.2 70.3003 118.3 70.4003 118.3C70.5003 118.3 70.6003 118.4 70.6003 118.4C70.6003 118.4 70.6003 118.3 70.7003 118.2C70.7003 118.1 70.9003 117.9 70.9003 117.7C71.1003 117.3 71.2003 116.8 71.3003 116.2C71.5003 115 71.4003 113.5 70.9003 112.2C70.4003 110.9 69.5003 109.7 68.6003 108.9C68.1003 108.5 67.6003 108.2 67.3003 108C67.1003 107.9 66.9003 107.8 66.8003 107.8C66.7003 107.7 66.6003 107.7 66.6003 107.7Z" fill="#A2F9A2"/>
<path d="M54.2005 107.9C54.2005 107.9 54.1005 107.9 54.0005 108C53.9005 108.1 53.7005 108.1 53.5005 108.2C53.1005 108.4 52.7005 108.7 52.2005 109.1C51.3005 109.9 50.4005 111.1 49.9005 112.4C49.4005 113.7 49.4005 115.2 49.6005 116.4C49.7005 117 49.9005 117.5 50.1005 117.9C50.2005 118.1 50.3005 118.3 50.3005 118.4C50.4005 118.5 50.4005 118.6 50.4005 118.6C50.4005 118.6 50.5005 118.6 50.6005 118.5C50.7005 118.4 50.9005 118.4 51.1005 118.3C51.5005 118.1 51.9005 117.8 52.4005 117.4C53.3005 116.6 54.2005 115.4 54.7005 114.1C55.2005 112.8 55.2005 111.3 55.0005 110.1C54.9005 109.5 54.7005 109 54.5005 108.6C54.4005 108.4 54.3005 108.2 54.3005 108.1C54.2005 108 54.2005 107.9 54.2005 107.9Z" fill="#A2F9A2"/>
<path d="M15.0999 102.1C15.0999 102.1 15 102.1 14.9 102.2C14.8 102.3 14.6 102.3 14.4 102.4C14 102.6 13.5999 102.9 13.0999 103.3C12.1999 104.1 11.3 105.3 10.8 106.6C10.3 107.9 10.2999 109.4 10.4999 110.6C10.5999 111.2 10.7999 111.7 10.9999 112.1C11.0999 112.3 11.1999 112.5 11.1999 112.6C11.2999 112.7 11.3 112.8 11.3 112.8C11.3 112.8 11.3999 112.8 11.4999 112.7C11.5999 112.6 11.7999 112.6 11.9999 112.5C12.3999 112.3 12.8 112 13.3 111.6C14.2 110.8 15.0999 109.6 15.5999 108.3C16.0999 107 16.1 105.5 15.9 104.3C15.8 103.7 15.6 103.2 15.4 102.8C15.3 102.6 15.1999 102.4 15.1999 102.3C15.1999 102.2 15.0999 102.1 15.0999 102.1Z" fill="#A2F9A2"/>
<path d="M40.8997 104.3C40.8997 104.3 40.7997 104.3 40.6997 104.4C40.5997 104.5 40.3997 104.5 40.1997 104.6C39.7997 104.8 39.3997 105.1 38.8997 105.5C37.9997 106.3 37.0998 107.5 36.5998 108.8C36.0998 110.1 36.0998 111.6 36.2998 112.8C36.3998 113.4 36.5998 113.9 36.7998 114.3C36.8998 114.5 36.9998 114.7 36.9998 114.8C37.0998 114.9 37.0998 115 37.0998 115C37.0998 115 37.1998 115 37.2998 114.9C37.3998 114.8 37.5998 114.8 37.7998 114.7C38.1998 114.5 38.5998 114.2 39.0998 113.8C39.9998 113 40.8997 111.8 41.3997 110.5C41.8997 109.2 41.8997 107.7 41.6997 106.5C41.5997 105.9 41.3997 105.4 41.1997 105C41.0997 104.8 40.9998 104.6 40.9998 104.5C40.8998 104.4 40.8997 104.3 40.8997 104.3Z" fill="#A2F9A2"/>
<path d="M20.9997 94.5001C20.9997 94.5001 20.9997 94.6001 20.8997 94.7001C20.8997 94.8001 20.7997 95.0001 20.6997 95.2001C20.4997 95.6001 20.3997 96.1001 20.2997 96.7001C20.0997 97.9001 20.1997 99.4001 20.6997 100.7C21.1997 102 22.0997 103.2 22.9997 104C23.4997 104.4 23.9997 104.7 24.2997 104.9C24.4997 105 24.6997 105.1 24.7997 105.1C24.8997 105.1 24.9997 105.2 24.9997 105.2C24.9997 105.2 24.9997 105.1 25.0997 105C25.0997 104.9 25.2997 104.7 25.2997 104.5C25.4997 104.1 25.5997 103.6 25.6997 103C25.8997 101.8 25.7997 100.3 25.2997 99.0001C24.7997 97.7001 23.8997 96.5001 22.9997 95.7001C22.4997 95.3001 21.9997 95.0001 21.6997 94.8001C21.4997 94.7001 21.2997 94.6001 21.1997 94.6001C20.9997 94.5001 20.9997 94.5001 20.9997 94.5001Z" fill="#A2F9A2"/>
<path d="M59.3005 91.1001C59.3005 91.1001 59.3005 91.2001 59.2005 91.3001C59.2005 91.4001 59.1005 91.6001 59.0005 91.8001C58.8005 92.2001 58.7005 92.7001 58.6005 93.3001C58.4005 94.5001 58.5005 96.0001 59.0005 97.3001C59.5005 98.6001 60.4005 99.8001 61.3005 100.6C61.8005 101 62.3005 101.3 62.6005 101.5C62.8005 101.6 63.0005 101.7 63.1005 101.7C63.2005 101.7 63.3005 101.8 63.3005 101.8C63.3005 101.8 63.3005 101.7 63.4005 101.6C63.4005 101.5 63.6005 101.3 63.6005 101.1C63.8005 100.7 63.9005 100.2 64.0005 99.6001C64.2005 98.4001 64.1005 96.9001 63.6005 95.6001C63.1005 94.3001 62.2005 93.1001 61.3005 92.3001C60.8005 91.9001 60.3005 91.6001 60.0005 91.4001C59.8005 91.3001 59.6005 91.2001 59.5005 91.2001C59.4005 91.2001 59.3005 91.1001 59.3005 91.1001Z" fill="#A2F9A2"/>
<path d="M50.3997 87.0001C50.3997 87.0001 50.2997 87.0001 50.1997 87.1001C50.0997 87.2001 49.8997 87.2001 49.6997 87.3001C49.2997 87.5001 48.8997 87.8001 48.3997 88.2001C47.4997 89.0001 46.5998 90.2001 46.0998 91.5001C45.5998 92.8001 45.5998 94.3001 45.7998 95.5001C45.8998 96.1001 46.0998 96.6001 46.2998 97.0001C46.3998 97.2001 46.4998 97.4001 46.4998 97.5001C46.5998 97.6001 46.5998 97.7001 46.5998 97.7001C46.5998 97.7001 46.6998 97.7001 46.7998 97.6001C46.8998 97.5001 47.0998 97.5001 47.2998 97.4001C47.6998 97.2001 48.0998 96.9001 48.5998 96.5001C49.4998 95.7001 50.3997 94.5001 50.8997 93.2001C51.3997 91.9001 51.3997 90.4001 51.1997 89.2001C51.0997 88.6001 50.8997 88.1001 50.6997 87.7001C50.5997 87.5001 50.4998 87.3001 50.4998 87.2001C50.3998 87.1001 50.3997 87.0001 50.3997 87.0001Z" fill="#A2F9A2"/>
<path d="M62.1 72.9C62.1 72.9 61.9999 72.9 61.8999 73C61.7999 73.1 61.5999 73.1 61.3999 73.2C60.9999 73.4 60.6 73.7 60.1 74.1C59.2 74.9 58.3 76.1 57.8 77.4C57.3 78.7 57.2999 80.2 57.4999 81.4C57.5999 82 57.7999 82.5 57.9999 82.9C58.0999 83.1 58.1999 83.3 58.1999 83.4C58.2999 83.5 58.3 83.6 58.3 83.6C58.3 83.6 58.3999 83.6 58.4999 83.5C58.5999 83.4 58.7999 83.4 58.9999 83.3C59.3999 83.1 59.8 82.8 60.3 82.4C61.2 81.6 62.1 80.4 62.6 79.1C63.1 77.8 63.0999 76.3 62.8999 75.1C62.7999 74.5 62.5999 74 62.3999 73.6C62.2999 73.4 62.1999 73.2 62.1999 73.1C62.0999 73 62.1 72.9 62.1 72.9Z" fill="#A2F9A2"/>
<path d="M20.7005 78.9C20.7005 78.9 20.6005 78.9 20.5005 79C20.4005 79.1 20.2005 79.1 20.0005 79.2C19.6005 79.4 19.2005 79.7 18.7005 80.1C17.8005 80.9 16.9005 82.1 16.4005 83.4C15.9005 84.7 15.9005 86.2 16.1005 87.4C16.2005 88 16.4005 88.5 16.6005 88.9C16.7005 89.1 16.8005 89.3 16.8005 89.4C16.9005 89.5 16.9005 89.6 16.9005 89.6C16.9005 89.6 17.0005 89.6 17.1005 89.5C17.2005 89.4 17.4005 89.4 17.6005 89.3C18.0005 89.1 18.4005 88.8 18.9005 88.4C19.8005 87.6 20.7005 86.4 21.2005 85.1C21.7005 83.8 21.7005 82.3 21.5005 81.1C21.4005 80.5 21.2005 80 21.0005 79.6C20.9005 79.4 20.8005 79.2 20.8005 79.1C20.8005 78.9 20.7005 78.9 20.7005 78.9Z" fill="#A2F9A2"/>
<path d="M32.3005 91.1001C32.3005 91.1001 32.3005 91.2001 32.2005 91.3001C32.2005 91.4001 32.1005 91.6001 32.0005 91.8001C31.8005 92.2001 31.7005 92.7001 31.6005 93.3001C31.4005 94.5001 31.5005 96.0001 32.0005 97.3001C32.5005 98.6001 33.4005 99.8001 34.3005 100.6C34.8005 101 35.3005 101.3 35.6005 101.5C35.8005 101.6 36.0005 101.7 36.1005 101.7C36.2005 101.7 36.3005 101.8 36.3005 101.8C36.3005 101.8 36.3005 101.7 36.4005 101.6C36.4005 101.5 36.6005 101.3 36.6005 101.1C36.8005 100.7 36.9005 100.2 37.0005 99.6001C37.2005 98.4001 37.1005 96.9001 36.6005 95.6001C36.1005 94.3001 35.2005 93.1001 34.3005 92.3001C33.8005 91.9001 33.3005 91.6001 33.0005 91.4001C32.8005 91.3001 32.6005 91.2001 32.5005 91.2001C32.4005 91.2001 32.3005 91.1001 32.3005 91.1001Z" fill="#A2F9A2"/>
<path d="M37.1003 77.7001C37.1003 77.7001 37.1003 77.8001 37.0003 77.9001C37.0003 78.0001 36.9003 78.2001 36.8003 78.4001C36.6003 78.8001 36.5003 79.3001 36.4003 79.9001C36.2003 81.1001 36.3003 82.6001 36.8003 83.9001C37.3003 85.2001 38.2003 86.4001 39.1003 87.2001C39.6003 87.6001 40.1003 87.9001 40.4003 88.1001C40.6003 88.2001 40.8003 88.3001 40.9003 88.3001C41.0003 88.3001 41.1003 88.4001 41.1003 88.4001C41.1003 88.4001 41.1003 88.3001 41.2003 88.2001C41.2003 88.1001 41.4003 87.9001 41.4003 87.7001C41.6003 87.3001 41.7003 86.8001 41.8003 86.2001C42.0003 85.0001 41.9003 83.5001 41.4003 82.2001C40.9003 80.9001 40.0003 79.7001 39.1003 78.9001C38.6003 78.5001 38.1003 78.2001 37.8003 78.0001C37.6003 77.9001 37.4003 77.8001 37.3003 77.8001C37.1003 77.7001 37.1003 77.7001 37.1003 77.7001Z" fill="#A2F9A2"/>
<path d="M47.9997 70.3C47.9997 70.3 47.9997 70.4001 47.8997 70.5001C47.8997 70.6001 47.7997 70.8001 47.6997 71.0001C47.4997 71.4001 47.3997 71.9001 47.2997 72.5001C47.0997 73.7001 47.1997 75.2001 47.6997 76.5001C48.1997 77.8001 49.0997 79 49.9997 79.8C50.4997 80.2 50.9997 80.5001 51.2997 80.7001C51.4997 80.8001 51.6997 80.9001 51.7997 80.9001C51.8997 80.9001 51.9997 81.0001 51.9997 81.0001C51.9997 81.0001 51.9997 80.9 52.0997 80.8C52.0997 80.7 52.2997 80.5 52.2997 80.3C52.4997 79.9 52.5997 79.4 52.6997 78.8C52.8997 77.6 52.7997 76.1 52.2997 74.8C51.7997 73.5 50.8997 72.3001 49.9997 71.5001C49.4997 71.1001 48.9997 70.8001 48.6997 70.6001C48.4997 70.5001 48.2997 70.4001 48.1997 70.4001C48.0997 70.4001 47.9997 70.3 47.9997 70.3Z" fill="#A2F9A2"/>
<path d="M51.3997 55.4C51.3997 55.4 51.2997 55.4 51.1997 55.5C51.0997 55.6 50.8997 55.6 50.6997 55.7C50.2997 55.9 49.8997 56.2 49.3997 56.6C48.4997 57.4 47.5998 58.6 47.0998 59.9C46.5998 61.2 46.5998 62.7 46.7998 63.9C46.8998 64.5 47.0998 65 47.2998 65.4C47.3998 65.6 47.4998 65.8 47.4998 65.9C47.5998 66 47.5998 66.1 47.5998 66.1C47.5998 66.1 47.6998 66.1 47.7998 66C47.8998 65.9 48.0998 65.9 48.2998 65.8C48.6998 65.6 49.0998 65.3 49.5998 64.9C50.4998 64.1 51.3997 62.9 51.8997 61.6C52.3997 60.3 52.3997 58.8 52.1997 57.6C52.0997 57 51.8997 56.5 51.6997 56.1C51.5997 55.9 51.4998 55.7 51.4998 55.6C51.3998 55.4 51.3997 55.4 51.3997 55.4Z" fill="#A2F9A2"/>
<path d="M26.7005 62.7001C26.7005 62.7001 26.6005 62.7001 26.5005 62.8001C26.4005 62.9001 26.2005 62.9001 26.0005 63.0001C25.6005 63.2001 25.2005 63.5001 24.7005 63.9001C23.8005 64.7001 22.9005 65.9001 22.4005 67.2001C21.9005 68.5001 21.9005 70.0001 22.1005 71.2001C22.2005 71.8001 22.4005 72.3001 22.6005 72.7001C22.7005 72.9001 22.8005 73.1001 22.8005 73.2001C22.9005 73.3001 22.9005 73.4001 22.9005 73.4001C22.9005 73.4001 23.0005 73.4001 23.1005 73.3001C23.2005 73.2001 23.4005 73.2001 23.6005 73.1001C24.0005 72.9001 24.4005 72.6001 24.9005 72.2001C25.8005 71.4001 26.7005 70.2001 27.2005 68.9001C27.7005 67.6001 27.7005 66.1001 27.5005 64.9001C27.4005 64.3001 27.2005 63.8001 27.0005 63.4001C26.9005 63.2001 26.8005 63.0001 26.8005 62.9001C26.7005 62.8001 26.7005 62.7001 26.7005 62.7001Z" fill="#A2F9A2"/>
<path d="M34.1003 63.5001C34.1003 63.5001 34.1003 63.6001 34.0003 63.7001C34.0003 63.8001 33.9003 64.0001 33.8003 64.2001C33.6003 64.6001 33.5003 65.1001 33.4003 65.7001C33.2003 66.9001 33.3003 68.4001 33.8003 69.7001C34.3003 71.0001 35.2003 72.2001 36.1003 73.0001C36.6003 73.4001 37.1003 73.7001 37.4003 73.9001C37.6003 74.0001 37.8003 74.1001 37.9003 74.1001C38.0003 74.1001 38.1003 74.2001 38.1003 74.2001C38.1003 74.2001 38.1003 74.1001 38.2003 74.0001C38.2003 73.9001 38.4003 73.7001 38.4003 73.5001C38.6003 73.1001 38.7003 72.6001 38.8003 72.0001C39.0003 70.8001 38.9003 69.3001 38.4003 68.0001C37.9003 66.7001 37.0003 65.5001 36.1003 64.7001C35.6003 64.3001 35.1003 64.0001 34.8003 63.8001C34.6003 63.7001 34.4003 63.6001 34.3003 63.6001C34.1003 63.5001 34.1003 63.5001 34.1003 63.5001Z" fill="#A2F9A2"/>
<path d="M26.3005 76.5001C26.3005 76.5001 26.3005 76.6001 26.2005 76.7001C26.2005 76.8001 26.1005 77.0001 26.0005 77.2001C25.8005 77.6001 25.7005 78.1001 25.6005 78.7001C25.4005 79.9001 25.5005 81.4001 26.0005 82.7001C26.5005 84.0001 27.4005 85.2001 28.3005 86.0001C28.8005 86.4001 29.3005 86.7001 29.6005 86.9001C29.8005 87.0001 30.0005 87.1001 30.1005 87.1001C30.2005 87.1001 30.3005 87.2001 30.3005 87.2001C30.3005 87.2001 30.3005 87.1001 30.4005 87.0001C30.4005 86.9001 30.6005 86.7001 30.6005 86.5001C30.8005 86.1001 30.9005 85.6001 31.0005 85.0001C31.2005 83.8001 31.1005 82.3001 30.6005 81.0001C30.1005 79.7001 29.2005 78.5001 28.3005 77.7001C27.8005 77.3001 27.3005 77.0001 27.0005 76.8001C26.8005 76.7001 26.6005 76.6001 26.5005 76.6001C26.4005 76.5001 26.3005 76.5001 26.3005 76.5001Z" fill="#A2F9A2"/>
<path d="M37.1002 50.2001C37.1002 50.2001 37.1002 50.3001 37.0002 50.4001C37.0002 50.5001 36.9002 50.7001 36.9002 50.9001C36.8002 51.3001 36.7002 51.9001 36.7002 52.5001C36.7002 53.7001 37.0002 55.2001 37.8002 56.4001C38.5002 57.6001 39.6002 58.6001 40.7002 59.2001C41.2002 59.5001 41.8002 59.7001 42.2002 59.8001C42.4002 59.9001 42.6002 59.9001 42.7002 59.9001C42.8002 59.9001 42.9002 59.9001 42.9002 59.9001C42.9002 59.9001 42.9002 59.8001 43.0002 59.7001C43.0002 59.6001 43.1002 59.4001 43.1002 59.2001C43.2002 58.8001 43.3002 58.2001 43.3002 57.6001C43.3002 56.4001 43.0002 54.9001 42.2002 53.7001C41.5002 52.5001 40.4002 51.5001 39.3002 50.9001C38.8002 50.6001 38.2002 50.4001 37.8002 50.3001C37.6002 50.2001 37.4002 50.2001 37.3002 50.2001C37.2002 50.2001 37.1002 50.2001 37.1002 50.2001Z" fill="#A2F9A2"/>
<path d="M38 123.8C38 173.3 38 152.8 38 202.4C38 217.6 38 232.9 38 248.1C38 251.3 43 251.3 43 248.1C43 198.6 43 219.1 43 169.5C43 154.3 43 139 43 123.8C43 120.6 38 120.6 38 123.8Z" fill="#D36248"/>
<path d="M20.1004 138.4C26.1004 152.9 32.1004 167.4 38.1004 181.9C39.3004 184.8 44.2004 183.6 42.9004 180.6C36.9004 166.1 30.9004 151.6 24.9004 137.1C23.7004 134.2 18.8004 135.5 20.1004 138.4Z" fill="#D36248"/>
<path d="M57.3001 136.1C51.0001 144.5 44.6001 152.8 38.3001 161.2C36.4001 163.8 40.7001 166.3 42.6001 163.7C48.9001 155.3 55.3001 147 61.6001 138.6C63.6001 136 59.2001 133.5 57.3001 136.1Z" fill="#D36248"/>
</svg>
