<svg viewBox="0 0 400 114" fill="none" xmlns="http://www.w3.org/2000/svg">
<path d="M263.72 107.065C215.341 102.08 154.745 53.7423 113.667 48.0965C70.3425 42.1503 25.8018 108.375 25.8018 108.375L263.72 107.798V107.065Z" fill="#86B1F2"/>
<path d="M101.123 57.0457H98.978V79.8333H101.123V57.0457Z" fill="#355389"/>
<path d="M100.057 12.8519L93.0449 67.076H107.068L100.057 12.8519Z" fill="#3C8F7C"/>
<path d="M95.5918 47.4118L105.576 55.6163L105.2 52.6372L95.9054 45.0093L95.5918 47.4118Z" fill="#50BFA5"/>
<path d="M97.1216 35.5195L103.243 37.5255L102.954 35.3032L97.3975 33.4774L97.1216 35.5195Z" fill="#50BFA5"/>
<path d="M121.831 62.9318H119.912V80.0615H121.831V62.9318Z" fill="#355389"/>
<path d="M121.142 32.3962L116.112 66.968H126.171L121.142 32.3962Z" fill="#3C8F7C"/>
<path d="M116.426 64.7697L125.457 62.0549L125.319 61.1179L116.577 63.7487L116.426 64.7697Z" fill="#50BFA5"/>
<path d="M118.019 53.8503L124.002 52.0485L123.864 51.1115L118.169 52.8293L118.019 53.8503Z" fill="#50BFA5"/>
<path d="M381.926 78.5118L383.481 75.4487C384.585 73.1543 383.657 70.4875 381.411 69.4905C375.742 66.9799 368.881 69.6106 366.084 75.3886L364.039 79.605C363.149 81.4549 361.342 82.6081 359.448 82.7402C357.73 82.8604 356.187 83.9535 355.434 85.5271L354.356 87.7494C353.189 90.1519 353.214 92.9027 354.331 95.2211C354.983 96.5785 355.021 98.2362 354.293 99.7618L352.775 102.909C351.095 106.393 352.499 110.441 355.924 111.966L357.88 112.831C361.305 114.345 365.444 112.759 367.125 109.276C368.693 104.627 371.276 102.693 373.547 101.936C376.883 100.831 379.693 98.4284 381.223 95.2572L381.436 94.8127C383.054 91.4612 383.054 87.6533 381.549 84.3979C380.884 82.9685 380.709 81.0224 381.926 78.5118Z" fill="#96D9C9"/>
<path d="M12.5181 78.4759L10.9627 75.4127C9.85892 73.1184 10.7871 70.4516 13.0323 69.4546C18.7018 66.944 25.5629 69.5747 28.3601 75.3527L30.4046 79.569C31.2952 81.4189 33.1014 82.5721 34.9954 82.7043C36.7138 82.8364 38.2566 83.9175 39.0092 85.4912L40.0879 87.7135C41.2544 90.1159 41.2293 92.8668 40.113 95.1852C39.4608 96.5426 39.4231 98.2003 40.1506 99.7259L41.6683 102.873C43.3491 106.357 41.9443 110.405 38.52 111.931L36.5633 112.795C33.139 114.309 28.9998 112.723 27.319 109.24C25.7511 104.591 23.1672 102.657 20.8969 101.9C17.5604 100.795 14.7507 98.3925 13.2205 95.2212L13.0073 94.7768C11.3892 91.4253 11.3892 87.6174 12.8944 84.362C13.5591 82.9325 13.7348 80.9865 12.5181 78.4759Z" fill="#96D9C9"/>
<path d="M291.364 106.808H293.509V84.0207H291.364V106.808Z" fill="#355389"/>
<path d="M292.431 39.8319L299.442 94.056H285.432L292.431 39.8319Z" fill="#3C8F7C"/>
<path d="M296.895 74.3916L286.911 82.5961L287.3 79.617L296.594 71.9891L296.895 74.3916Z" fill="#50BFA5"/>
<path d="M295.366 62.4993L289.245 64.5054L289.534 62.2831L295.103 60.4572L295.366 62.4993Z" fill="#50BFA5"/>
<path d="M276.004 107.042H277.923V89.912H276.004V107.042Z" fill="#355389"/>
<path d="M276.702 59.3761L281.732 93.9478H271.672L276.702 59.3761Z" fill="#3C8F7C"/>
<path d="M281.405 91.7496L272.387 89.0348L272.525 88.0978L281.267 90.7285L281.405 91.7496Z" fill="#50BFA5"/>
<path d="M279.825 80.8303L273.842 79.0285L273.98 78.0915L279.674 79.8093L279.825 80.8303Z" fill="#50BFA5"/>
<path d="M8.51709 113.444C8.51709 113.444 51.7659 73.9231 107.52 71.4966C126.247 70.6798 202.911 87.0287 267.483 99.87C270.192 100.411 337.863 113.336 347.069 113.72L8.51709 113.444Z" fill="#96D9C9"/>
<path d="M310.656 113.72C310.656 113.72 321.958 99.3535 329.057 97.1432C336.169 94.9449 329.471 103.69 329.471 103.69C329.471 103.69 342.077 90.4883 346.705 91.6775C350.945 92.7707 346.705 100.951 346.705 100.951C346.705 100.951 351.484 96.4224 357.279 96.4224C363.074 96.4224 352.801 113.396 352.801 113.396L310.656 113.72Z" fill="#50BFA5"/>
<path d="M347.069 113.636C347.069 113.636 354.795 93.8638 364.353 96.1461C372.105 97.996 366.599 107.954 367.063 107.498C367.527 107.041 371.691 100.29 378.414 100.29C385.137 100.29 376.345 109.408 376.345 109.408C376.345 109.408 390.669 105.119 391.798 109.624C392.726 113.36 387.521 113.636 387.521 113.636H347.069Z" fill="#3C8F7C"/>
<path d="M60.333 113.72C60.333 113.72 49.0316 99.3534 41.9322 97.1431C34.8202 94.9449 41.5182 103.69 41.5182 103.69C41.5182 103.69 29.2385 87.6533 24.6101 88.8426C20.3705 89.9357 22.1014 98.0321 22.1014 98.0321C22.1014 98.0321 19.505 96.4224 13.7101 96.4224C7.91514 96.4224 18.188 113.396 18.188 113.396L60.333 113.72Z" fill="#50BFA5"/>
<path d="M33.0388 113.636C33.0388 113.636 27.4947 99.4375 20.6336 101.083C15.077 102.417 19.0281 109.552 18.6894 109.228C18.3508 108.903 15.3655 104.05 10.5364 104.05C5.70728 104.05 12.0165 110.597 12.0165 110.597C12.0165 110.597 1.7311 107.522 0.928338 110.753C0.263551 113.432 4.00141 113.636 4.00141 113.636H33.0388Z" fill="#3C8F7C"/>
<path d="M68.9489 109.264C68.9991 108.975 69.0242 108.687 69.0242 108.387C69.0242 105.059 65.763 102.357 61.7491 102.357C57.7228 102.357 54.4741 105.059 54.4741 108.387C54.4741 108.687 54.4992 108.975 54.5494 109.264H68.9489Z" fill="#3C8F7C"/>
<path d="M77.1906 107.786C77.2408 107.378 77.2659 106.969 77.2659 106.549C77.2659 101.852 74.0047 98.0441 69.9908 98.0441C65.9645 98.0441 62.7158 101.852 62.7158 106.549C62.7158 106.969 62.7409 107.39 62.7911 107.786H77.1906Z" fill="#50BFA5"/>
<path d="M74.5186 113C74.4684 112.711 74.4434 112.423 74.4434 112.123C74.4434 108.795 77.7046 106.093 81.7184 106.093C85.7447 106.093 88.9934 108.795 88.9934 112.123C88.9934 112.423 88.9683 112.711 88.9182 113H74.5186Z" fill="#50BFA5"/>
<path d="M62.866 113C62.8033 112.591 62.7656 112.183 62.7656 111.762C62.7656 107.066 66.8923 103.258 71.9974 103.258C77.0899 103.258 81.2291 107.066 81.2291 111.762C81.2291 112.183 81.1915 112.603 81.1288 113H62.866Z" fill="#3C8F7C"/>
<path d="M69.9533 103.246C67.407 103.246 65.1242 104.459 63.6315 106.345C62.8664 106.177 62.0511 106.08 61.2107 106.08C56.6826 106.08 53.02 108.783 53.02 112.111C53.02 112.411 53.0451 112.699 53.1078 112.988H78.0561C78.1189 112.579 78.1439 112.171 78.1439 111.75C78.1439 107.065 74.4813 103.246 69.9533 103.246Z" fill="#50BFA5"/>
<path d="M38.3945 95.0771C36.2497 91.8698 35.8483 88.0018 35.8984 85.311C35.9486 82.392 36.5005 80.2178 36.5131 80.1937L36.3625 80.1457C36.3625 80.1697 35.7856 82.368 35.7479 85.299C35.7103 88.0138 36.1117 91.9179 38.2816 95.1732L38.3945 95.0771Z" fill="#3C8F7C"/>
<path d="M37.0276 79.6651C36.9774 80.3258 36.6638 80.8784 36.2374 81.2147C35.8611 80.7583 35.6479 80.1216 35.7106 79.4729C35.7607 78.8122 36.0743 78.2597 36.5008 77.9233C36.8771 78.3798 37.0903 79.0045 37.0276 79.6651Z" fill="#3C8F7C"/>
<path d="M35.5848 81.1907C35.9486 81.7673 36.0615 82.416 35.9486 82.9805C35.3967 82.8484 34.8573 82.476 34.4936 81.9114C34.1298 81.3349 34.017 80.6862 34.1298 80.1216C34.6817 80.2418 35.2211 80.6141 35.5848 81.1907Z" fill="#3C8F7C"/>
<path d="M34.7695 82.9806C35.334 83.3289 35.7228 83.8815 35.8608 84.4461C35.3214 84.5902 34.6943 84.5061 34.1298 84.1578C33.5654 83.8094 33.1765 83.2568 33.0386 82.6923C33.5654 82.5361 34.2051 82.6322 34.7695 82.9806Z" fill="#3C8F7C"/>
<path d="M35.0206 85.4791C35.4721 85.7554 35.7481 86.236 35.8233 86.7645C35.3593 86.9567 34.8324 86.9327 34.3809 86.6564C33.9293 86.3801 33.6534 85.8996 33.5781 85.371C34.0422 85.1668 34.569 85.1908 35.0206 85.4791Z" fill="#3C8F7C"/>
<path d="M36.8643 82.5241C37.366 82.2718 37.9304 82.2478 38.4071 82.44C38.2816 82.9325 37.943 83.389 37.4412 83.6413C36.9395 83.8936 36.3751 83.9176 35.8984 83.7254C36.0239 83.2208 36.3625 82.7764 36.8643 82.5241Z" fill="#3C8F7C"/>
<path d="M36.8135 84.2419C37.3152 83.9897 37.8796 83.9657 38.3563 84.1579C38.2309 84.6504 37.8922 85.1068 37.3905 85.3591C36.8887 85.6113 36.3243 85.6354 35.8477 85.4432C35.9731 84.9507 36.2992 84.4942 36.8135 84.2419Z" fill="#3C8F7C"/>
<path d="M35.3468 88.218C35.6102 88.2781 35.836 88.4463 35.9614 88.6745C35.7733 88.8307 35.5224 88.8907 35.2464 88.8307C34.983 88.7706 34.7573 88.6024 34.6318 88.3742C34.82 88.218 35.0708 88.158 35.3468 88.218Z" fill="#3C8F7C"/>
<path d="M37.5162 97.3474C32.6118 96.2182 28.874 92.7466 26.5911 90.0318C24.1201 87.0767 22.8031 84.3619 22.7905 84.3379L22.5898 84.434C22.6024 84.458 23.932 87.1969 26.4155 90.1759C28.7109 92.9148 32.4864 96.4344 37.4535 97.5636L37.5162 97.3474Z" fill="#3C8F7C"/>
<path d="M22.8533 83.2928C23.3676 84.0015 23.5432 84.8424 23.3927 85.6112C22.6275 85.5151 21.875 85.0947 21.3481 84.3859C20.8339 83.6772 20.6583 82.8364 20.8088 82.0676C21.5865 82.1637 22.3391 82.5841 22.8533 83.2928Z" fill="#3C8F7C"/>
<path d="M22.7152 86.2118C23.5682 86.4281 24.2455 86.9686 24.6092 87.6413C23.9445 88.0497 23.079 88.2059 22.226 87.9896C21.3731 87.7734 20.6958 87.2329 20.332 86.5602C21.0094 86.1518 21.8623 85.9956 22.7152 86.2118Z" fill="#3C8F7C"/>
<path d="M23.4418 88.7946C24.3073 88.6024 25.1602 88.7705 25.7999 89.203C25.386 89.8637 24.6835 90.3922 23.8181 90.5844C22.9526 90.7766 22.0997 90.6084 21.46 90.176C21.8739 89.5153 22.5763 88.9868 23.4418 88.7946Z" fill="#3C8F7C"/>
<path d="M25.3988 91.1369C26.2643 90.9447 27.1172 91.1129 27.7569 91.5453C27.343 92.206 26.6406 92.7346 25.7751 92.9268C24.9096 93.119 24.0567 92.9508 23.417 92.5184C23.8309 91.8577 24.5333 91.3411 25.3988 91.1369Z" fill="#3C8F7C"/>
<path d="M24.8224 87.2448C24.7848 86.452 25.0482 85.6953 25.5248 85.1547C26.0516 85.5752 26.4028 86.2599 26.4405 87.0527C26.4781 87.8455 26.2147 88.6022 25.738 89.1428C25.2112 88.7223 24.86 88.0376 24.8224 87.2448Z" fill="#3C8F7C"/>
<path d="M26.8545 89.6713C26.8043 88.8785 27.0552 88.1217 27.5193 87.5692C28.0461 87.9896 28.4098 88.6623 28.4725 89.4551C28.5227 90.2479 28.2718 91.0047 27.8077 91.5573C27.2684 91.1369 26.9046 90.4642 26.8545 89.6713Z" fill="#3C8F7C"/>
<path d="M28.5355 93.4553C28.8491 93.2631 29.2254 93.215 29.5515 93.3111C29.4888 93.6475 29.3006 93.9598 28.9745 94.152C28.6609 94.3442 28.2846 94.3922 27.9585 94.2961C28.0212 93.9718 28.2219 93.6595 28.5355 93.4553Z" fill="#3C8F7C"/>
<path d="M50.4993 103.978L50.7126 103.966C50.4115 98.5967 52.4686 93.5395 54.2498 90.2361C56.1814 86.6564 58.2134 84.3259 58.2385 84.3019L58.088 84.1458C58.0629 84.1698 56.0183 86.5122 54.0741 90.1159C52.2679 93.4554 50.1858 98.5487 50.4993 103.978Z" fill="#3C8F7C"/>
<path d="M59.1535 84.0016C58.6643 84.7824 57.9744 85.2629 57.272 85.3951C57.1466 84.5782 57.3222 83.6653 57.8114 82.8844C58.3005 82.1036 58.9904 81.6231 59.6928 81.491C59.8057 82.3078 59.6301 83.2208 59.1535 84.0016Z" fill="#3C8F7C"/>
<path d="M56.558 84.9385C56.5956 85.8875 56.2946 86.7644 55.8054 87.377C55.266 86.8605 54.9148 86.0437 54.8772 85.0947C54.8396 84.1457 55.1406 83.2688 55.6298 82.6562C56.1691 83.1847 56.5203 84.0016 56.558 84.9385Z" fill="#3C8F7C"/>
<path d="M54.4884 86.6203C54.8898 87.4251 54.9651 88.3501 54.7518 89.1549C54.062 88.9867 53.4223 88.4702 53.0209 87.6654C52.6195 86.8605 52.5443 85.9356 52.7575 85.1307C53.4599 85.2989 54.0996 85.8154 54.4884 86.6203Z" fill="#3C8F7C"/>
<path d="M53.0709 90.7526C53.259 91.077 53.3217 91.4614 53.259 91.8098C52.9705 91.7617 52.682 91.5695 52.4939 91.2452C52.3057 90.9208 52.243 90.5364 52.3057 90.188C52.5942 90.2241 52.8827 90.4283 53.0709 90.7526Z" fill="#3C8F7C"/>
<path d="M52.4556 92.2301C52.6438 92.5545 52.7065 92.9389 52.6438 93.2872C52.3553 93.2392 52.0668 93.047 51.8787 92.7226C51.6905 92.3983 51.6278 92.0139 51.6905 91.6655C51.979 91.7136 52.2675 91.9058 52.4556 92.2301Z" fill="#3C8F7C"/>
<path d="M57.1217 87.4252C57.8492 87.4372 58.4763 87.7855 58.8903 88.3261C58.4262 88.8546 57.7614 89.191 57.0464 89.1789C56.3189 89.1669 55.6918 88.8186 55.2778 88.278C55.7294 87.7495 56.3942 87.4132 57.1217 87.4252Z" fill="#3C8F7C"/>
<path d="M55.943 89.5153C56.6705 89.5273 57.2976 89.8756 57.7115 90.4162C57.2474 90.9448 56.5827 91.2811 55.8677 91.2691C55.1402 91.2571 54.513 90.9087 54.0991 90.3682C54.5632 89.8396 55.228 89.5033 55.943 89.5153Z" fill="#3C8F7C"/>
<path d="M53.9991 92.3743C54.4757 92.3863 54.8771 92.6146 55.153 92.9629C54.852 93.3113 54.4255 93.5275 53.9489 93.5155C53.4722 93.5034 53.0709 93.2752 52.7949 92.9269C53.096 92.5785 53.535 92.3623 53.9991 92.3743Z" fill="#3C8F7C"/>
<path d="M32.1981 112.795C32.1981 111.906 37.8425 112.952 38.3066 111.738C38.7707 110.525 33.4775 110.453 33.4775 108.795C33.4775 107.15 36.1743 108.303 37.7672 108.303C39.3477 108.303 34.644 107.594 34.644 107.017C34.644 106.441 36.2997 106.741 36.2997 106.116C36.2997 105.492 27.6198 105.035 28.6358 103.51C29.6518 101.996 34.3179 103.954 35.5973 103.161C36.8767 102.381 28.7487 101.516 28.548 100.35C28.3473 99.1853 34.5311 101.348 35.4091 100.507C36.2871 99.6658 25.6255 96.6506 26.0645 94.4404C26.516 92.2181 34.1423 97.2753 36.0488 96.7347C37.9554 96.1942 26.4282 88.4101 29.0999 85.383C31.7841 82.3558 36.9018 95.4134 38.6453 94.9569C40.3888 94.5004 36.4627 86.7043 38.2439 85.3469C40.025 83.9895 45.1426 96.3143 45.4687 98.8489C45.7948 101.384 46.4471 93.4073 49.2442 92.4703C52.0413 91.5333 49.3195 97.4074 49.8087 99.1973C50.2978 100.987 52.5681 94.6085 55.6412 95.077C58.7017 95.5455 50.0972 101.372 50.9501 103.089C51.803 104.795 58.4509 97.3714 60.5331 99.3775C62.6152 101.372 52.5305 106.909 53.0824 108.423C53.6343 109.936 59.6927 107.342 61.4362 109.011C63.1797 110.681 54.9388 111.738 53.835 111.738C52.7438 111.738 48.5669 113.06 52.6434 112.795C56.7325 112.531 32.1981 113.684 32.1981 112.795Z" fill="#3C8F7C"/>
<path d="M48.2783 113.828C48.2783 113.828 55.0642 114.177 57.046 112.988C59.0278 111.798 57.4599 110.861 57.4599 110.861C57.4599 110.861 63.744 110.729 63.7189 109.3C63.7064 107.87 62.1761 107.954 62.1761 107.954C62.1761 107.954 65.3495 105.888 64.76 104.603C63.8569 102.621 58.6891 106.068 58.6891 106.068C58.6891 106.068 60.3825 104.146 59.0153 103.69C55.2648 102.465 48.2783 113.828 48.2783 113.828Z" fill="#50BFA5"/>
<path d="M64.7726 104.615C65.3621 105.9 62.1887 107.966 62.1887 107.966C62.1887 107.966 64.4715 107.942 64.1078 109.324C63.744 110.705 57.9867 111.174 57.9867 111.174C57.9867 111.174 59.9936 111.546 58.0118 112.747C56.03 113.937 48.2783 113.84 48.2783 113.84L64.7726 104.615Z" fill="#96D9C9"/>
<path d="M331.63 93.5515C333.95 90.0679 334.389 85.8755 334.339 82.9565C334.289 79.7973 333.674 77.4308 333.674 77.4068L333.837 77.3467C333.837 77.3708 334.452 79.7492 334.502 82.9325C334.552 85.8755 334.113 90.1159 331.755 93.6356L331.63 93.5515Z" fill="#3C8F7C"/>
<path d="M333.096 76.8302C333.159 77.5509 333.485 78.1515 333.961 78.5119C334.363 78.0194 334.601 77.3347 334.538 76.614C334.476 75.8932 334.149 75.2926 333.673 74.9323C333.271 75.4368 333.046 76.1094 333.096 76.8302Z" fill="#3C8F7C"/>
<path d="M334.677 78.4759C334.289 79.1006 334.163 79.7973 334.289 80.4099C334.891 80.2778 335.48 79.8694 335.869 79.2447C336.258 78.6201 336.383 77.9234 336.258 77.3107C335.656 77.4549 335.066 77.8633 334.677 78.4759Z" fill="#3C8F7C"/>
<path d="M335.568 80.4219C334.953 80.8063 334.54 81.3949 334.376 82.0195C334.953 82.1757 335.643 82.0796 336.258 81.6952C336.873 81.3108 337.286 80.7222 337.45 80.0976C336.86 79.9414 336.183 80.0375 335.568 80.4219Z" fill="#3C8F7C"/>
<path d="M335.292 83.1247C334.803 83.425 334.502 83.9416 334.427 84.5182C334.928 84.7224 335.505 84.6984 335.982 84.398C336.471 84.0977 336.772 83.5812 336.848 83.0046C336.346 82.8004 335.769 82.8244 335.292 83.1247Z" fill="#3C8F7C"/>
<path d="M333.285 79.9174C332.746 79.6411 332.131 79.6171 331.604 79.8213C331.742 80.3619 332.106 80.8424 332.658 81.1307C333.197 81.407 333.812 81.431 334.339 81.2268C334.201 80.6862 333.825 80.2057 333.285 79.9174Z" fill="#3C8F7C"/>
<path d="M333.348 81.7913C332.808 81.515 332.194 81.491 331.667 81.6952C331.805 82.2357 332.169 82.7162 332.721 83.0045C333.26 83.2808 333.875 83.3049 334.401 83.1006C334.263 82.5601 333.887 82.0676 333.348 81.7913Z" fill="#3C8F7C"/>
<path d="M334.942 86.1038C334.653 86.1638 334.415 86.356 334.264 86.5963C334.465 86.7645 334.741 86.8365 335.029 86.7645C335.318 86.6924 335.556 86.5122 335.707 86.2719C335.506 86.1038 335.23 86.0437 334.942 86.1038Z" fill="#3C8F7C"/>
<path d="M332.582 96.014C337.9 94.8008 341.964 91.0289 344.435 88.0738C347.119 84.8785 348.549 81.9234 348.562 81.8994L348.775 82.0075C348.762 82.0316 347.32 85.0106 344.623 88.23C342.127 91.209 338.025 95.017 332.644 96.2543L332.582 96.014Z" fill="#3C8F7C"/>
<path d="M348.486 80.7582C347.922 81.527 347.734 82.44 347.897 83.2689C348.737 83.1607 349.552 82.7043 350.104 81.9355C350.656 81.1667 350.857 80.2537 350.694 79.4249C349.866 79.533 349.051 79.9894 348.486 80.7582Z" fill="#3C8F7C"/>
<path d="M348.637 83.9296C347.709 84.1698 346.981 84.7464 346.58 85.4791C347.308 85.9236 348.236 86.0917 349.164 85.8515C350.092 85.6113 350.82 85.0347 351.221 84.3019C350.494 83.8575 349.553 83.7013 348.637 83.9296Z" fill="#3C8F7C"/>
<path d="M347.847 86.7283C346.906 86.5121 345.978 86.7043 345.288 87.1608C345.727 87.8815 346.492 88.4461 347.433 88.6624C348.374 88.8786 349.302 88.6864 349.992 88.2299C349.54 87.5091 348.788 86.9446 347.847 86.7283Z" fill="#3C8F7C"/>
<path d="M345.727 89.275C344.786 89.0588 343.858 89.251 343.168 89.7075C343.607 90.4282 344.372 90.9928 345.313 91.209C346.254 91.4252 347.182 91.233 347.872 90.7766C347.42 90.0558 346.668 89.4912 345.727 89.275Z" fill="#3C8F7C"/>
<path d="M346.354 85.0466C346.404 84.1817 346.103 83.3649 345.601 82.7762C345.037 83.2327 344.648 83.9775 344.61 84.8424C344.56 85.7073 344.861 86.5242 345.363 87.1128C345.927 86.6443 346.304 85.9115 346.354 85.0466Z" fill="#3C8F7C"/>
<path d="M344.146 87.6774C344.209 86.8125 343.921 85.9956 343.419 85.395C342.842 85.8515 342.453 86.5722 342.39 87.4371C342.328 88.302 342.616 89.1189 343.118 89.7195C343.695 89.275 344.084 88.5423 344.146 87.6774Z" fill="#3C8F7C"/>
<path d="M342.314 91.7856C341.976 91.5694 341.574 91.5213 341.223 91.6294C341.286 91.9898 341.499 92.3262 341.85 92.5424C342.189 92.7587 342.59 92.8067 342.942 92.6986C342.879 92.3382 342.653 92.0018 342.314 91.7856Z" fill="#3C8F7C"/>
<path d="M318.496 103.209L318.27 103.197C318.596 97.3714 316.364 91.8817 314.432 88.302C312.337 84.422 310.13 81.8873 310.104 81.8633L310.268 81.6951C310.293 81.7192 312.513 84.2658 314.62 88.1698C316.577 91.7856 318.834 97.3233 318.496 103.209Z" fill="#3C8F7C"/>
<path d="M309.102 81.539C309.629 82.3919 310.381 82.9084 311.146 83.0526C311.272 82.1757 311.083 81.1787 310.557 80.3258C310.03 79.4729 309.277 78.9564 308.512 78.8123C308.399 79.6891 308.575 80.6862 309.102 81.539Z" fill="#3C8F7C"/>
<path d="M311.911 82.5481C311.874 83.5691 312.2 84.5181 312.726 85.2028C313.303 84.6382 313.692 83.7493 313.73 82.7283C313.768 81.7072 313.454 80.7582 312.915 80.0735C312.338 80.6501 311.949 81.527 311.911 82.5481Z" fill="#3C8F7C"/>
<path d="M314.156 84.374C313.73 85.2509 313.642 86.248 313.868 87.1249C314.62 86.9447 315.31 86.3801 315.749 85.5032C316.188 84.6263 316.264 83.6293 316.038 82.7524C315.285 82.9326 314.595 83.4971 314.156 84.374Z" fill="#3C8F7C"/>
<path d="M315.699 88.8546C315.486 89.203 315.423 89.6234 315.498 89.9958C315.812 89.9477 316.125 89.7315 316.339 89.3831C316.552 89.0348 316.615 88.6143 316.539 88.2419C316.213 88.29 315.912 88.4942 315.699 88.8546Z" fill="#3C8F7C"/>
<path d="M316.364 90.4643C316.151 90.8126 316.088 91.233 316.163 91.6054C316.477 91.5574 316.791 91.3412 317.004 90.9928C317.217 90.6445 317.28 90.2241 317.204 89.8517C316.878 89.8997 316.577 90.1039 316.364 90.4643Z" fill="#3C8F7C"/>
<path d="M311.31 85.2388C310.519 85.2508 309.842 85.6352 309.391 86.2239C309.892 86.8005 310.607 87.1608 311.398 87.1488C312.188 87.1368 312.865 86.7524 313.317 86.1638C312.815 85.5872 312.1 85.2268 311.31 85.2388Z" fill="#3C8F7C"/>
<path d="M312.59 87.5212C311.799 87.5332 311.122 87.9176 310.67 88.5062C311.172 89.0828 311.887 89.4432 312.677 89.4312C313.468 89.4192 314.145 89.0348 314.596 88.4461C314.095 87.8695 313.367 87.5092 312.59 87.5212Z" fill="#3C8F7C"/>
<path d="M314.696 90.6084C314.182 90.6204 313.743 90.8606 313.442 91.245C313.768 91.6174 314.232 91.8577 314.746 91.8456C315.261 91.8336 315.7 91.5934 316.001 91.209C315.675 90.8366 315.198 90.6084 314.696 90.6084Z" fill="#3C8F7C"/>
<path d="M338.34 112.771C338.34 111.798 332.219 112.952 331.717 111.618C331.215 110.285 336.96 110.225 336.96 108.435C336.96 106.645 334.025 107.906 332.306 107.906C330.588 107.906 335.693 107.138 335.693 106.513C335.693 105.876 333.899 106.213 333.899 105.54C333.899 104.867 343.319 104.363 342.216 102.717C341.112 101.071 336.057 103.197 334.665 102.345C333.272 101.492 342.09 100.567 342.303 99.2934C342.517 98.0321 335.806 100.375 334.853 99.4736C333.899 98.5607 345.464 95.2933 344.988 92.8908C344.498 90.4884 336.22 95.966 334.15 95.3774C332.081 94.7888 344.586 86.3441 341.689 83.0527C338.779 79.7613 333.235 93.9359 331.341 93.4314C329.447 92.9269 333.711 84.4701 331.78 83.0046C329.848 81.5391 324.291 94.9089 323.94 97.6477C323.589 100.399 322.887 91.7376 319.839 90.7286C316.803 89.7196 319.751 96.0861 319.224 98.0321C318.697 99.9781 316.226 93.059 312.902 93.5635C309.578 94.068 318.91 100.399 317.995 102.261C317.067 104.122 309.854 96.0621 307.596 98.2243C305.339 100.387 316.289 106.393 315.687 108.038C315.085 109.684 308.525 106.861 306.631 108.675C304.737 110.489 313.692 111.642 314.871 111.642C316.063 111.642 320.591 113.072 316.163 112.795C311.723 112.483 338.34 113.744 338.34 112.771Z" fill="#3C8F7C"/>
<path d="M320.905 113.889C320.905 113.889 313.529 114.261 311.384 112.976C309.24 111.678 310.933 110.681 310.933 110.681C310.933 110.681 304.122 110.537 304.135 108.988C304.147 107.438 305.803 107.534 305.803 107.534C305.803 107.534 302.366 105.3 303.006 103.894C303.997 101.756 309.591 105.48 309.591 105.48C309.591 105.48 307.759 103.39 309.24 102.897C313.316 101.564 320.905 113.889 320.905 113.889Z" fill="#50BFA5"/>
<path d="M303.006 103.894C302.366 105.288 305.803 107.534 305.803 107.534C305.803 107.534 303.32 107.498 303.721 109.012C304.122 110.513 310.369 111.018 310.369 111.018C310.369 111.018 308.186 111.426 310.331 112.723C312.476 114.021 320.893 113.913 320.893 113.913L303.006 103.894Z" fill="#3C8F7C"/>
<path d="M20.4705 57.0697C20.4831 56.7213 20.9848 56.4451 21.2608 56.7574C21.5242 57.0697 21.5116 56.8535 21.775 57.5262C22.5276 59.4602 23.6314 61.3221 24.9108 62.9558C27.3693 66.079 29.8026 67.6647 32.5621 69.2263C31.4207 66.7758 30.6681 64.157 30.5678 61.5143C30.5301 60.5533 30.5552 59.5563 30.9817 58.6674C31.1071 58.4151 31.5587 58.4752 31.6089 58.7514C31.8346 60.1209 31.496 61.1419 31.9601 63.5804C33.0639 69.4065 37.4163 75.5809 41.6058 79.9053C40.803 72.5778 40.4142 64.2652 41.8441 56.8775C42.0824 55.6643 42.4587 54.5111 42.8099 53.3338C42.8977 53.0576 43.2991 53.1777 43.2489 53.454C43.1736 53.8504 42.4963 58.9316 42.4461 59.28C41.7814 64.9018 41.9193 71.1363 42.4336 76.8181C45.6948 72.5898 47.8648 67.6527 48.8933 62.4993C49.1944 60.9738 49.2696 59.4001 49.6961 57.8986C49.7588 57.6944 50.11 57.6703 50.1602 57.8986C50.5992 60.1449 49.7212 64.109 49.094 66.2592C47.8146 70.6317 45.7575 74.5478 42.9479 78.0434C42.835 78.1756 47.4509 112.363 47.3254 112.795C47.1122 113.528 45.7826 114.033 45.5819 112.747C45.4941 112.219 42.9604 91.4373 41.819 81.8153C41.3925 81.5871 41.104 81.1787 40.0002 79.9774C37.4289 77.2025 34.8826 73.755 33.1768 70.4996C32.1608 70.4395 24.7854 67.004 21.1228 59.1839C21.0224 58.9557 20.5458 57.8986 20.4705 57.6583C20.4204 57.4541 20.4705 57.2739 20.4705 57.0697Z" fill="#184655"/>
<path d="M44.1645 45.9943C44.0767 44.9372 44.0391 43.8681 44.0391 42.7749C44.0391 30.5703 49.4452 20.6721 56.1181 20.6721C62.7911 20.6721 68.1972 30.5703 68.1972 42.7749C68.1972 43.8681 68.1595 44.9492 68.0717 45.9943H44.1645Z" fill="#3C8F7C"/>
<path d="M30.4804 40.5646C30.3926 39.0871 30.355 37.5615 30.355 36.0239C30.355 18.8101 35.7611 4.85168 42.434 4.85168C49.107 4.85168 54.5131 18.8101 54.5131 36.0239C54.5131 37.5735 54.4755 39.0871 54.3877 40.5646H30.4804Z" fill="#50BFA5"/>
<path d="M34.9082 59.6644C34.996 58.6073 35.0336 57.5382 35.0336 56.445C35.0336 44.2404 29.6275 34.3421 22.9545 34.3421C16.2816 34.3421 10.8755 44.2404 10.8755 56.445C10.8755 57.5382 10.9131 58.6193 11.0009 59.6644H34.9082Z" fill="#50BFA5"/>
<path d="M54.2505 59.6644C54.3509 58.1749 54.4136 56.6613 54.4136 55.1237C54.4136 37.9099 47.5525 23.9514 39.0984 23.9514C30.6318 23.9514 23.7832 37.9099 23.7832 55.1237C23.7832 56.6613 23.8334 58.1869 23.9463 59.6644H54.2505Z" fill="#3C8F7C"/>
<path d="M42.4841 23.9514C46.7112 23.9514 50.4867 28.384 52.9828 35.3272C54.2496 34.6905 55.6043 34.3422 56.9966 34.3422C64.5099 34.3422 70.5933 44.2404 70.5933 56.4451C70.5933 57.5382 70.5432 58.6193 70.4554 59.6644H29.0379C28.9375 58.1749 28.8999 56.6613 28.8999 55.1237C28.8999 37.8979 34.9833 23.9514 42.4841 23.9514Z" fill="#50BFA5"/>
<path d="M179.254 89.8036C178.652 89.9357 178.1 89.7676 178.025 89.4192L165.243 37.1891C165.155 36.8408 165.569 36.4444 166.171 36.3123C166.773 36.1801 167.325 36.3483 167.401 36.6966L180.182 88.9267C180.257 89.2751 179.843 89.6715 179.254 89.8036Z" fill="#184655"/>
<path d="M175.906 99.6058C176.445 99.4856 176.959 99.3415 177.486 99.2574C177.975 99.1853 178.389 99.0171 178.715 98.6688C179.493 97.8399 179.807 96.8669 179.681 95.7618C179.644 95.4254 179.518 95.1131 179.43 94.7768C178.853 92.6145 178.276 90.4523 177.699 88.3021C177.649 88.1339 177.599 87.9657 177.561 87.7855C177.549 87.7255 177.561 87.6654 177.587 87.5813C177.699 87.8096 177.888 87.7976 178.076 87.7495C178.54 87.6534 179.004 87.5453 179.455 87.4252C179.606 87.3891 179.807 87.3411 179.756 87.1129C179.782 87.1129 179.844 87.1729 179.857 87.233C180.233 88.9027 180.597 90.5724 180.973 92.2421C181.086 92.7347 181.199 93.2151 181.299 93.7077C181.412 94.2122 181.475 94.7407 181.638 95.2332C182.027 96.3144 182.779 97.0952 183.908 97.5036C184.372 97.6718 184.836 97.6357 185.313 97.4675C185.765 97.2994 186.241 97.2393 186.718 97.1432C186.756 97.1312 186.843 97.1913 186.856 97.2393C186.894 97.3354 186.919 97.4315 186.944 97.5396C187.496 99.7739 188.035 102.008 188.587 104.243C188.762 104.963 188.7 105.684 188.474 106.393C188.11 107.57 187.445 108.591 186.655 109.552C186.329 109.96 185.978 110.345 185.602 110.717C184.949 111.366 184.159 111.546 183.269 111.246C181.926 110.777 180.647 110.177 179.518 109.324C178.791 108.771 178.164 108.135 177.8 107.294C177.725 107.138 177.662 106.969 177.624 106.801C177.06 104.519 176.508 102.248 175.956 99.9661C175.931 99.858 175.918 99.7259 175.906 99.6058ZM179.255 88.8426C179.205 88.6865 179.092 88.6144 178.941 88.6504C178.791 88.6865 178.715 88.7946 178.753 88.9507C178.791 89.0949 178.904 89.167 179.067 89.1309C179.23 89.0949 179.28 88.9748 179.255 88.8426Z" fill="#F8C48B"/>
<path d="M186.943 97.5516C186.918 97.4555 186.906 97.3474 186.855 97.2513C186.83 97.2032 186.755 97.1432 186.718 97.1552C186.241 97.2513 185.764 97.3234 185.313 97.4795C184.836 97.6597 184.372 97.6837 183.908 97.5156C182.779 97.1071 182.014 96.3263 181.638 95.2452C181.462 94.7527 181.412 94.2242 181.299 93.7196C181.186 93.2271 181.073 92.7466 180.973 92.2541C180.596 90.5844 180.233 88.9147 179.856 87.2449C179.844 87.1969 179.781 87.1248 179.756 87.1248C179.819 87.3531 179.618 87.4011 179.455 87.4371C179.217 87.4972 178.978 87.5573 178.728 87.6173L178.978 88.6384C179.116 88.6144 179.217 88.6744 179.267 88.8306C179.279 88.9627 179.242 89.0708 179.091 89.1069L184.535 111.342C184.924 111.258 185.288 111.042 185.614 110.717C185.977 110.345 186.329 109.948 186.667 109.552C187.458 108.591 188.122 107.57 188.486 106.393C188.699 105.684 188.775 104.975 188.599 104.243C188.035 102.02 187.483 99.7859 186.943 97.5516Z" fill="#EE944C"/>
<path d="M153.239 108.855C153.076 107.738 153.026 106.032 153.038 104.062L149.426 104.843C149.852 107.63 149.727 109.035 149.727 109.035L149.626 109.912V112.519H158.52C158.52 112.519 156.626 111.714 153.991 110.105C153.791 109.984 153.339 109.612 153.239 108.855Z" fill="#F7A491"/>
<path d="M139.505 107.99L140.684 104.747H137.586C137.423 106.825 137.36 108.231 137.36 108.231L136.57 110.369L135.767 112.903C135.767 112.903 138.401 113.552 139.781 112.819L139.63 110.297L139.505 107.99Z" fill="#F7A491"/>
<path d="M139.642 110.285C138.426 110.801 137.121 110.489 136.594 110.321L136.419 110.777L135.754 112.916C135.754 112.916 138.426 113.708 139.805 112.976L139.642 110.285Z" fill="#F7CC7F"/>
<path d="M149.526 113.168H158.783C159.122 113.144 159.21 112.867 159.084 112.711C158.846 112.375 157.755 112.123 156.55 111.582C154.418 111.798 149.953 110.393 149.627 109.912C149.426 110.849 149.338 113.12 149.526 113.168Z" fill="#F7CC7F"/>
<path d="M149.727 63.3162L144.823 92.098L139.555 108.831L137.247 108.567C137.247 108.567 137.084 100.603 138.338 95.5336C139.028 92.7587 139.366 89.9237 139.454 87.0768C139.617 81.9835 140.019 74.7881 140.985 71.0763C142.327 65.9229 143.844 63.1841 143.844 63.1841L149.727 63.3162Z" fill="#355389"/>
<path d="M144.898 69.8029C144.359 75.9532 149.728 108.291 149.728 108.291H153.164C153.164 108.291 155.987 74.4877 155.41 71.1963C154.833 67.9049 153.114 62.5474 153.114 62.5474L145.4 63.124C145.413 63.124 145.049 68.1331 144.898 69.8029Z" fill="#466EB6"/>
<path d="M147.797 36.048C148.157 36.048 148.449 35.4456 148.449 34.7026C148.449 33.9596 148.157 33.3572 147.797 33.3572C147.437 33.3572 147.145 33.9596 147.145 34.7026C147.145 35.4456 147.437 36.048 147.797 36.048Z" fill="#F7A491"/>
<path d="M149.263 43.4236C143.945 41.3695 141.248 42.0542 140.332 42.4987L140.382 50.2467C140.533 50.8954 139.931 69.8509 139.743 72.0612C139.743 72.0612 153.716 73.4066 156.212 70.6437C156.212 70.6437 153.126 59.7485 153.503 56.9496C154.092 52.5651 149.714 43.6038 149.263 43.4236Z" fill="#F47458"/>
<path d="M154.017 48.8773C154.017 48.8773 156.338 51.532 156.664 51.7843C156.664 51.7843 163.237 48.7571 165.946 47.2196C165.971 47.1955 166.009 47.1715 166.034 47.1475C166.084 47.1114 166.159 47.0754 166.159 47.0033C166.134 46.655 166.184 45.4417 166.222 44.9252C166.234 44.781 166.272 44.6489 166.347 44.5168C166.51 44.2405 166.811 43.7239 166.811 43.7239L166.962 44.3486C167.012 44.5408 167.213 44.6609 167.414 44.6249C167.614 44.5888 167.802 44.4807 167.991 44.3726C168.229 44.2285 168.53 44.1564 168.818 44.1204C169.094 44.0843 169.32 44.2405 169.408 44.5168C169.458 44.6849 169.471 44.8771 169.584 45.0213C169.759 45.2495 170.512 47.5919 170.135 47.9163C169.947 48.0845 168.856 48.5409 168.404 48.649C168.078 48.7331 167.777 48.8773 167.539 49.0575C167.489 49.0935 167.426 49.1295 167.376 49.1656C165.482 50.4389 159.21 54.8474 159.21 54.8474C159.21 54.8474 156.075 56.7815 155.472 56.4811C154.87 56.1808 150.505 51.2317 150.505 51.2317L154.017 48.8773Z" fill="#F7A491"/>
<path d="M145.951 37.6576C145.951 37.6576 146.077 40.5166 145.813 41.5977C145.55 42.6788 145.186 42.7629 147.494 43.0993C148.397 43.2314 149.275 43.4236 149.275 43.4236C149.275 43.4236 149.037 41.8259 148.999 41.1532C148.937 40.0481 149.263 36.6246 149.263 36.6246L145.951 37.6576Z" fill="#F7A491"/>
<path d="M147.708 39.0871C148.185 39.3274 148.624 39.4715 149.038 39.5316C149.113 38.1862 149.264 36.6366 149.264 36.6366L146.115 37.6216C146.466 38.1982 146.981 38.7147 147.708 39.0871Z" fill="#F47458"/>
<path d="M146.317 46.5709C146.291 49.2737 151.146 54.1988 151.146 54.1988C151.146 54.1988 155.523 50.8593 156.163 49.7061C156.163 49.7061 151.459 44.9252 151.158 44.6369C149.791 43.3395 148.436 43.6398 147.583 43.9402C146.906 44.1804 146.317 46.5709 146.317 46.5709Z" fill="#B75742"/>
<path d="M144.334 47.6761C146.993 45.4538 147.997 40.5527 146.266 37.6337C147.47 36.1321 148.248 36.3964 147.972 34.5345C147.445 30.8467 152.801 28.6244 148.8 27.6514C144.761 26.8705 141.399 29.249 139.543 31.6155C138.715 32.6846 137.674 33.5975 136.445 34.2462C133.999 35.5315 132.719 38.6067 134.011 41.814C132.055 42.8591 130.349 45.8982 131.641 48.4209C131.954 49.0215 132.581 49.7302 132.594 49.9104C132.556 49.6942 130.775 55.328 137.436 57.238C144.234 59.196 145.639 52.9375 144.334 47.6761Z" fill="#184655"/>
<path d="M142.39 31.5193C141.599 34.6305 145.864 36.8888 149.238 36.9729C151.433 37.0209 152.437 36.8167 152.788 34.5944C153.365 31.0028 151.822 28.8165 149.652 27.9156C146.868 26.7384 143.042 28.9487 142.39 31.5193Z" fill="#184655"/>
<path d="M147.344 29.4171C147.344 29.4171 145.864 29.8976 145.074 31.3271C144.284 32.7566 144.673 37.3573 147.972 38.8709C151.27 40.3844 152.776 36.9489 152.537 34.4022C152.299 31.8556 151.333 28.5522 147.344 29.4171Z" fill="#F7A491"/>
<path d="M149.402 36.4923L151.735 36.4563C151.735 36.4563 151.697 37.3212 150.669 37.3693C149.414 37.4173 149.402 36.4923 149.402 36.4923Z" fill="white"/>
<path d="M143.907 34.8107C143.418 32.4322 143.606 30.6424 145.375 29.7654C147.131 28.9006 148.636 28.0357 150.217 29.5973L150.568 29.7895C150.568 29.7895 147.595 30.5823 147.432 32.0838C147.269 33.5974 145.688 35.3993 145.927 36.132C146.165 36.8648 146.454 38.3543 146.454 38.3543L145.801 37.8378C145.801 37.8618 144.384 37.1891 143.907 34.8107Z" fill="#184655"/>
<path d="M146.968 33.8977C147.219 34.5584 147.031 35.2071 146.554 35.3632C146.078 35.5194 145.501 35.111 145.25 34.4623C144.999 33.8136 145.187 33.1529 145.664 32.9967C146.141 32.8406 146.718 33.249 146.968 33.8977Z" fill="#F7A491"/>
<path d="M201.77 71.2805C201.77 71.2805 199.124 76.8783 196.276 79.7613V80.6141L200.554 74.6319L201.77 71.2805Z" fill="#184655"/>
<path d="M204.567 61.4783C204.592 58.6193 203.914 57.5382 203.902 57.7064C203.877 58.1028 203.939 58.8596 203.965 59.8686C203.965 59.9887 203.939 66.2712 201.97 70.836C201.958 70.86 201.945 70.884 201.933 70.908C201.907 70.9561 201.895 70.9921 201.87 71.0402C201.832 71.1243 201.795 71.2083 201.757 71.2924C201.669 71.4726 201.606 71.6288 201.544 71.7489C199.386 76.4458 198.671 77.0824 196.263 79.7492C196.263 72.3856 195.736 64.073 193.491 56.8655C193.127 55.6883 192.626 54.5711 192.149 53.4299C192.036 53.1657 191.635 53.3218 191.722 53.5861C191.835 53.9705 194.871 64.2772 194.733 78.0074C194.733 78.1756 194.018 112.591 194.193 113C194.482 113.708 195.862 114.081 195.924 112.771C195.949 112.243 196.188 91.3172 196.276 81.6231C196.664 81.3829 202.121 73.6469 203.3 69.3824C204.24 65.9349 204.542 63.3402 204.567 61.4783Z" fill="#184655"/>
<path d="M191.196 51.7122C191.723 52.2768 191.949 53.0336 191.874 53.7783C191.159 53.8384 190.444 53.5861 189.917 53.0215C189.39 52.457 189.164 51.7002 189.24 50.9554C189.942 50.8954 190.67 51.1476 191.196 51.7122Z" fill="#3C8F7C"/>
<path d="M193.93 51.6041C193.616 52.5771 192.864 53.3459 191.923 53.7903C191.358 53.0456 191.158 52.0846 191.471 51.1116C191.785 50.1385 192.537 49.3698 193.478 48.9253C194.043 49.6581 194.243 50.6311 193.93 51.6041Z" fill="#50BFA5"/>
<path d="M203.463 56.409C203.902 56.8775 204.09 57.5022 204.028 58.1148C203.438 58.1628 202.849 57.9586 202.41 57.4901C201.971 57.0217 201.783 56.397 201.845 55.7844C202.435 55.7364 203.024 55.9526 203.463 56.409Z" fill="#3C8F7C"/>
<path d="M205.67 56.325C205.419 57.1298 204.792 57.7665 204.015 58.1268C203.551 57.5142 203.388 56.7094 203.638 55.9165C203.889 55.1117 204.516 54.4751 205.294 54.1147C205.771 54.7153 205.934 55.5201 205.67 56.325Z" fill="#50BFA5"/>
<path d="M201.205 67.929C201.832 68.1092 202.334 68.5536 202.623 69.0942C202.146 69.4305 201.531 69.5507 200.904 69.3705C200.277 69.1903 199.775 68.7458 199.487 68.2053C199.963 67.8689 200.578 67.7488 201.205 67.929Z" fill="#3C8F7C"/>
<path d="M203.036 66.7398C203.262 67.5566 203.074 68.4095 202.61 69.1062C201.883 68.8179 201.306 68.2173 201.08 67.4004C200.854 66.5836 201.042 65.7307 201.506 65.034C202.246 65.3223 202.823 65.9229 203.036 66.7398Z" fill="#50BFA5"/>
<path d="M193.341 77.4669C193.93 77.4309 194.494 77.6471 194.921 78.0315C194.632 78.4639 194.143 78.7522 193.566 78.7883C192.977 78.8243 192.412 78.6081 191.986 78.2237C192.262 77.8033 192.751 77.5029 193.341 77.4669Z" fill="#3C8F7C"/>
<path d="M194.495 75.9052C194.947 76.5298 195.085 77.2986 194.922 78.0314C194.207 78.0073 193.517 77.683 193.065 77.0584C192.614 76.4337 192.476 75.6649 192.639 74.9322C193.354 74.9562 194.044 75.2926 194.495 75.9052Z" fill="#50BFA5"/>
<path d="M192.237 65.094C192.864 64.9138 193.529 65.0099 194.093 65.3223C193.893 65.8508 193.441 66.2833 192.827 66.4635C192.212 66.6437 191.535 66.5476 190.97 66.2352C191.171 65.7067 191.61 65.2742 192.237 65.094Z" fill="#3C8F7C"/>
<path d="M193.089 63.124C193.742 63.6886 194.08 64.4934 194.105 65.3223C193.328 65.4664 192.5 65.2743 191.848 64.7097C191.195 64.1451 190.857 63.3403 190.832 62.5114C191.609 62.3673 192.437 62.5715 193.089 63.124Z" fill="#50BFA5"/>
<path d="M205.407 62.3792C205.232 62.7876 204.868 63.0879 204.442 63.2321C204.228 62.8837 204.191 62.4633 204.379 62.0548C204.554 61.6464 204.918 61.3461 205.345 61.202C205.545 61.5503 205.583 61.9828 205.407 62.3792Z" fill="#3C8F7C"/>
<path d="M206.135 63.7126C205.52 63.7967 204.906 63.6045 204.441 63.2441C204.705 62.7756 205.194 62.4393 205.809 62.3552C206.423 62.2711 207.038 62.4633 207.502 62.8237C207.226 63.2922 206.737 63.6286 206.135 63.7126Z" fill="#50BFA5"/>
<path d="M194.469 56.9976C194.432 57.4421 194.193 57.8385 193.83 58.1028C193.516 57.8385 193.34 57.4421 193.378 57.0096C193.416 56.5652 193.654 56.1688 194.018 55.9045C194.331 56.1688 194.507 56.5532 194.469 56.9976Z" fill="#3C8F7C"/>
<path d="M195.599 58.0307C195.047 58.295 194.407 58.307 193.83 58.1028C193.93 57.5742 194.282 57.1058 194.834 56.8415C195.385 56.5772 196.025 56.5652 196.602 56.7694C196.502 57.2979 196.151 57.7664 195.599 58.0307Z" fill="#50BFA5"/>
<path d="M201.846 74.3196C201.595 74.5718 201.244 74.692 200.892 74.692C200.842 74.3796 200.93 74.0673 201.181 73.8151C201.432 73.5628 201.783 73.4427 202.134 73.4427C202.184 73.743 202.097 74.0673 201.846 74.3196Z" fill="#3C8F7C"/>
<path d="M201.996 75.4848C201.519 75.3887 201.13 75.0884 200.879 74.6919C201.206 74.4156 201.657 74.2955 202.134 74.3916C202.61 74.4877 202.999 74.788 203.25 75.1845C202.924 75.4608 202.472 75.5809 201.996 75.4848Z" fill="#50BFA5"/>
<path d="M196.514 68.8179C196.401 69.1422 196.125 69.3944 195.799 69.5386C195.623 69.2743 195.561 68.95 195.686 68.6257C195.799 68.3014 196.075 68.0491 196.401 67.905C196.577 68.1692 196.639 68.4935 196.514 68.8179Z" fill="#3C8F7C"/>
<path d="M197.154 69.8269C196.677 69.923 196.188 69.8029 195.799 69.5386C195.987 69.1542 196.339 68.8659 196.815 68.7698C197.292 68.6737 197.781 68.7938 198.17 69.0581C197.982 69.4425 197.631 69.7308 197.154 69.8269Z" fill="#50BFA5"/>
<path d="M181.638 109.876C182.616 109.24 183.067 108.339 184.247 108.291C185.012 108.255 185.814 108.255 186.467 107.858C187.357 107.33 188.448 106.933 189.251 106.297C189.916 105.78 190.807 105.636 191.66 105.516C193.052 105.324 194.432 105.131 195.824 104.927C196.338 104.855 196.852 104.783 197.354 104.843C199.223 105.059 200.452 106.921 202.271 107.426C203.124 107.666 204.077 107.594 204.867 107.978C205.896 108.483 206.398 109.612 206.649 110.681C206.799 111.342 208.191 111.726 208.505 113.036C208.63 113.288 207.627 112.916 207.376 113.06C207.125 113.204 206.812 113.228 206.523 113.24C199.135 113.612 191.747 113.696 184.347 113.468C183.456 113.444 178.778 113.937 178.201 113.156C177.511 112.255 180.91 110.357 181.638 109.876Z" fill="#B75742"/>
<path d="M232.7 64.7576C232.7 64.7576 230.957 64.3372 230.668 64.2291C230.38 64.121 229.251 63.9288 229.15 64.0609C229.063 64.2051 229.84 64.7937 229.891 64.8177C229.941 64.8417 231.182 65.2742 231.233 65.2742C231.295 65.2862 232.7 64.7576 232.7 64.7576Z" fill="#F7A491"/>
<path d="M250.45 51.8563C250.011 54.0666 247.878 53.2257 247.414 53.2978L243.137 61.9828L233.253 64.7576L230.82 64.7817C230.945 64.8658 229.126 64.7697 228.424 65.142C228.461 65.2502 228.662 65.4063 228.725 65.5144C229.289 66.5595 230.105 67.3884 230.393 68.5416C230.845 68.4815 231.459 68.3734 232.049 68.1091C232.714 67.8088 234.532 67.1241 234.532 67.1241C234.532 67.1241 245.006 65.13 245.608 64.7096C246.122 64.3492 251.867 54.1627 250.45 51.8563Z" fill="#F7A491"/>
<path d="M247.89 108.11L248.066 110.849C248.129 111.198 248.379 112.051 248.379 112.375C248.379 113.564 242.497 111.366 243.814 110.837C243.939 110.789 244.554 110.429 244.604 110.02C244.667 109.396 244.817 108.135 244.817 108.135L247.89 108.11Z" fill="#F7A491"/>
<path d="M243.826 110.825C243.826 110.825 245.206 111.186 245.921 111.282C246.623 111.378 247.564 110.609 248.066 110.813C248.617 111.042 248.592 113.084 248.592 113.084C248.592 113.084 241.179 113.66 239.097 113.06C238.257 112.831 240.991 111.678 243.826 110.825Z" fill="#F47458"/>
<path d="M257.624 64.7096C257.624 64.7096 258.276 68.8659 257.461 70.6918C256.645 72.5177 250.487 90.4162 250.411 91.8697C250.336 93.3232 248.279 109.456 248.279 109.456L244.002 109.336L243.074 91.4012L245.018 68.8659L246.899 63.172L257.624 64.7096Z" fill="#13375B"/>
<path d="M259.932 108.11L260.107 110.849C260.17 111.198 260.421 112.051 260.421 112.375C260.421 113.564 254.538 111.366 255.855 110.837C255.981 110.789 256.783 110.165 256.821 109.756C256.884 109.132 256.846 108.147 256.846 108.147L259.932 108.11Z" fill="#F7A491"/>
<path d="M255.868 110.825C255.868 110.825 257.248 111.186 257.963 111.282C258.678 111.378 259.606 110.609 260.108 110.813C260.66 111.042 260.685 113.084 260.685 113.084C260.685 113.084 253.247 113.768 251.152 113.06C250.312 112.795 253.033 111.678 255.868 110.825Z" fill="#F47458"/>
<path d="M258.589 64.9259C258.589 64.9259 259.593 69.5386 259.179 73.0462C258.777 76.5539 258.74 88.9867 258.74 88.9867L260.295 108.891L256.62 108.963C256.62 108.963 250.449 88.302 250.536 88.8186C250.612 89.3351 249.069 74.8121 249.069 74.8121L256.068 64.4934L258.589 64.9259Z" fill="#184655"/>
<path d="M243.676 60.4333L248.694 62.2231C248.694 62.2231 250.036 58.235 250.562 56.301C251.202 53.9586 251.817 50.8834 251.503 50.8834C250.625 50.8594 249.383 51.0155 248.48 51.7243C245.357 54.1868 243.676 60.4333 243.676 60.4333Z" fill="#F7CC7F"/>
<path d="M247.451 55.8565C247.301 56.5892 243.563 75.0523 243.563 75.0523C253.008 80.0134 259.969 77.647 259.969 77.647C259.969 77.647 259.606 63.9769 260.095 62.0789C260.408 60.8296 261.575 52.5651 260.735 52.2768C259.656 51.9164 258.013 51.3999 256.645 51.1836C255.479 51.0034 250.926 50.7152 250.085 50.9434C250.073 50.9554 248.079 52.7813 247.451 55.8565Z" fill="#FAE0B2"/>
<path d="M255.052 35.8918C255.052 35.8918 251.553 34.4262 250.612 37.3332C250.612 37.3332 247.564 37.2492 248.317 40.2162C248.317 40.2162 245.382 41.898 247.602 45.5377C247.602 45.5377 247.025 49.1535 251.39 49.0694C251.39 49.0694 252.13 50.2826 254.099 49.8502C256.056 49.4177 256.52 48.8772 256.52 48.8772C256.52 48.8772 260.107 49.6099 260.935 46.4987C260.935 46.4987 263.306 45.778 261.449 42.919C261.449 42.919 263.256 38.9189 259.455 38.03C259.468 38.042 258.74 34.1379 255.052 35.8918Z" fill="#184655"/>
<path d="M259.585 45.1938C259.802 44.4457 259.549 43.7259 259.022 43.586C258.495 43.4461 257.892 43.9391 257.675 44.6872C257.459 45.4352 257.711 46.155 258.239 46.2949C258.766 46.4348 259.369 45.9418 259.585 45.1938Z" fill="#F7A491"/>
<path d="M249.485 44.9056C250.032 44.8916 250.458 44.2513 250.436 43.4754C250.415 42.6994 249.954 42.0818 249.407 42.0958C248.859 42.1098 248.434 42.7501 248.455 43.526C248.477 44.3019 248.938 44.9196 249.485 44.9056Z" fill="#F7A491"/>
<path d="M252.457 48.3006C252.457 48.3607 252.143 50.3427 251.967 51.3998C251.905 51.7962 252.143 52.1686 252.532 52.3128C253.573 52.6852 255.592 53.1536 256.872 51.8683C256.985 51.7482 257.047 51.592 257.022 51.4239L256.496 46.7631L252.457 48.3006Z" fill="#F7A491"/>
<path d="M252.28 49.4178C253.384 49.8502 254.726 49.7662 256.156 48.8172C256.344 48.6971 256.507 48.5649 256.67 48.4328L256.482 46.7631L252.443 48.2886C252.456 48.3247 252.381 48.8052 252.28 49.4178Z" fill="#F48C7F"/>
<path d="M254.639 38.2823C254.639 38.2823 256.332 38.5826 257.423 40.0601C258.515 41.5376 259.405 45.9702 256.069 48.1685C252.745 50.3668 249.973 47.5198 249.822 44.6489C249.659 41.7899 250.713 38.03 254.639 38.2823Z" fill="#F7A491"/>
<path d="M251.44 45.9462L254.902 45.9702C254.902 45.9702 254.814 47.2315 253.284 47.2676C251.44 47.2916 251.44 45.9462 251.44 45.9462Z" fill="white"/>
<path d="M251.252 38.9069C251.252 38.9069 253.096 38.7387 254.162 39.2913C255.228 39.8439 257.774 43.8441 258.489 43.6398C259.204 43.4236 259.505 40.913 259.229 40.4085C258.953 39.916 257.687 38.2582 257.549 38.1742C257.411 38.1021 255.868 37.5135 255.579 37.4654C255.291 37.4294 253.008 37.5255 253.008 37.5255L251.252 38.9069Z" fill="#184655"/>
<path d="M249.821 72.7459C249.495 72.5537 250.662 71.2924 250.499 70.9681C250.336 70.6438 248.555 72.0132 248.291 71.821C247.802 71.4846 250.148 70.2113 249.934 70.0431C249.721 69.875 247.238 71.0642 247.162 70.5477C247.087 70.0191 249.872 69.5626 249.734 69.2864C249.583 69.0101 247.187 69.935 246.773 69.3945C246.56 69.1062 251.088 68.3013 251.327 67.8689C251.565 67.4364 249.696 66.7277 249.821 66.3073C249.947 65.8868 253.083 67.8449 253.359 67.7848C253.635 67.7247 259.467 66.055 261.273 65.2382C261.048 64.6135 260.245 60.8777 260.019 60.3011C261.349 60.217 262.151 58.7995 263.468 58.6434C264.133 60.6494 266.19 66.5716 265.914 67.1121C265.074 68.7338 256.055 69.9951 254.425 70.1032C252.794 70.2113 252.393 70.908 251.515 71.2324C250.624 71.5447 250.148 72.9381 249.821 72.7459Z" fill="#F7A491"/>
<path d="M265.212 62.1989L259.116 65.0219C259.116 65.0219 258.163 60.7334 257.448 58.0787C256.833 55.7964 259.868 51.7482 260.884 52.3008C263.142 53.55 265.212 62.1989 265.212 62.1989Z" fill="#F7CC7F"/>
<path d="M229.577 73.6229L228.762 72.6379L229.038 72.4937C230.054 71.9412 230.769 71.0523 231.07 69.9952C231.358 68.9381 231.208 67.8329 230.618 66.8839C230.506 66.7037 230.393 66.5476 230.267 66.3914C229.515 65.4665 228.348 64.9259 227.081 64.8899C225.827 64.8538 224.635 65.3343 223.82 66.2112L223.607 66.4395L222.792 65.4544L222.955 65.2983C224.109 64.1571 225.513 63.6045 227.144 63.6646C229.389 63.7367 231.333 65.07 232.111 67.0641C232.926 69.1543 232.349 71.4487 230.631 72.9142C230.368 73.1424 230.079 73.3346 229.753 73.5268L229.577 73.6229Z" fill="#355389"/>
<path d="M230.355 74.0313L223.167 65.3704C223.155 65.3583 223.142 65.3463 223.13 65.3343C223.117 65.3103 223.092 65.2983 223.08 65.2742L222.766 64.9019C222.703 64.8298 222.653 64.7577 222.59 64.6856C222.528 64.6136 222.478 64.5415 222.415 64.4694C222.302 64.3253 222.227 64.2892 222.051 64.3973C221.311 64.8298 220.546 65.2502 219.793 65.6827C219.63 65.7668 219.467 65.8388 219.292 65.8749C218.188 66.1151 217.097 66.3674 215.993 66.6076C215.83 66.6437 215.792 66.6917 215.867 66.8479C215.968 67.0401 216.03 67.2683 216.131 67.4605C216.231 67.6407 216.181 67.7368 215.993 67.8209C215.717 67.953 215.729 67.965 215.855 68.2413C216.269 69.1903 216.683 70.1393 217.109 71.0883C217.648 72.3015 218.175 73.5148 218.715 74.7281C218.878 75.0884 219.028 75.4488 219.204 75.8572C219.003 75.7852 218.853 75.7371 218.702 75.677C216.03 74.716 213.359 73.7671 210.687 72.8061C210.536 72.746 210.424 72.6619 210.323 72.5298C209.985 72.0373 209.646 71.5447 209.295 71.0522C209.169 70.8721 209.031 70.6919 208.881 70.4877C208.341 71.8691 207.815 73.2265 207.263 74.6079C208.141 74.3917 208.956 74.1875 209.771 73.9713C209.884 73.9352 209.985 73.9472 210.097 73.9953C213.421 75.3647 216.733 76.7341 220.057 78.0915C220.182 78.1396 220.245 78.2117 220.295 78.3318C220.533 78.8964 220.797 79.461 221.035 80.0256C221.085 80.1577 221.135 80.1577 221.248 80.0856C221.562 79.9054 221.875 79.7373 222.177 79.5571C224.999 77.9594 227.833 76.3497 230.656 74.7521C230.794 74.668 230.856 74.6199 230.718 74.4758C230.618 74.3437 230.493 74.1875 230.355 74.0313Z" fill="#F47458"/>
<path d="M215.729 66.5595L216.143 67.7607L220.019 65.5624L215.729 66.5595Z" fill="#B75742"/>
<path d="M210.437 72.6498C210.399 72.6138 210.374 72.5777 210.349 72.5417C210.01 72.0492 209.672 71.5567 209.321 71.0642C209.195 70.884 209.057 70.7038 208.907 70.4996C208.367 71.881 207.84 73.2384 207.289 74.6199C208.167 74.4036 208.982 74.1994 209.797 73.9832L210.437 72.6498Z" fill="#355389"/>
<path opacity="0.5" d="M230.755 74.4878C230.617 74.3436 230.492 74.1875 230.367 74.0313L223.179 65.3703C223.167 65.3583 223.154 65.3463 223.142 65.3343C223.129 65.3103 223.104 65.2983 223.092 65.2742L222.778 64.9019C222.715 64.8298 222.665 64.7577 222.602 64.6856C222.54 64.6136 222.489 64.5415 222.427 64.4694C222.314 64.3253 222.239 64.2892 222.063 64.3973C221.624 64.6496 221.185 64.9019 220.746 65.1541C222.326 67.977 225.437 74.9322 220.696 79.2087C220.821 79.485 220.947 79.7612 221.06 80.0495C221.11 80.1817 221.16 80.1817 221.273 80.1096C221.586 79.9294 221.9 79.7612 222.201 79.5811C225.023 77.9834 227.858 76.3737 230.68 74.7761C230.831 74.692 230.881 74.6439 230.755 74.4878Z" fill="#B75742"/>
<path d="M231.509 67.1001C231.697 67.3764 231.634 67.7488 231.358 67.965C230.844 68.3614 229.928 68.926 229.313 68.3854C228.435 67.6046 228.034 65.1301 228.498 65.118C228.95 65.106 231.295 65.995 231.245 66.4634C231.233 66.7157 231.371 66.8839 231.509 67.1001Z" fill="#ED9A8C"/>
<path d="M367.186 88.1098C368.917 83.7974 370.61 79.4849 371.839 75.0043C375.627 61.202 374.712 51.1476 374.574 46.3186C374.561 45.682 375.627 45.5018 375.715 46.1625C376.041 48.4328 376.104 50.7392 376.129 53.0336C376.154 56.9016 375.916 60.7696 375.389 64.6376C378.161 65.3343 380.795 64.2892 382.94 62.4273C386.64 59.22 387.97 54.9435 388.547 50.1986C388.61 49.7181 388.622 49.2617 389.036 48.9734C389.124 48.7211 389.513 48.649 389.6 49.0214C390.19 49.598 389.901 50.7632 389.814 51.508C388.597 61.5984 382.187 66.4995 377.02 66.4515C376.455 66.4515 375.765 66.4154 375.151 66.2592C374.774 68.6737 374.298 71.0762 373.721 73.4427C372.604 77.9593 371.037 82.3319 369.318 86.6443C363.435 101.42 361.554 108.975 359.886 113.252C359.635 114.117 358.305 113.756 358.531 112.879C358.619 112.579 363.21 98.0201 367.186 88.1098Z" fill="#29446D"/>
<path d="M343.606 49.2616C343.656 48.9493 343.857 48.7331 343.932 48.4328C344.032 48.0364 344.697 48.0003 344.772 48.4328C344.81 48.685 344.96 48.8292 345.011 49.0814C345.186 49.8983 344.76 54.4991 345.889 61.5383C346.19 63.4123 346.516 65.2742 347.168 67.052C348.222 69.935 350.141 73.0462 352.524 75.0163C352.599 70.896 352.863 66.7758 353.377 62.6795C353.69 60.229 354.079 57.7905 354.543 55.3639C354.769 54.1867 355.02 53.0095 355.296 51.8323C355.572 50.607 355.848 49.4178 356.462 48.3006C356.651 47.9643 357.19 48.1205 357.19 48.4928C357.19 49.586 356.964 50.595 356.726 51.6521C356.488 52.7092 356.262 53.7663 356.061 54.8354C354.531 62.7156 353.954 69.7188 353.966 77.599C356.488 74.5598 358.695 70.92 360.326 67.3403C362.295 63.0399 363.612 58.4151 364.164 53.7183C364.314 52.4089 364.415 51.0875 364.44 49.7662C364.452 49.0815 364.465 48.3967 364.49 47.712C364.503 47.3637 364.641 46.2946 365.255 46.6069C365.82 46.8952 365.769 47.5318 365.82 48.0844C365.87 48.6971 365.882 49.2977 365.87 49.9103C365.857 51.0755 365.795 52.2527 365.682 53.4059C364.866 61.8386 361.542 70.1753 356.488 76.9983C355.722 78.0434 354.92 79.1606 353.991 80.0615C354.205 93.5515 356.35 111.546 356.387 112.903C356.4 113.204 356.387 113.132 356.274 113.24C355.823 113.672 355.283 113.816 355.108 113.348C354.782 112.459 354.832 111.63 354.355 106.705C353.49 97.924 352.524 77.8152 352.524 76.9983C349.526 74.9322 347.406 71.7609 346.014 68.4455C345.274 66.6917 344.847 64.8778 344.521 63.0038C343.392 56.6733 343.43 50.3067 343.606 49.2616Z" fill="#29446D"/>
<path d="M364.227 38.2462C364.114 37.2732 364.051 36.2762 364.051 35.2671C364.051 23.9875 371.376 14.834 380.408 14.834C389.439 14.834 396.764 23.9875 396.764 35.2671C396.764 36.2762 396.701 37.2732 396.588 38.2462H364.227Z" fill="#4E9B87"/>
<path d="M345.714 33.225C345.601 31.8556 345.539 30.4502 345.539 29.0207C345.539 13.1042 352.864 0.202881 361.895 0.202881C370.926 0.202881 378.251 13.1042 378.251 29.0207C378.251 30.4502 378.188 31.8556 378.076 33.225H345.714Z" fill="#50BFA5"/>
<path d="M377.874 50.8833C378.012 49.5139 378.087 48.1084 378.087 46.679C378.087 30.7625 368.805 17.8612 357.353 17.8612C345.902 17.8612 336.62 30.7625 336.62 46.679C336.62 48.1084 336.695 49.5139 336.833 50.8833H377.874Z" fill="#4E9B87"/>
<path d="M361.956 17.8732C367.676 17.8732 372.794 21.9695 376.168 28.3841C377.886 27.7955 379.718 27.4832 381.599 27.4832C391.759 27.4832 400 36.6367 400 47.9164C400 48.9254 399.937 49.9224 399.812 50.8954H343.756C343.631 49.526 343.556 48.1206 343.556 46.6911C343.568 30.7626 351.797 17.8732 361.956 17.8732Z" fill="#50BFA5"/>
<path d="M394.005 112.891H0V113.876H394.005V112.891Z" fill="#13375B"/>
</svg>
