<svg width="363" height="313" viewBox="0 0 363 313" fill="none" xmlns="http://www.w3.org/2000/svg">
<path d="M161 269C235.558 269 296 208.782 296 134.5C296 60.2177 235.558 0 161 0C86.4416 0 26 60.2177 26 134.5C26 208.782 86.4416 269 161 269Z" fill="url(#paint0_linear)"/>
<path d="M158.284 151.002C158.284 151.002 157.735 67.5843 208.168 56.0511C258.601 44.5969 256.405 46.5718 263.229 48.6256C270.052 50.6795 291.308 53.9972 296.171 54.7082C301.034 55.4191 307.622 69.5591 284.014 71.297C284.014 71.297 332.015 77.7746 356.016 103.053C371.703 119.642 356.173 120.037 349.192 117.983C349.192 117.983 370.604 128.726 356.408 137.889C350.369 141.76 338.054 134.098 338.054 134.098C338.054 134.098 355.781 143.735 339.78 148.633C336.094 149.738 329.348 147.29 329.348 147.29C329.348 147.29 329.035 156.058 313.662 156.137C302.838 156.137 279.072 145.315 262.444 146.974C245.816 148.633 222.443 148.87 198.286 143.735C173.344 138.442 165.108 145.947 158.284 151.002Z" fill="#ECC19C"/>
<path d="M240.953 129.832C244.248 133.15 245.267 136.467 246.287 140.812C245.973 139.548 247.228 137.731 247.699 136.546C250.836 127.462 250.758 116.956 252.091 107.477C253.267 99.3401 255.934 89.3078 262.836 84.0152C269.268 79.0385 277.582 76.4317 285.739 76.0367C289.269 75.8787 292.798 75.6418 296.406 75.6418C298.288 75.6418 300.171 75.7997 302.053 75.7997C303.387 75.7997 304.641 76.3527 305.896 76.2737C303.151 75.0098 299.935 74.6938 297.033 73.9829C293.504 73.1139 289.974 72.324 286.366 71.771C281.817 71.1391 277.111 71.771 272.484 72.245C267.778 72.719 262.915 73.2719 258.287 73.6669C254.444 73.9829 251.228 74.1409 247.934 76.5107C241.267 81.2504 238.287 89.4658 234.051 96.0223C230.129 102.026 221.188 110.162 213.502 110.557C209.58 110.715 203.697 111.031 199.933 109.925C198.207 109.451 196.089 107.871 194.677 106.687C193.344 105.581 191.54 102.263 189.422 102.895C182.912 104.87 191.07 114.586 193.736 116.561C197.736 119.642 203.305 119.721 208.09 120.432C214.207 121.38 220.482 121.222 226.678 122.169C231.463 122.959 237.032 125.961 240.953 129.832Z" fill="#DFB28B"/>
<path d="M214.679 110.952C214.679 110.952 215.071 110.873 215.699 110.636C216.326 110.399 217.267 110.083 218.365 109.451C220.562 108.187 223.385 105.818 226.287 102.579C229.189 99.34 232.17 95.2323 235.307 90.7296C236.876 88.4388 238.444 86.148 240.013 83.7781C241.66 81.4083 243.229 78.9595 245.268 76.5896C246.209 75.4047 247.7 74.1408 249.268 73.5089C250.759 72.7979 252.327 72.4029 253.817 72.087C256.798 71.455 259.778 71.06 262.524 70.7441C265.347 70.5071 268.014 70.2701 270.602 70.2701C273.112 70.2701 275.544 70.1911 277.74 70.1911C282.132 70.1121 285.818 70.0331 288.407 69.8751C290.995 69.7171 292.485 69.5591 292.485 69.5591L292.564 69.9541C292.564 69.9541 291.23 70.6651 288.642 71.455C286.132 72.3239 282.367 73.1139 277.897 73.7458C275.622 73.9828 273.191 74.2988 270.681 74.4568C268.092 74.6148 265.426 74.6938 262.68 74.7728C259.935 74.8518 257.112 74.9308 254.288 75.3257C252.876 75.5627 251.543 75.7997 250.366 76.2737C249.19 76.7476 248.249 77.3796 247.307 78.4065C245.425 80.4604 243.699 82.8302 241.974 85.121C240.248 87.4119 238.523 89.7027 236.876 91.9146C233.503 96.2593 230.209 100.288 227.072 103.448C223.934 106.608 220.875 108.898 218.522 110.004C217.346 110.557 216.326 110.952 215.62 111.11C214.914 111.268 214.601 111.347 214.601 111.347L214.679 110.952Z" fill="#CF9E76"/>
<path d="M287.23 150.133C286.445 150.054 285.583 149.975 284.877 149.817C283.543 149.423 282.132 148.949 280.798 148.554C273.19 146.658 264.641 146.026 256.798 147.29C255.621 147.448 253.033 147.29 252.17 147.764C258.209 144.762 263.072 142.55 266.288 136.546C268.719 132.044 271.072 127.225 272.249 122.643C273.974 116.008 274.288 108.266 274.524 101.394C274.602 98.6291 272.641 82.5933 276.092 81.4873C278.916 80.5394 280.877 93.0205 281.034 94.6794C281.818 104.317 279.308 117.43 275.073 126.119C273.347 129.753 270.131 133.308 270.131 137.415C270.131 140.101 271.7 142.234 273.896 143.656C276.484 145.315 279.543 146.737 282.445 147.843C284.563 148.712 286.681 149.423 288.798 150.449C288.249 150.291 287.779 150.133 287.23 150.133Z" fill="#DFB28B"/>
<path d="M349.034 118.141C349.034 118.141 344.799 115.455 338.21 111.821C331.544 108.266 322.681 103.685 313.347 99.972C310.994 99.0241 308.641 98.2341 306.366 97.3652C304.013 96.5752 301.739 95.8643 299.543 95.1533C297.347 94.4424 295.229 93.7314 293.19 93.0995C291.15 92.5465 289.189 91.9146 287.464 91.3616C285.66 90.9666 284.013 90.4927 282.523 90.0977C281.032 89.6237 279.777 89.4657 278.679 89.2288C276.483 88.7548 275.307 88.4388 275.307 88.4388L275.307 88.0438C275.307 88.0438 276.562 87.8859 278.836 87.8069C279.934 87.8069 281.346 87.5699 282.915 87.8069C284.483 87.8859 286.287 88.0438 288.17 88.2808C290.052 88.5968 292.091 88.9918 294.288 89.3868C296.484 89.8607 298.68 90.5717 300.954 91.2826C303.229 92.0726 305.504 93.0205 307.857 93.9684C310.131 95.0743 312.484 96.0223 314.759 97.1282C317.033 98.2341 319.308 99.34 321.504 100.525C323.7 101.71 325.896 102.816 327.936 104.001C332.093 106.292 335.779 108.661 338.995 110.715C345.348 114.823 349.348 117.904 349.348 117.904L349.034 118.141Z" fill="#CF9E76"/>
<path d="M340.722 135.993C340.722 135.993 339.702 135.599 337.82 134.888C336.016 134.177 333.349 133.308 330.29 131.886C328.721 131.254 327.074 130.464 325.27 129.753C323.466 128.963 321.662 128.094 319.78 127.225C316.015 125.408 312.015 123.512 307.936 121.616C305.897 120.748 303.858 119.879 301.897 119.01C299.858 118.141 297.897 117.351 296.014 116.64C294.132 115.85 292.328 114.981 290.602 114.27C288.877 113.638 287.23 112.927 285.661 112.295C284.171 111.663 282.759 111.031 281.426 110.715C280.171 110.32 279.073 109.925 278.132 109.609C276.249 108.977 275.229 108.503 275.229 108.503L275.308 108.108C275.308 108.108 276.406 108.108 278.445 108.187C279.465 108.187 280.641 108.266 282.053 108.424C283.465 108.503 285.034 108.819 286.681 109.214C288.328 109.609 290.132 110.083 292.093 110.636C293.975 111.189 295.858 112.058 297.818 112.848C299.779 113.717 301.74 114.586 303.701 115.692C305.662 116.719 307.623 117.825 309.583 118.852C317.427 123.196 325.113 127.62 330.996 130.78C333.898 132.439 336.486 133.545 338.212 134.414C339.937 135.283 340.957 135.757 340.957 135.757L340.722 135.993Z" fill="#CF9E76"/>
<path d="M329.349 147.527C329.349 147.527 328.407 147.369 326.76 147.053C325.897 146.895 324.956 146.737 323.78 146.5C322.603 146.342 321.348 145.868 319.937 145.473C317.113 144.762 313.897 143.735 310.446 142.55C306.995 141.365 303.387 140.022 299.779 138.758C296.171 137.494 292.563 136.309 289.191 135.125C287.543 134.493 285.896 133.861 284.406 133.229C282.916 132.676 281.504 132.044 280.171 131.491C278.837 130.938 277.661 130.385 276.563 129.99C275.465 129.595 274.523 129.2 273.739 128.884C272.17 128.252 271.308 127.778 271.308 127.778L271.386 127.383C271.386 127.383 272.327 127.383 274.053 127.462C275.778 127.541 278.288 127.699 281.112 128.41C282.524 128.726 284.092 129.121 285.739 129.516C287.387 129.911 289.034 130.543 290.681 131.175C292.328 131.886 294.132 132.518 295.779 133.387C297.504 134.177 299.23 134.967 301.034 135.756C304.564 137.336 308.015 138.916 311.309 140.338C314.603 141.76 317.662 143.103 320.329 144.051C321.662 144.525 322.839 145.078 324.015 145.394C325.113 145.71 326.133 146.026 326.917 146.263C328.564 146.737 329.427 147.053 329.427 147.053L329.349 147.527Z" fill="#CF9E76"/>
<path d="M158.912 242.557C158.912 242.557 158.912 242.32 158.991 241.925C160.481 234.42 176.952 161.667 256.954 203.534C256.954 203.534 276.876 209.853 284.406 209.695C291.857 209.537 294.524 194.607 297.661 186.629C300.799 178.65 307.544 177.149 309.191 178.413C310.838 179.677 308.799 185.681 308.799 185.681C308.799 185.681 314.995 169.803 324.721 172.568C328.015 173.516 326.368 179.519 326.368 179.519C326.368 179.519 332.172 165.458 341.506 168.144C345.741 169.329 343.153 178.808 343.153 178.808C343.153 178.808 348.251 176.202 350.526 180.309C353.349 185.365 337.349 216.568 330.368 227.232C321.897 240.187 297.426 259.541 278.288 259.462C255.778 259.225 195.933 218.148 158.912 242.557Z" fill="#ECC19C"/>
<path d="M285.74 213.803C285.74 213.803 281.348 218.78 284.093 221.544C288.328 225.889 299.544 225.573 299.544 225.573C299.544 225.573 305.741 219.807 300.721 214.83C298.054 212.223 285.74 213.803 285.74 213.803Z" fill="#F0D0B4"/>
<path d="M234.993 227.864C234.993 227.864 235.542 227.706 236.483 227.469C237.503 227.232 238.915 226.916 240.797 226.6C242.68 226.284 244.954 226.047 247.621 225.889C250.288 225.81 253.268 225.573 256.562 225.81C259.857 225.889 263.386 226.363 267.073 226.837C268.955 226.995 270.837 227.548 272.798 227.943C274.681 228.338 276.641 228.812 278.681 229.286C280.72 229.839 282.681 230.155 284.642 230.392C286.681 230.55 288.72 230.629 290.76 230.313C294.76 229.839 298.838 228.18 301.427 225.099C302.681 223.598 303.701 221.781 303.936 219.885C303.936 219.412 304.093 218.859 304.015 218.543C304.015 218.306 304.015 217.911 303.936 217.753C303.858 217.595 303.78 217.437 303.78 217.279C303.387 216.568 302.76 215.936 301.976 215.383C298.681 213.329 294.367 212.697 290.446 212.46C289.426 212.381 288.485 212.381 287.465 212.381C286.367 212.381 285.426 212.381 284.485 212.302C282.446 212.065 280.485 211.749 278.681 211.275C274.994 210.406 271.622 209.3 268.563 208.194C262.367 205.982 257.504 203.613 254.053 201.954C250.601 200.295 248.641 199.347 248.641 199.347C248.641 199.347 250.68 200.137 254.209 201.559C257.739 202.981 263.151 204.403 269.033 206.772C272.092 207.799 275.465 208.905 279.073 209.616C280.877 209.932 282.759 210.248 284.563 210.327C285.504 210.327 286.603 210.327 287.465 210.406C288.485 210.406 289.505 210.406 290.524 210.406C294.681 210.643 299.073 211.117 303.152 213.566C304.172 214.277 305.113 215.067 305.74 216.331C305.897 216.647 305.976 217.042 306.133 217.437C306.211 217.753 306.211 217.99 306.289 218.306C306.368 219.096 306.211 219.569 306.211 220.201C305.897 222.65 304.721 224.862 303.23 226.6C300.093 230.234 295.466 231.972 291.073 232.446C288.877 232.762 286.681 232.604 284.485 232.446C282.289 232.209 280.171 231.735 278.289 231.182C276.328 230.708 274.367 230.234 272.484 229.76C270.602 229.286 268.798 228.733 266.916 228.496C263.229 227.864 259.778 227.232 256.562 227.074C253.347 226.758 250.366 226.758 247.699 226.679C245.033 226.758 242.758 226.837 240.876 226.995C238.993 227.153 237.503 227.311 236.483 227.548C235.542 227.785 234.993 227.864 234.993 227.864Z" fill="#CF9E76"/>
<path d="M309.113 184.891C309.113 184.891 306.917 192.079 304.564 199.268C303.309 202.823 302.132 206.377 300.956 209.063C300.642 209.695 300.407 210.327 300.172 210.88C299.936 211.433 299.623 211.986 299.387 212.381C298.917 213.25 298.603 213.724 298.603 213.724L296.015 211.354C296.015 211.354 296.25 211.038 296.642 210.485C296.877 210.169 297.113 209.932 297.348 209.458C297.583 208.984 297.897 208.431 298.289 207.799C299.623 205.429 301.27 202.033 302.917 198.636C306.133 191.763 309.113 184.891 309.113 184.891Z" fill="#CF9E76"/>
<path d="M326.369 179.519C326.369 179.519 322.683 189.552 317.585 199.031C316.33 201.401 314.996 203.692 313.663 205.903C312.33 208.036 310.918 210.011 309.663 211.591C309.035 212.381 308.408 213.092 307.859 213.724C307.31 214.356 306.761 214.909 306.369 215.304C305.506 216.173 304.957 216.647 304.957 216.647L302.761 213.882C302.761 213.882 303.231 213.487 304.094 212.776C304.486 212.46 305.035 211.986 305.584 211.433C306.133 210.88 306.761 210.248 307.467 209.537C308.8 208.115 310.29 206.377 311.702 204.403C313.192 202.428 314.683 200.295 316.094 198.004C321.899 189.236 326.369 179.519 326.369 179.519Z" fill="#CF9E76"/>
<path d="M343.154 178.729C343.154 178.729 342.135 178.887 340.645 179.914C339.154 180.941 337.35 182.758 335.546 185.286C333.742 187.735 331.938 190.895 330.213 194.291C328.566 197.767 326.84 201.559 324.879 205.192C321.036 212.539 316.409 219.569 311.546 223.914C309.114 226.126 306.604 227.469 304.644 228.101C303.624 228.417 302.84 228.496 302.291 228.575C301.741 228.575 301.428 228.654 301.428 228.654L301.506 225.099C301.506 225.099 301.741 225.099 302.134 225.099C302.526 225.099 303.075 225.02 303.859 224.862C305.349 224.546 307.467 223.519 309.742 221.702C314.291 218.069 319.232 211.354 323.311 204.324C325.428 200.848 327.232 197.135 329.193 193.738C331.154 190.342 333.193 187.34 335.154 184.97C337.115 182.521 339.076 180.783 340.645 179.835C342.056 178.808 343.154 178.729 343.154 178.729Z" fill="#CF9E76"/>
<path d="M285.74 213.803C285.74 213.803 289.74 217.437 284.093 221.544C284.015 221.465 281.348 218.227 285.74 213.803Z" fill="#F5E0CD"/>
<path d="M285.426 172.41C285.426 168.144 284.798 164.273 284.093 160.245C283.779 158.191 283.465 156.216 283.151 154.083L285.426 153.767C285.661 155.821 285.975 157.875 286.367 159.85C286.995 163.799 287.701 167.907 287.701 172.41L285.426 172.41Z" fill="#8FB833"/>
<path d="M333.034 135.598C319.621 139.785 284.954 138.837 284.797 179.045L284.797 208.431L287.856 208.431L287.856 179.203C333.426 177.544 330.053 138.6 333.034 135.598Z" fill="#8FB833"/>
<path d="M250.443 146.263C257.11 147.448 276.562 147.448 281.582 179.203C259.934 180.704 250.443 146.263 250.443 146.263Z" fill="#8FB833"/>
<path d="M266.366 111.426C266.366 111.426 257.189 145.236 283.307 154.478C283.543 154.557 283.7 154.636 283.935 154.715C283.935 154.636 283.935 154.636 283.935 154.557L283.935 154.636C284.327 155.031 284.641 154.794 284.876 154.399L284.876 154.478C297.896 124.144 273.895 115.455 266.366 111.426Z" fill="#8FB833"/>
<path d="M286.993 188.604L284.719 188.525C284.797 186.55 283.777 184.496 282.993 183.153C282.522 182.284 281.973 181.415 281.346 180.546C281.032 180.072 280.64 179.756 280.326 179.361C280.013 178.966 279.62 178.65 279.307 178.255L281.111 176.834C281.424 177.15 281.66 177.466 281.973 177.781C282.366 178.255 282.836 178.729 283.228 179.203C283.934 180.151 284.483 181.099 285.032 182.047C285.895 183.627 287.072 186.076 286.993 188.604Z" fill="#8FB833"/>
<path d="M286.68 174.148C286.68 174.148 286.68 173.279 286.68 171.778C286.68 170.988 286.837 170.119 286.993 169.013C287.072 167.907 287.386 166.801 287.778 165.537C288.092 164.273 288.719 162.93 289.268 161.509C289.974 160.166 290.601 158.665 291.543 157.322C292.405 155.9 293.425 154.557 294.523 153.214C295.072 152.582 295.7 151.95 296.249 151.318C296.562 151.002 296.798 150.686 297.19 150.37L298.131 149.501C299.308 148.316 300.955 147.29 302.366 146.342C303.151 145.868 303.857 145.473 304.563 145.078C305.347 144.683 306.053 144.367 306.837 144.051C308.406 143.34 309.896 143.024 311.308 142.55C312.641 142.155 314.053 141.681 315.308 141.365C317.818 140.733 319.857 140.259 321.347 139.943C322.838 139.627 323.622 139.469 323.622 139.469C323.622 139.469 322.838 139.864 321.426 140.417C320.014 140.97 318.053 141.839 315.622 142.708C314.445 143.182 313.19 143.656 311.857 144.209C310.524 144.762 308.955 145.315 307.621 145.947C306.916 146.342 306.21 146.658 305.504 147.053C304.798 147.448 304.17 147.922 303.465 148.316C302.131 149.264 300.876 150.133 299.543 151.318L298.602 152.187C298.366 152.345 298.053 152.74 297.739 153.056C297.19 153.688 296.562 154.241 296.013 154.873C294.994 156.137 293.896 157.322 293.033 158.665C292.092 159.929 291.386 161.272 290.601 162.456C289.974 163.72 289.268 164.905 288.876 166.09C288.405 167.275 287.935 168.302 287.699 169.329C287.386 170.277 287.15 171.146 286.993 171.936C286.837 173.279 286.68 174.148 286.68 174.148Z" fill="#A8D06F"/>
<path d="M268.406 114.191C268.406 114.191 268.563 114.27 268.72 114.507C268.955 114.744 269.347 114.902 269.74 115.218C270.681 115.771 272.093 116.482 273.661 117.509C274.446 117.983 275.308 118.536 276.25 119.168C277.112 119.8 278.054 120.511 278.995 121.301C279.465 121.696 279.936 122.091 280.407 122.485C280.956 123.038 281.269 123.433 281.662 123.907C282.524 124.776 283.152 125.961 283.936 127.146C284.642 128.331 285.034 129.516 285.583 130.701C285.975 131.886 286.289 133.15 286.603 134.335C286.838 135.52 286.995 136.704 287.152 137.81C287.23 138.916 287.23 139.943 287.309 140.891C287.309 141.839 287.152 142.708 287.152 143.498C287.152 144.288 286.917 144.92 286.838 145.473C286.603 146.579 286.446 147.211 286.446 147.211C286.446 147.211 286.368 146.579 286.368 145.473C286.368 144.92 286.368 144.288 286.289 143.498C286.211 142.708 286.132 141.918 286.054 140.97C285.897 140.022 285.74 139.074 285.505 138.047C285.269 137.02 284.956 135.915 284.72 134.809C284.328 133.703 283.936 132.597 283.544 131.491C282.995 130.464 282.603 129.279 281.975 128.252C281.348 127.225 280.877 126.277 280.014 125.329C279.622 124.855 279.309 124.46 278.916 123.986C278.446 123.591 278.054 123.196 277.661 122.801C276.799 122.012 276.014 121.301 275.23 120.511C274.367 119.8 273.661 119.168 272.877 118.536C271.465 117.272 270.289 116.245 269.426 115.534C268.642 114.744 268.485 114.112 268.406 114.191Z" fill="#A8D06F"/>
<path d="M253.188 148.159C253.188 148.159 253.815 148.238 254.835 148.475C255.854 148.712 257.423 149.028 259.227 149.422C259.462 149.501 259.697 149.501 259.933 149.58C260.325 149.659 260.403 149.738 260.717 149.896C261.188 150.054 261.658 150.291 262.129 150.528C262.6 150.765 263.149 150.923 263.619 151.16C264.09 151.397 264.639 151.792 265.109 152.108C266.129 152.74 267.227 153.372 268.168 154.241C269.11 155.11 270.129 155.821 270.914 156.848C271.698 157.875 272.639 158.744 273.345 159.85C274.051 160.877 274.678 161.825 275.227 162.852C275.776 163.957 276.247 164.984 276.718 165.932C277.267 166.88 277.424 167.907 277.737 168.855C277.973 169.724 278.286 170.593 278.365 171.304C278.443 172.094 278.6 172.726 278.678 173.279C278.835 174.385 278.835 174.938 278.835 174.938C278.835 174.938 278.6 174.385 278.208 173.358C278.051 172.884 277.816 172.252 277.58 171.541C277.345 170.83 276.874 170.119 276.561 169.329C276.169 168.539 275.855 167.591 275.227 166.722C274.678 165.853 274.129 164.905 273.58 163.957C272.874 163.01 272.247 162.062 271.541 161.114C270.914 160.166 270.051 159.376 269.266 158.428C268.561 157.48 267.541 156.769 266.757 155.979C265.894 155.11 265.031 154.557 264.168 153.846C263.698 153.53 263.305 153.214 262.835 152.898C262.364 152.661 261.894 152.345 261.423 152.108C260.952 151.871 260.482 151.634 260.09 151.318C259.933 151.239 259.619 151.002 259.541 151.002C259.305 150.923 259.07 150.844 258.913 150.765C257.188 150.054 255.854 149.422 254.835 148.949C253.737 148.475 253.188 148.159 253.188 148.159Z" fill="#A8D06F"/>
<path d="M267.777 117.588C267.777 117.588 261.659 141.523 282.209 151.002C281.581 133.703 267.777 117.588 267.777 117.588Z" fill="#96C333"/>
<path d="M304.955 162.22C303.778 161.904 302.523 161.746 301.268 161.825C299.857 161.983 298.209 162.773 296.876 162.694C295.778 162.694 295.386 162.22 296.406 161.114C300.876 156.374 307.386 157.559 313.112 158.112C314.994 158.27 317.818 158.902 317.347 161.43C317.112 162.852 315.465 163.484 314.21 163.72C310.837 164.51 307.935 163.01 304.955 162.22Z" fill="#96C333"/>
<path d="M321.111 153.293C320.248 153.451 319.386 153.451 318.601 153.451C317.111 153.372 315.621 153.056 314.209 152.819C312.483 152.424 310.601 152.108 308.797 152.187C308.326 152.187 306.052 152.819 306.366 151.713C306.522 151.002 308.797 150.212 309.424 149.896C310.679 149.423 312.091 149.186 313.425 149.028C315.621 148.791 317.817 148.791 320.091 148.554C321.033 148.475 322.444 148.317 323.307 148.712C324.719 149.423 324.013 151.634 322.993 152.503C322.444 152.898 321.739 153.214 321.111 153.293Z" fill="#96C333"/>
<path d="M305.033 168.934C306.21 169.329 306.994 169.803 306.445 170.277C305.661 170.909 304.641 170.593 303.7 170.751C302.916 170.83 302.288 171.067 301.504 171.067C299.386 171.225 297.19 171.462 295.151 172.173C294.131 172.489 289.896 175.807 289.66 173.437C289.425 171.383 293.425 168.539 294.994 167.907C297.033 167.038 299.072 167.512 301.112 167.986C301.504 168.144 303.543 168.46 305.033 168.934Z" fill="#96C333"/>
<path d="M255.385 151.95C259.15 152.977 269.66 153.846 276.797 174.938C265.346 174.938 255.385 151.95 255.385 151.95Z" fill="#96C333"/>
<path d="M287.15 175.807C287.15 175.807 287.386 174.938 287.856 173.437C288.327 171.936 288.954 169.803 289.974 167.275C290.445 166.011 291.072 164.668 291.778 163.247C292.562 161.904 293.268 160.403 294.209 158.981C295.151 157.559 296.249 156.137 297.425 154.794C298.053 154.162 298.68 153.53 299.308 152.819C300.014 152.108 300.719 151.634 301.347 151.002C302.68 149.817 304.327 148.87 305.818 147.922C307.386 147.053 308.955 146.263 310.524 145.631C313.583 144.288 316.563 143.34 319.073 142.392C320.328 141.918 321.504 141.523 322.446 141.207C323.465 140.891 324.328 140.496 325.034 140.18C326.446 139.548 327.308 139.232 327.308 139.232C327.308 139.232 326.603 139.706 325.269 140.575C324.642 140.97 323.779 141.444 322.838 141.997C321.897 142.471 320.798 143.103 319.544 143.656C317.112 144.841 314.288 146.026 311.308 147.527C309.818 148.238 308.406 149.107 306.916 149.896C305.504 150.844 304.092 151.634 302.759 152.898C302.131 153.451 301.268 154.004 300.798 154.557C300.17 155.189 299.621 155.742 298.994 156.374C297.896 157.638 296.719 158.902 295.857 160.245C294.837 161.509 294.053 162.931 293.268 164.115C292.562 165.458 291.778 166.643 291.229 167.828C289.974 170.198 289.033 172.173 288.327 173.595C287.543 175.017 287.15 175.807 287.15 175.807Z" fill="#78AB1D"/>
<path d="M290.681 168.144C290.681 168.144 290.838 167.749 291.151 167.196C291.23 166.88 291.622 166.564 291.936 166.169C292.249 165.774 292.798 165.537 293.269 165.142C293.818 164.905 294.445 164.51 295.073 164.352C295.779 164.115 296.485 163.957 297.191 163.878C297.975 163.8 298.759 163.721 299.544 163.8L300.171 163.8L300.799 163.878L301.897 164.036C302.603 164.115 303.387 164.352 304.171 164.589C304.956 164.826 305.661 165.063 306.289 165.221C306.995 165.458 307.622 165.695 308.25 165.774C308.877 165.932 309.426 166.169 309.975 166.248C310.524 166.327 310.995 166.485 311.466 166.564C311.936 166.643 312.328 166.643 312.642 166.643C313.348 166.722 313.74 166.801 313.74 166.801C313.74 166.801 313.348 166.959 312.721 167.117C312.407 167.196 312.015 167.354 311.544 167.433C311.073 167.512 310.524 167.512 309.897 167.591C309.269 167.67 308.642 167.591 307.936 167.512C307.23 167.512 306.524 167.354 305.897 167.196C305.191 167.038 304.407 166.959 303.779 166.801C303.073 166.643 302.367 166.485 301.583 166.406L300.485 166.248L300.014 166.169L299.465 166.09C298.759 166.011 298.053 166.011 297.426 166.011C296.72 166.011 296.093 166.011 295.544 166.09C294.916 166.169 294.367 166.327 293.896 166.406C293.426 166.643 292.877 166.722 292.563 166.88C292.249 167.117 291.857 167.196 291.622 167.512C290.994 167.907 290.681 168.144 290.681 168.144Z" fill="#78AB1D"/>
<path d="M297.581 157.48C297.581 157.48 297.895 157.243 298.444 156.769C298.758 156.532 299.071 156.216 299.542 155.979C300.012 155.742 300.483 155.426 301.032 155.11C301.581 154.873 302.287 154.557 302.993 154.32C303.777 154.083 304.405 153.925 305.346 153.688C306.13 153.609 306.915 153.53 307.777 153.53C308.64 153.609 309.581 153.609 310.444 153.767C311.229 153.925 312.091 154.083 312.876 154.241C313.268 154.32 313.66 154.399 314.052 154.478L314.601 154.636L315.15 154.715C315.935 154.794 316.719 155.031 317.346 155.031C317.974 155.031 318.601 155.189 319.229 155.11C319.778 155.11 320.405 155.031 320.876 155.031C321.346 154.952 321.817 154.873 322.131 154.873C322.837 154.794 323.307 154.715 323.307 154.715C323.307 154.715 322.994 154.952 322.288 155.268C321.974 155.426 321.582 155.663 321.111 155.9C320.641 156.058 320.092 156.216 319.386 156.453C318.758 156.69 318.052 156.69 317.268 156.769C316.484 156.848 315.778 156.769 314.993 156.769L314.444 156.769L313.817 156.69C313.425 156.611 313.032 156.611 312.64 156.532C311.856 156.374 311.072 156.295 310.209 156.137C309.425 155.979 308.719 155.979 307.934 155.821C307.15 155.821 306.366 155.821 305.581 155.821C304.875 155.9 304.169 155.979 303.542 156.058C302.915 156.216 302.287 156.295 301.66 156.453C301.111 156.611 300.562 156.769 300.091 156.927C299.62 157.006 299.228 157.243 298.836 157.322C297.973 157.401 297.581 157.48 297.581 157.48Z" fill="#78AB1D"/>
<path d="M311.31 146.816C311.31 146.816 312.329 146.579 313.741 146.342C314.133 146.263 314.525 146.263 314.918 146.184C315.388 146.184 315.78 146.026 316.251 145.947C317.114 145.789 318.055 145.631 318.996 145.552C319.937 145.315 320.878 145.157 321.741 144.999C322.212 144.92 322.604 144.92 322.996 144.762C323.388 144.604 323.781 144.525 324.094 144.446C325.506 144.13 326.526 143.972 326.526 143.972C326.526 143.972 325.741 144.604 324.408 145.394C324.094 145.552 323.702 145.789 323.31 146.026C322.918 146.263 322.447 146.342 322.055 146.5C321.114 146.816 320.173 147.053 319.153 147.29C318.133 147.369 317.114 147.448 316.172 147.527C315.231 147.606 314.368 147.448 313.584 147.369C312.329 147.053 311.31 146.816 311.31 146.816Z" fill="#78AB1D"/>
<path d="M270.68 119.326C270.68 119.326 271.072 119.799 271.778 120.589C272.405 121.379 273.503 122.485 274.523 123.986C275.621 125.408 276.876 127.146 278.052 129.121C278.601 130.069 279.307 131.096 279.856 132.202C280.405 133.308 280.955 134.413 281.504 135.519C281.896 136.704 282.366 137.81 282.758 138.995C283.229 140.101 283.386 141.365 283.7 142.471C284.013 143.577 284.249 144.683 284.327 145.71C284.406 146.737 284.562 147.763 284.562 148.632C284.719 149.58 284.562 150.37 284.562 151.16C284.484 151.871 284.484 152.582 284.484 153.056C284.406 154.083 284.327 154.715 284.327 154.715C284.327 154.715 284.17 154.083 284.013 153.056C283.935 152.503 283.857 151.871 283.7 151.16C283.543 150.449 283.543 149.659 283.229 148.79C282.994 147.921 282.758 146.974 282.602 146.026C282.445 144.999 282.053 144.051 281.739 142.945C281.347 141.918 281.111 140.812 280.641 139.706C280.249 138.6 279.778 137.573 279.386 136.467C278.366 134.334 277.425 132.202 276.327 130.227C275.778 129.279 275.307 128.252 274.837 127.383C274.366 126.514 273.895 125.645 273.425 124.855C272.562 123.275 271.856 121.932 271.386 120.984C270.915 119.878 270.68 119.326 270.68 119.326Z" fill="#78AB1D"/>
<path d="M271.541 140.891C271.541 140.891 271.698 141.128 272.012 141.365C272.247 141.602 272.796 141.918 273.423 142.155C273.737 142.313 274.129 142.471 274.443 142.629C274.835 142.787 275.227 142.945 275.62 143.103C276.482 143.419 277.345 143.814 278.208 144.209C278.6 144.367 279.071 144.604 279.463 144.762C279.933 144.92 280.326 145.236 280.718 145.473C281.502 145.947 282.286 146.5 282.757 147.132C282.992 147.448 283.228 147.685 283.385 148.001C283.541 148.317 283.698 148.553 283.698 148.711C283.855 149.185 283.855 149.422 283.855 149.422C283.855 149.422 283.698 149.264 283.385 148.948C283.149 148.632 282.679 148.238 282.13 147.922C281.581 147.527 280.875 147.211 280.09 146.895C279.228 146.579 278.365 146.184 277.502 145.868C276.639 145.473 275.776 144.999 274.992 144.525C274.6 144.288 274.208 144.051 273.894 143.814C273.58 143.577 273.188 143.34 272.953 143.103C272.404 142.629 272.012 142.076 271.776 141.681C271.541 141.128 271.619 140.812 271.541 140.891Z" fill="#78AB1D"/>
<path d="M267.776 120.905C267.776 120.905 267.855 121.063 267.933 121.458C267.933 121.616 268.09 121.774 268.247 122.011C268.325 122.169 268.561 122.406 268.718 122.643C269.031 123.117 269.58 123.512 270.129 123.986C270.365 124.223 270.678 124.46 270.992 124.618C271.306 124.855 271.541 125.092 271.933 125.25C272.561 125.724 273.188 126.04 273.816 126.435C274.443 126.83 274.992 127.304 275.463 127.778C275.933 128.252 276.169 128.647 276.326 128.963C276.483 129.279 276.561 129.437 276.561 129.437C276.561 129.437 276.404 129.279 276.169 129.042C275.933 128.805 275.541 128.489 275.071 128.173C274.6 127.857 273.973 127.541 273.345 127.225C272.718 126.909 271.933 126.514 271.306 126.119C269.973 125.171 268.796 124.065 268.247 122.88C268.09 122.564 267.933 122.327 267.933 122.09C267.855 121.853 267.776 121.616 267.855 121.458C267.776 121.142 267.776 120.905 267.776 120.905Z" fill="#78AB1D"/>
<path d="M268.484 130.464C268.484 130.464 268.641 130.622 269.033 131.017C269.347 131.412 269.896 131.728 270.524 132.202C271.779 133.071 273.739 133.782 275.7 134.651C277.583 135.519 279.622 136.625 280.72 137.889C281.034 138.205 281.191 138.521 281.347 138.837C281.504 139.153 281.661 139.39 281.661 139.627C281.818 140.101 281.897 140.338 281.897 140.338C281.897 140.338 281.74 140.101 281.504 139.706C281.269 139.311 280.798 138.837 280.249 138.363C279.073 137.336 277.191 136.546 275.23 135.677C273.347 134.809 271.308 133.861 270.131 132.676C269.504 132.123 269.112 131.491 268.877 131.096C268.641 130.701 268.484 130.464 268.484 130.464Z" fill="#78AB1D"/>
<path d="M288.171 177.544C288.171 177.544 288.877 177.387 290.053 177.229C290.681 177.15 291.387 177.071 292.171 176.913C293.034 176.834 293.897 176.597 294.916 176.36C295.857 176.123 296.877 175.886 297.975 175.649C299.073 175.254 300.25 174.859 301.426 174.385C302.681 173.99 303.779 173.358 305.034 172.884C305.662 172.647 306.289 172.41 306.838 172.094L308.642 171.225C309.975 170.672 310.917 169.961 312.093 169.408C313.113 168.618 314.289 168.065 315.231 167.196C316.25 166.485 317.191 165.695 318.054 164.905C318.917 164.194 319.701 163.405 320.486 162.694C321.27 161.983 321.819 161.351 322.446 160.719C323.074 160.166 323.544 159.613 323.937 159.139C324.721 158.27 325.27 157.796 325.27 157.796C325.27 157.796 324.956 158.428 324.329 159.455C324.015 160.008 323.623 160.561 323.152 161.272C322.682 161.983 322.211 162.773 321.505 163.562C320.878 164.352 320.172 165.3 319.309 166.09C318.917 166.564 318.446 166.959 318.054 167.433C317.584 167.828 317.113 168.302 316.642 168.697C315.701 169.566 314.525 170.356 313.427 171.146C312.25 171.857 310.995 172.726 309.74 173.2L307.858 174.069C307.23 174.306 306.603 174.543 305.897 174.859C304.642 175.333 303.387 175.886 302.132 176.202C300.877 176.518 299.701 176.834 298.603 177.15C297.269 177.308 296.25 177.466 295.151 177.544C294.132 177.623 293.191 177.781 292.328 177.702C291.465 177.702 290.759 177.623 290.132 177.623C288.798 177.623 288.171 177.544 288.171 177.544Z" fill="#78AB1D"/>
<path d="M261.896 165.458C261.896 165.458 262.994 166.248 264.562 167.67C265.347 168.381 266.209 169.25 267.151 170.119C267.621 170.593 268.092 170.988 268.562 171.462C269.033 171.936 269.582 172.252 270.053 172.726L270.837 173.358L270.994 173.516C270.994 173.516 271.151 173.595 270.994 173.516L271.072 173.595L271.543 173.832C272.092 174.148 272.719 174.543 273.268 174.859C274.366 175.333 275.386 175.886 276.327 176.202C277.269 176.597 278.053 176.913 278.602 177.15C279.151 177.387 279.465 177.545 279.465 177.545C279.465 177.545 278.053 177.466 276.014 177.15C274.994 176.992 273.817 176.676 272.484 176.202C271.857 175.965 271.308 175.649 270.68 175.333L270.209 175.096L270.131 175.017C269.974 174.938 270.053 174.938 269.974 174.938L269.739 174.78L268.876 174.148C268.327 173.674 267.778 173.279 267.307 172.726C266.837 172.252 266.366 171.699 265.974 171.225C265.111 170.277 264.405 169.25 263.778 168.46C262.68 166.643 261.896 165.458 261.896 165.458Z" fill="#78AB1D"/>
<path d="M257.267 202.507C257.503 202.112 257.816 201.717 258.13 201.401C258.287 201.164 258.366 201.085 258.679 200.769L259.15 200.295C259.777 199.663 260.64 199.031 261.424 198.399C262.287 197.925 263.072 197.372 263.934 197.056C264.797 196.661 265.581 196.345 266.444 196.187C266.836 196.108 267.229 195.95 267.621 195.95C268.013 195.95 268.405 195.871 268.797 195.871C269.503 195.792 270.209 195.871 270.758 195.95C271.385 196.029 271.856 196.108 272.248 196.345C273.033 196.661 273.425 196.898 273.425 196.898C273.425 196.898 272.954 196.898 272.17 196.819C271.778 196.74 271.307 196.819 270.758 196.898C270.209 196.977 269.66 197.056 268.954 197.214C268.327 197.372 267.621 197.609 266.915 197.925C266.209 198.162 265.503 198.557 264.797 198.952C264.091 199.268 263.385 199.9 262.679 200.295C262.052 200.848 261.424 201.243 260.719 201.954L260.248 202.428C260.169 202.428 260.013 202.744 259.856 202.902C259.699 203.139 259.464 203.376 259.307 203.613C259.62 203.692 259.934 203.85 260.248 203.929C261.189 204.245 262.13 204.561 263.072 204.877C264.248 203.455 265.817 202.27 267.229 201.638C270.993 199.979 276.248 199.11 277.582 204.166C277.895 205.272 277.817 206.299 277.582 207.325C279.386 206.22 281.896 205.904 284.405 206.535C285.111 206.693 285.739 206.93 286.366 207.246C279.15 189.71 263.15 189.789 255.071 202.112C255.777 202.428 256.483 202.665 257.189 202.902C257.189 202.665 257.189 202.586 257.267 202.507Z" fill="#694B30"/>
<path d="M306.211 218.937C306.29 220.675 305.741 222.571 305.035 224.072C304.721 224.704 304.407 225.336 304.015 225.889C303.231 226.995 302.211 227.785 301.27 228.733C301.976 228.97 302.917 228.733 303.623 228.654C304.407 228.496 305.192 228.259 305.976 228.022C306.839 227.785 307.623 227.469 308.408 227.074C309.741 226.363 310.839 225.257 311.937 224.309C312.878 223.44 313.741 222.413 314.133 221.07C314.604 219.727 314.055 217.99 313.427 216.805C313.27 216.489 313.035 216.094 312.8 215.857C311.859 214.909 310.368 214.988 309.741 213.724C309.113 212.618 309.113 211.275 308.564 210.09C308.094 208.984 307.545 208.115 306.76 207.167C305.192 205.192 303.231 203.534 301.035 202.428C295.544 199.821 290.603 203.455 287.23 207.799C288.485 208.668 289.427 209.774 290.054 210.959C290.525 210.959 290.995 211.038 291.466 211.038C290.995 210.327 290.917 209.3 291.466 207.878C293.427 203.455 303.231 204.007 301.741 208.747C301.662 208.984 301.505 209.3 301.349 209.616C300.799 210.643 299.623 211.433 298.29 211.907C299.231 212.144 300.094 212.46 300.956 212.855C301.27 212.618 301.505 212.46 301.741 212.223C302.054 211.828 302.525 211.591 302.76 211.196C303.074 210.88 303.309 210.485 303.545 210.169C303.78 209.853 303.937 209.458 304.015 209.142C304.172 208.826 304.251 208.51 304.251 208.273C304.329 207.72 304.407 207.404 304.407 207.404C304.407 207.404 304.564 207.641 304.721 208.194C304.8 208.431 304.956 208.826 304.878 209.221C304.878 209.616 304.956 210.09 304.721 210.564C304.643 210.801 304.564 211.038 304.486 211.354C304.407 211.591 304.251 211.828 304.094 212.144C303.858 212.618 302.996 213.171 302.996 213.645C302.917 214.198 304.094 214.909 304.486 215.304C305.819 216.252 306.211 217.595 306.211 218.937Z" fill="#694B30"/>
<path d="M260.248 202.349L260.718 201.875C261.346 201.164 262.052 200.769 262.679 200.216C263.385 199.821 264.091 199.189 264.797 198.873C265.503 198.478 266.209 198.083 266.915 197.846C267.62 197.53 268.248 197.293 268.954 197.135C269.581 196.898 270.209 196.819 270.758 196.819C271.307 196.74 271.777 196.661 272.17 196.74C272.954 196.819 273.425 196.819 273.425 196.819C273.425 196.819 273.032 196.582 272.248 196.266C271.856 196.029 271.385 195.95 270.758 195.871C270.13 195.792 269.503 195.713 268.797 195.792C268.405 195.792 268.013 195.871 267.62 195.871C267.228 195.95 266.836 196.029 266.444 196.108C265.581 196.266 264.797 196.582 263.934 196.977C263.071 197.293 262.287 197.846 261.424 198.32C260.64 198.952 259.699 199.505 259.15 200.216L258.679 200.69C258.365 201.006 258.365 201.085 258.13 201.322C257.816 201.717 257.503 202.112 257.267 202.428C257.189 202.507 257.189 202.586 257.11 202.665C257.816 202.902 258.601 203.218 259.306 203.455C259.463 203.218 259.699 202.981 259.856 202.744C260.012 202.665 260.248 202.349 260.248 202.349Z" fill="white"/>
<path d="M277.505 207.167C277.741 206.14 277.819 205.114 277.505 204.008C276.172 199.031 270.917 199.821 267.152 201.48C265.74 202.112 264.25 203.297 262.995 204.719C265.819 205.667 268.564 206.772 271.388 207.72C272.721 208.194 274.054 208.589 275.466 208.905C276.015 208.194 276.721 207.641 277.505 207.167Z" fill="#785A30"/>
<path d="M301.584 209.537C301.741 209.221 301.898 208.984 301.976 208.668C303.466 203.929 293.662 203.297 291.701 207.799C291.074 209.142 291.152 210.169 291.701 210.959C294.054 211.117 296.329 211.275 298.604 211.907C299.859 211.354 301.035 210.564 301.584 209.537Z" fill="#785A30"/>
<path d="M277.504 207.167C276.72 207.641 276.014 208.273 275.465 208.984C279.308 209.932 283.308 210.485 287.23 210.722C288.171 210.801 289.191 210.801 290.132 210.88C289.504 209.695 288.563 208.589 287.308 207.72C286.995 207.483 286.602 207.246 286.21 207.088C285.583 206.772 284.955 206.535 284.249 206.377C281.818 205.666 279.308 206.061 277.504 207.167Z" fill="#5A4130"/>
<path d="M303.544 214.04C303.622 213.961 304.25 212.539 304.485 212.065C304.642 211.828 304.72 211.591 304.877 211.275C304.956 211.038 305.034 210.722 305.112 210.485C305.269 210.011 305.269 209.537 305.269 209.142C305.269 208.747 305.191 208.431 305.112 208.115C304.956 207.562 304.799 207.325 304.799 207.325C304.799 207.325 304.72 207.641 304.642 208.194C304.642 208.431 304.563 208.747 304.407 209.063C304.25 209.379 304.171 209.774 303.936 210.09C303.779 210.406 303.465 210.801 303.152 211.117C302.916 211.512 302.446 211.828 302.132 212.144C301.897 212.381 301.583 212.618 301.348 212.776C301.505 212.855 301.74 212.934 301.897 213.013C302.289 213.329 303.152 213.803 303.544 214.04Z" fill="#5A4130"/>
<path d="M165.285 278.336C165.107 278.336 164.929 278.336 164.929 278.157C164.75 277.979 164.75 277.622 164.929 277.266L167.069 275.125C167.247 274.947 167.604 274.947 167.961 275.125C168.139 275.304 168.139 275.66 167.961 276.017L165.82 278.157C165.642 278.157 165.464 278.336 165.285 278.336Z" fill="#1A06FF"/>
<path d="M161.004 282.616C160.826 282.616 160.647 282.616 160.647 282.438C160.469 282.259 160.469 281.903 160.647 281.546L162.788 279.406C162.966 279.227 163.323 279.227 163.679 279.406C163.858 279.584 163.858 279.941 163.679 280.297L161.539 282.438C161.182 282.616 161.004 282.616 161.004 282.616Z" fill="#1A06FF"/>
<path d="M152.265 291.355C152.087 291.355 151.908 291.355 151.908 291.177C151.73 290.998 151.73 290.642 151.908 290.285L158.507 283.686C158.685 283.508 159.042 283.508 159.399 283.686C159.577 283.864 159.577 284.221 159.399 284.578L152.8 291.177C152.443 291.355 152.265 291.355 152.265 291.355Z" fill="#1A06FF"/>
<path d="M123.729 306.693C123.551 306.693 123.373 306.693 123.373 306.515C123.194 306.336 123.194 305.98 123.373 305.623L182.406 246.589C182.584 246.411 182.941 246.411 183.298 246.589C183.476 246.768 183.476 247.124 183.298 247.481L124.264 306.515C124.086 306.693 123.908 306.693 123.729 306.693Z" fill="#1A06FF"/>
<path d="M108.392 309.012C108.213 309.012 108.035 309.012 108.035 308.833C107.857 308.655 107.857 308.298 108.035 307.942L184.725 231.251C184.904 231.073 185.26 231.073 185.617 231.251C185.795 231.43 185.795 231.786 185.617 232.143L108.927 308.833C108.749 308.833 108.57 309.012 108.392 309.012Z" fill="#1A06FF"/>
<path d="M105.182 312.044C105.004 312.044 104.826 312.044 104.826 311.865C104.647 311.687 104.647 311.33 104.826 310.974L105.361 310.438C105.539 310.26 105.896 310.26 106.252 310.438C106.609 310.617 106.431 310.973 106.252 311.33L105.717 311.865C105.539 312.044 105.361 312.044 105.182 312.044Z" fill="#1A06FF"/>
<path d="M92.1628 312.044C91.9845 312.044 91.8061 312.044 91.8061 311.865C91.6278 311.687 91.6278 311.33 91.8061 310.973L185.974 216.805C186.153 216.627 186.509 216.627 186.866 216.805C187.044 216.984 187.044 217.34 186.866 217.697L92.6979 311.865C92.5195 312.044 92.3412 312.044 92.1628 312.044Z" fill="#1A06FF"/>
<path d="M79.6784 311.508C79.5001 311.508 79.3218 311.508 79.3218 311.33C79.1434 311.152 79.1434 310.795 79.3218 310.438L185.974 203.786C186.153 203.607 186.51 203.607 186.866 203.786C187.045 203.964 187.045 204.321 186.866 204.677L80.2135 311.33C79.8568 311.508 79.8568 311.508 79.6784 311.508Z" fill="#1A06FF"/>
<path d="M69.1555 309.012C68.9771 309.012 68.7988 309.012 68.7988 308.833C68.6205 308.655 68.6205 308.298 68.7988 307.942L184.904 191.836C185.082 191.658 185.439 191.658 185.796 191.836C185.974 192.015 185.974 192.371 185.796 192.728L69.6905 308.833C69.5122 308.833 69.3338 309.012 69.1555 309.012Z" fill="#1A06FF"/>
<path d="M60.4153 304.553C60.2369 304.553 60.0586 304.553 60.0586 304.375C59.8802 304.196 59.8802 303.84 60.0586 303.483L180.266 183.276C180.444 183.097 180.801 183.097 181.158 183.276C181.336 183.454 181.336 183.811 181.158 184.167L60.9503 304.375C60.772 304.553 60.5936 304.553 60.4153 304.553Z" fill="#1A06FF"/>
<path d="M51.6775 300.094C51.4991 300.094 51.3208 300.094 51.3208 299.916C51.1424 299.737 51.1424 299.381 51.3208 299.024L175.808 174.536C175.987 174.358 176.343 174.358 176.7 174.536C176.878 174.715 176.878 175.072 176.7 175.428L52.2125 299.916C52.0342 300.094 51.8558 300.094 51.6775 300.094Z" fill="#1A06FF"/>
<path d="M42.9377 295.814C42.7594 295.814 42.581 295.814 42.581 295.635C42.4027 295.457 42.4027 295.1 42.581 294.744L171.349 165.976C171.527 165.797 171.884 165.797 172.241 165.976C172.419 166.154 172.419 166.511 172.241 166.867L43.4728 295.635C43.2944 295.635 43.1161 295.814 42.9377 295.814Z" fill="#1A06FF"/>
<path d="M34.1999 291.355C34.0216 291.355 33.8432 291.355 33.8432 291.177C33.6649 290.998 33.6649 290.642 33.8432 290.285L167.07 157.058C167.248 156.88 167.605 156.88 167.962 157.058C168.14 157.237 168.14 157.593 167.962 157.95L34.735 291.177C34.5566 291.355 34.3783 291.355 34.1999 291.355Z" fill="#1A06FF"/>
<path d="M27.7781 284.934C27.5997 284.934 27.4214 284.934 27.4214 284.756C27.243 284.578 27.243 284.221 27.4214 283.864L160.648 150.638C160.826 150.459 161.183 150.459 161.54 150.638C161.718 150.816 161.718 151.173 161.54 151.529L28.3131 284.756C27.9564 284.756 27.9564 284.934 27.7781 284.934Z" fill="#1A06FF"/>
<path d="M21.1784 278.336C21.0001 278.336 20.8218 278.336 20.8218 278.157C20.6434 277.979 20.6434 277.622 20.8218 277.265L154.048 144.039C154.227 143.86 154.583 143.86 154.94 144.039C155.119 144.217 155.119 144.574 154.94 144.931L21.7135 278.157C21.5351 278.157 21.3568 278.336 21.1784 278.336Z" fill="#1A06FF"/>
<path d="M16.8996 269.597C16.7213 269.597 16.5429 269.597 16.5429 269.418C16.3646 269.24 16.3646 268.883 16.5429 268.526L145.311 139.58C145.489 139.402 145.846 139.402 146.203 139.58C146.381 139.758 146.381 140.115 146.203 140.472L17.2563 269.418C17.078 269.597 16.8996 269.597 16.8996 269.597Z" fill="#1A06FF"/>
<path d="M10.3 262.998C10.1217 262.998 9.94333 262.998 9.94333 262.819C9.76498 262.641 9.76498 262.284 9.94333 261.927L136.571 135.3C136.749 135.121 137.106 135.121 137.463 135.3C137.641 135.478 137.641 135.835 137.463 136.191L10.8351 262.819C10.4784 262.998 10.4784 262.998 10.3 262.998Z" fill="#1A06FF"/>
<path d="M5.84153 254.258C5.66318 254.258 5.48484 254.258 5.48484 254.08C5.30649 253.902 5.30649 253.545 5.48484 253.188L130.151 128.522C130.329 128.344 130.686 128.344 131.043 128.522C131.221 128.701 131.221 129.057 131.043 129.414L6.37658 254.08C6.19823 254.258 6.01988 254.258 5.84153 254.258Z" fill="#1A06FF"/>
<path d="M3.70092 243.379C3.52257 243.379 3.34421 243.379 3.34421 243.201C3.16586 243.022 3.16586 242.666 3.34421 242.309L119.449 126.204C119.628 126.026 119.984 126.026 120.341 126.204C120.519 126.382 120.519 126.739 120.341 127.096L4.23596 243.201C3.87926 243.379 3.87927 243.379 3.70092 243.379Z" fill="#1A06FF"/>
<path d="M0.490454 233.57C0.312105 233.57 0.133762 233.57 0.133762 233.392C-0.0445872 233.213 -0.0445872 232.857 0.133762 232.5L107.5 125.134C107.678 124.955 108.035 124.955 108.392 125.134C108.57 125.312 108.57 125.669 108.392 126.026L1.02551 233.392C0.668809 233.392 0.668803 233.57 0.490454 233.57Z" fill="#1A06FF"/>
<path d="M0.490454 220.372C0.312105 220.372 0.133762 220.372 0.133762 220.194C-0.0445872 220.015 -0.0445872 219.659 0.133762 219.302L94.302 125.134C94.4804 124.955 94.8371 124.955 95.1938 125.134C95.3721 125.312 95.3721 125.669 95.1938 126.026L1.02551 220.194C0.668809 220.372 0.668803 220.372 0.490454 220.372Z" fill="#1A06FF"/>
<path d="M0.490454 207.353C0.312105 207.353 0.133762 207.353 0.133762 207.174C-0.0445872 206.996 -0.0445872 206.639 0.133762 206.283L81.2826 125.134C81.4609 124.955 81.8176 124.955 82.1743 125.134C82.3526 125.312 82.3526 125.669 82.1743 126.026L1.02551 207.174C0.668809 207.353 0.668803 207.353 0.490454 207.353Z" fill="#1A06FF"/>
<path d="M3.70092 191.123C3.52257 191.123 3.34421 191.123 3.34421 190.945C3.16586 190.766 3.16586 190.41 3.34421 190.053L67.0148 126.382C67.1932 126.204 67.5499 126.204 67.9066 126.382C68.0849 126.561 68.0849 126.917 67.9066 127.274L4.23596 190.945C3.87926 190.945 3.87927 191.123 3.70092 191.123Z" fill="#1A06FF"/>
<path d="M12.4407 169.186C12.2623 169.186 12.084 169.186 12.084 169.008C11.9056 168.829 11.9056 168.473 12.084 168.116L44.9002 135.3C45.0785 135.121 45.4352 135.121 45.7919 135.3C45.9703 135.478 45.9703 135.835 45.7919 136.191L12.7974 169.008C12.7974 169.008 12.619 169.186 12.4407 169.186Z" fill="#1A06FF"/>
<defs>
<linearGradient id="paint0_linear" x1="213.196" y1="26.6242" x2="96.46" y2="269.334" gradientUnits="userSpaceOnUse">
<stop stop-color="#09FDB4"/>
<stop offset="0.5681" stop-color="#08E5B0"/>
<stop offset="1" stop-color="#08BD7C"/>
</linearGradient>
</defs>
</svg>
