<svg viewBox="0 0 417 209" fill="none" xmlns="http://www.w3.org/2000/svg">
<path d="M57.4357 73.0274C64.1312 70.8914 70.8106 68.8452 77.6052 66.8196C123.982 52.6135 115.374 35.0853 144.789 31.7362C164.245 29.476 184.694 36.1569 192.897 19.7498C220.646 -7.8267 252.521 -3.19967 271.787 20.6244C281.618 32.7571 282.219 41.2928 289.795 59.3198C301.366 86.8606 339.229 72.3348 377.92 82.8715C414.568 92.8573 425.627 119.936 408.388 137.597C381.479 165.29 331.991 144.671 309.838 171.733C270.26 220.128 253.395 195.529 204.813 187.02C162.706 179.577 144.424 201.034 110.025 206.269C82.5924 211.826 58.2602 207.471 35.8104 193.358C-21.7402 157.403 -4.43484 93.2592 57.4357 73.0274Z" fill="#eee"/>
</svg>
