<svg viewBox="0 0 223 265" fill="none" xmlns="http://www.w3.org/2000/svg">
<path d="M76.8006 89.0089C62.4736 114.791 18.0233 112.848 3.88007 138.806C-3.65076 152.404 0.573881 169.886 9.75782 182.423C19.1254 194.961 32.9013 203.79 46.3099 212.266C62.2899 222.332 78.27 232.574 94.4337 242.639C111.149 253.235 129.333 264.36 149.354 264.713C171.762 265.066 192.886 251.469 205.192 233.457C217.499 215.268 221.907 193.372 222.825 171.652C225.029 120.971 206.478 44.6856 162.395 11.1341C144.027 -2.81622 122.169 -3.87574 102.332 9.19168C69.6371 30.5587 92.4133 60.9316 76.8006 89.0089Z" fill="#97D3D3"/>
</svg>
