<svg width="445" height="248" viewBox="0 0 445 248" fill="none" xmlns="http://www.w3.org/2000/svg">
<path d="M408.837 112.396C406.629 112.396 404.685 111.916 403.005 110.956C401.325 109.996 400.029 108.688 399.117 107.032C398.205 105.376 397.749 103.552 397.749 101.56C397.749 99.544 398.205 97.708 399.117 96.052C400.029 94.396 401.313 93.088 402.969 92.128C404.649 91.168 406.605 90.688 408.837 90.688C411.069 90.688 413.025 91.18 414.705 92.164C416.385 93.124 417.681 94.432 418.593 96.088C419.505 97.744 419.961 99.568 419.961 101.56C419.961 103.552 419.505 105.376 418.593 107.032C417.681 108.688 416.385 109.996 414.705 110.956C413.025 111.916 411.069 112.396 408.837 112.396ZM408.837 110.668C410.613 110.668 412.173 110.272 413.517 109.48C414.885 108.664 415.929 107.56 416.649 106.168C417.393 104.776 417.765 103.252 417.765 101.596C417.765 99.916 417.393 98.38 416.649 96.988C415.929 95.596 414.885 94.492 413.517 93.676C412.173 92.836 410.613 92.416 408.837 92.416C407.037 92.416 405.465 92.824 404.121 93.64C402.777 94.456 401.733 95.572 400.989 96.988C400.269 98.38 399.909 99.916 399.909 101.596C399.909 103.276 400.269 104.812 400.989 106.204C401.709 107.572 402.741 108.664 404.085 109.48C405.453 110.272 407.037 110.668 408.837 110.668ZM403.797 105.988H405.381V96.484H403.761V95.404H409.557C410.733 95.404 411.657 95.68 412.329 96.232C413.025 96.784 413.373 97.54 413.373 98.5C413.373 99.268 413.121 99.928 412.617 100.48C412.113 101.008 411.417 101.344 410.529 101.488L413.049 105.988H414.705V107.068H411.969L409.017 101.632H406.965V105.988H408.513V107.068H403.797V105.988ZM409.521 100.516C410.217 100.516 410.769 100.336 411.177 99.976C411.585 99.616 411.789 99.124 411.789 98.5C411.789 97.876 411.585 97.384 411.177 97.024C410.793 96.664 410.265 96.484 409.593 96.484H406.965V100.516H409.521Z" fill="black"/>
<path d="M93.5647 203.701H100.245V204.741H94.6847V209.441H98.5047L98.1247 210.541H94.6847V216.701H100.205V217.701H93.5647V203.701ZM119.642 217.241C118.455 217.681 117.348 217.901 116.322 217.901C115.162 217.901 114.222 217.595 113.502 216.981C112.782 216.368 112.422 215.388 112.422 214.041V207.621C112.422 206.608 112.562 205.841 112.842 205.321C113.135 204.801 113.575 204.361 114.162 204.001C114.748 203.668 115.468 203.501 116.322 203.501C117.362 203.501 118.302 203.721 119.142 204.161L118.822 204.921C118.062 204.641 117.342 204.501 116.662 204.501C115.848 204.501 115.122 204.701 114.482 205.101C113.855 205.501 113.542 206.281 113.542 207.441V214.001C113.542 214.921 113.782 215.635 114.262 216.141C114.742 216.635 115.462 216.881 116.422 216.881C117.262 216.881 118.255 216.688 119.402 216.301L119.642 217.241ZM139.272 214.001C139.272 215.348 138.859 216.341 138.032 216.981C137.219 217.608 136.239 217.921 135.092 217.921C134.372 217.921 133.692 217.795 133.052 217.541C132.412 217.275 131.886 216.848 131.472 216.261C131.072 215.675 130.872 214.921 130.872 214.001V207.561C130.872 206.188 131.246 205.148 131.992 204.441C132.752 203.735 133.792 203.381 135.112 203.381C136.432 203.381 137.452 203.755 138.172 204.501C138.906 205.248 139.272 206.275 139.272 207.581V214.001ZM138.172 207.381C138.172 206.408 137.886 205.675 137.312 205.181C136.752 204.688 136.006 204.441 135.072 204.441C134.139 204.441 133.392 204.688 132.832 205.181C132.272 205.675 131.992 206.408 131.992 207.381V213.981C131.992 214.928 132.279 215.648 132.852 216.141C133.439 216.621 134.179 216.861 135.072 216.861C135.979 216.861 136.719 216.628 137.292 216.161C137.879 215.681 138.172 214.948 138.172 213.961V207.381ZM167.635 214.141C167.675 214.595 167.842 215.028 168.135 215.441C168.442 215.855 168.855 216.195 169.375 216.461C169.909 216.715 170.515 216.841 171.195 216.841C172.222 216.841 173.075 216.615 173.755 216.161C174.449 215.695 174.795 214.961 174.795 213.961C174.795 213.375 174.629 212.888 174.295 212.501C173.962 212.101 173.549 211.788 173.055 211.561C172.562 211.321 171.889 211.048 171.035 210.741C170.115 210.421 169.375 210.128 168.815 209.861C168.269 209.581 167.802 209.208 167.415 208.741C167.042 208.275 166.855 207.675 166.855 206.941C166.855 206.355 167.022 205.801 167.355 205.281C167.689 204.748 168.189 204.321 168.855 204.001C169.535 203.668 170.369 203.501 171.355 203.501C172.009 203.501 172.549 203.548 172.975 203.641C173.402 203.735 173.835 203.888 174.275 204.101L173.935 205.161C173.175 204.775 172.329 204.581 171.395 204.581C170.369 204.581 169.549 204.795 168.935 205.221C168.322 205.648 168.015 206.241 168.015 207.001C168.015 207.481 168.169 207.888 168.475 208.221C168.782 208.541 169.155 208.801 169.595 209.001C170.049 209.201 170.675 209.441 171.475 209.721C172.449 210.055 173.235 210.368 173.835 210.661C174.435 210.941 174.942 211.348 175.355 211.881C175.782 212.401 175.995 213.061 175.995 213.861C175.995 215.088 175.602 216.075 174.815 216.821C174.042 217.555 172.842 217.921 171.215 217.921C170.229 217.921 169.382 217.741 168.675 217.381C167.982 217.008 167.449 216.535 167.075 215.961C166.715 215.375 166.522 214.768 166.495 214.141H167.635ZM196.426 214.001C196.426 215.348 196.013 216.341 195.186 216.981C194.373 217.608 193.393 217.921 192.246 217.921C191.526 217.921 190.846 217.795 190.206 217.541C189.566 217.275 189.04 216.848 188.626 216.261C188.226 215.675 188.026 214.921 188.026 214.001V207.561C188.026 206.188 188.4 205.148 189.146 204.441C189.906 203.735 190.946 203.381 192.266 203.381C193.586 203.381 194.606 203.755 195.326 204.501C196.06 205.248 196.426 206.275 196.426 207.581V214.001ZM195.326 207.381C195.326 206.408 195.04 205.675 194.466 205.181C193.906 204.688 193.16 204.441 192.226 204.441C191.293 204.441 190.546 204.688 189.986 205.181C189.426 205.675 189.146 206.408 189.146 207.381V213.981C189.146 214.928 189.433 215.648 190.006 216.141C190.593 216.621 191.333 216.861 192.226 216.861C193.133 216.861 193.873 216.628 194.446 216.161C195.033 215.681 195.326 214.948 195.326 213.961V207.381ZM209.103 203.701H210.223V216.701H216.323V217.701H209.103V203.701ZM236.052 203.681V213.981C236.052 215.328 235.638 216.308 234.812 216.921C233.998 217.535 233.012 217.841 231.852 217.841C230.692 217.841 229.698 217.535 228.872 216.921C228.045 216.308 227.632 215.328 227.632 213.981V203.681H228.752V214.141C228.752 214.955 229.045 215.608 229.632 216.101C230.232 216.595 230.965 216.841 231.832 216.841C232.698 216.841 233.432 216.595 234.032 216.101C234.632 215.608 234.932 214.955 234.932 214.141V203.681H236.052ZM250.68 204.701H247.28V203.701H255.32V204.701H251.8V217.701H250.68V204.701ZM267.787 204.721L266.447 204.681V203.701H268.907V217.701H267.787V204.721ZM289.86 214.001C289.86 215.348 289.447 216.341 288.62 216.981C287.807 217.608 286.827 217.921 285.68 217.921C284.96 217.921 284.28 217.795 283.64 217.541C283 217.275 282.473 216.848 282.06 216.261C281.66 215.675 281.46 214.921 281.46 214.001V207.561C281.46 206.188 281.833 205.148 282.58 204.441C283.34 203.735 284.38 203.381 285.7 203.381C287.02 203.381 288.04 203.755 288.76 204.501C289.493 205.248 289.86 206.275 289.86 207.581V214.001ZM288.76 207.381C288.76 206.408 288.473 205.675 287.9 205.181C287.34 204.688 286.593 204.441 285.66 204.441C284.727 204.441 283.98 204.688 283.42 205.181C282.86 205.675 282.58 206.408 282.58 207.381V213.981C282.58 214.928 282.867 215.648 283.44 216.141C284.027 216.621 284.767 216.861 285.66 216.861C286.567 216.861 287.307 216.628 287.88 216.161C288.467 215.681 288.76 214.948 288.76 213.961V207.381ZM303.657 205.761V217.701H302.537V203.701H303.657L311.257 215.641V203.701H312.377V217.701H311.257L303.657 205.761ZM325.664 214.141C325.704 214.595 325.871 215.028 326.164 215.441C326.471 215.855 326.884 216.195 327.404 216.461C327.938 216.715 328.544 216.841 329.224 216.841C330.251 216.841 331.104 216.615 331.784 216.161C332.478 215.695 332.824 214.961 332.824 213.961C332.824 213.375 332.658 212.888 332.324 212.501C331.991 212.101 331.578 211.788 331.084 211.561C330.591 211.321 329.918 211.048 329.064 210.741C328.144 210.421 327.404 210.128 326.844 209.861C326.298 209.581 325.831 209.208 325.444 208.741C325.071 208.275 324.884 207.675 324.884 206.941C324.884 206.355 325.051 205.801 325.384 205.281C325.718 204.748 326.218 204.321 326.884 204.001C327.564 203.668 328.398 203.501 329.384 203.501C330.038 203.501 330.578 203.548 331.004 203.641C331.431 203.735 331.864 203.888 332.304 204.101L331.964 205.161C331.204 204.775 330.358 204.581 329.424 204.581C328.398 204.581 327.578 204.795 326.964 205.221C326.351 205.648 326.044 206.241 326.044 207.001C326.044 207.481 326.198 207.888 326.504 208.221C326.811 208.541 327.184 208.801 327.624 209.001C328.078 209.201 328.704 209.441 329.504 209.721C330.478 210.055 331.264 210.368 331.864 210.661C332.464 210.941 332.971 211.348 333.384 211.881C333.811 212.401 334.024 213.061 334.024 213.861C334.024 215.088 333.631 216.075 332.844 216.821C332.071 217.555 330.871 217.921 329.244 217.921C328.258 217.921 327.411 217.741 326.704 217.381C326.011 217.008 325.478 216.535 325.104 215.961C324.744 215.375 324.551 214.768 324.524 214.141H325.664Z" fill="#00AC83"/>
<path d="M93.5647 203.701V202.701H92.5647V203.701H93.5647ZM100.245 203.701H101.245V202.701H100.245V203.701ZM100.245 204.741V205.741H101.245V204.741H100.245ZM94.6847 204.741V203.741H93.6847V204.741H94.6847ZM94.6847 209.441H93.6847V210.441H94.6847V209.441ZM98.5047 209.441L99.4499 209.768L99.9081 208.441H98.5047V209.441ZM98.1247 210.541V211.541H98.8372L99.0699 210.868L98.1247 210.541ZM94.6847 210.541V209.541H93.6847V210.541H94.6847ZM94.6847 216.701H93.6847V217.701H94.6847V216.701ZM100.205 216.701H101.205V215.701H100.205V216.701ZM100.205 217.701V218.701H101.205V217.701H100.205ZM93.5647 217.701H92.5647V218.701H93.5647V217.701ZM93.5647 204.701H100.245V202.701H93.5647V204.701ZM99.2447 203.701V204.741H101.245V203.701H99.2447ZM100.245 203.741H94.6847V205.741H100.245V203.741ZM93.6847 204.741V209.441H95.6847V204.741H93.6847ZM94.6847 210.441H98.5047V208.441H94.6847V210.441ZM97.5595 209.115L97.1795 210.215L99.0699 210.868L99.4499 209.768L97.5595 209.115ZM98.1247 209.541H94.6847V211.541H98.1247V209.541ZM93.6847 210.541V216.701H95.6847V210.541H93.6847ZM94.6847 217.701H100.205V215.701H94.6847V217.701ZM99.2047 216.701V217.701H101.205V216.701H99.2047ZM100.205 216.701H93.5647V218.701H100.205V216.701ZM94.5647 217.701V203.701H92.5647V217.701H94.5647ZM119.642 217.241L119.989 218.179L120.833 217.866L120.61 216.994L119.642 217.241ZM113.502 216.981L114.15 216.22L113.502 216.981ZM112.842 205.321L111.971 204.83L111.966 204.839L111.961 204.847L112.842 205.321ZM114.162 204.001L113.668 203.132L113.653 203.14L113.639 203.149L114.162 204.001ZM119.142 204.161L120.063 204.549L120.42 203.702L119.606 203.276L119.142 204.161ZM118.822 204.921L118.476 205.86L119.372 206.19L119.743 205.309L118.822 204.921ZM114.482 205.101L113.952 204.253L113.944 204.258L114.482 205.101ZM114.262 216.141L113.536 216.829L113.545 216.839L114.262 216.141ZM119.402 216.301L120.37 216.054L120.104 215.009L119.082 215.354L119.402 216.301ZM119.294 216.304C118.194 216.712 117.206 216.901 116.322 216.901V218.901C117.491 218.901 118.716 218.651 119.989 218.179L119.294 216.304ZM116.322 216.901C115.343 216.901 114.651 216.647 114.15 216.22L112.853 217.743C113.792 218.543 114.98 218.901 116.322 218.901V216.901ZM114.15 216.22C113.735 215.867 113.422 215.224 113.422 214.041H111.422C111.422 215.553 111.828 216.869 112.853 217.743L114.15 216.22ZM113.422 214.041V207.621H111.422V214.041H113.422ZM113.422 207.621C113.422 206.67 113.558 206.1 113.722 205.795L111.961 204.847C111.565 205.583 111.422 206.546 111.422 207.621H113.422ZM113.713 205.813C113.91 205.462 114.22 205.139 114.685 204.854L113.639 203.149C112.929 203.584 112.359 204.141 111.971 204.83L113.713 205.813ZM114.656 204.871C115.057 204.643 115.596 204.501 116.322 204.501V202.501C115.34 202.501 114.44 202.693 113.668 203.132L114.656 204.871ZM116.322 204.501C117.216 204.501 117.994 204.689 118.678 205.047L119.606 203.276C118.609 202.753 117.507 202.501 116.322 202.501V204.501ZM118.22 203.773L117.9 204.533L119.743 205.309L120.063 204.549L118.22 203.773ZM119.167 203.983C118.317 203.67 117.48 203.501 116.662 203.501V205.501C117.203 205.501 117.806 205.613 118.476 205.86L119.167 203.983ZM116.662 203.501C115.676 203.501 114.763 203.746 113.952 204.253L115.012 205.949C115.48 205.656 116.021 205.501 116.662 205.501V203.501ZM113.944 204.258C112.893 204.929 112.542 206.141 112.542 207.441H114.542C114.542 206.422 114.817 206.074 115.02 205.944L113.944 204.258ZM112.542 207.441V214.001H114.542V207.441H112.542ZM112.542 214.001C112.542 215.093 112.829 216.084 113.536 216.829L114.988 215.454C114.734 215.186 114.542 214.749 114.542 214.001H112.542ZM113.545 216.839C114.277 217.592 115.3 217.881 116.422 217.881V215.881C115.623 215.881 115.206 215.678 114.978 215.444L113.545 216.839ZM116.422 217.881C117.407 217.881 118.513 217.656 119.721 217.249L119.082 215.354C117.997 215.72 117.117 215.881 116.422 215.881V217.881ZM118.433 216.549L118.673 217.489L120.61 216.994L120.37 216.054L118.433 216.549ZM138.032 216.981L138.643 217.774L138.645 217.772L138.032 216.981ZM133.052 217.541L132.668 218.464L132.676 218.468L132.684 218.471L133.052 217.541ZM131.472 216.261L130.646 216.825L130.651 216.831L130.655 216.837L131.472 216.261ZM131.992 204.441L131.312 203.709L131.305 203.715L131.992 204.441ZM138.172 204.501L137.453 205.196L137.459 205.202L138.172 204.501ZM137.312 205.181L136.651 205.932L136.66 205.939L137.312 205.181ZM132.832 205.181L133.494 205.932L132.832 205.181ZM132.852 216.141L132.2 216.899L132.21 216.907L132.219 216.915L132.852 216.141ZM137.292 216.161L137.924 216.937L137.926 216.935L137.292 216.161ZM138.272 214.001C138.272 215.136 137.935 215.793 137.42 216.191L138.645 217.772C139.784 216.89 140.272 215.56 140.272 214.001H138.272ZM137.422 216.189C136.804 216.665 136.046 216.921 135.092 216.921V218.921C136.433 218.921 137.634 218.551 138.643 217.774L137.422 216.189ZM135.092 216.921C134.493 216.921 133.938 216.816 133.421 216.612L132.684 218.471C133.447 218.773 134.252 218.921 135.092 218.921V216.921ZM133.437 216.618C132.978 216.427 132.599 216.124 132.29 215.685L130.655 216.837C131.173 217.573 131.847 218.123 132.668 218.464L133.437 216.618ZM132.299 215.698C132.041 215.32 131.872 214.779 131.872 214.001H129.872C129.872 215.063 130.104 216.029 130.646 216.825L132.299 215.698ZM131.872 214.001V207.561H129.872V214.001H131.872ZM131.872 207.561C131.872 206.367 132.193 205.628 132.68 205.168L131.305 203.715C130.298 204.668 129.872 206.009 129.872 207.561H131.872ZM132.673 205.174C133.202 204.682 133.974 204.381 135.112 204.381V202.381C133.611 202.381 132.303 202.787 131.312 203.709L132.673 205.174ZM135.112 204.381C136.239 204.381 136.969 204.694 137.453 205.196L138.892 203.807C137.936 202.815 136.626 202.381 135.112 202.381V204.381ZM137.459 205.202C137.966 205.718 138.272 206.468 138.272 207.581H140.272C140.272 206.081 139.846 204.778 138.886 203.801L137.459 205.202ZM138.272 207.581V214.001H140.272V207.581H138.272ZM139.172 207.381C139.172 206.206 138.819 205.158 137.965 204.423L136.66 205.939C136.953 206.191 137.172 206.61 137.172 207.381H139.172ZM137.974 204.431C137.188 203.739 136.186 203.441 135.072 203.441V205.441C135.826 205.441 136.317 205.637 136.651 205.932L137.974 204.431ZM135.072 203.441C133.959 203.441 132.957 203.739 132.171 204.431L133.494 205.932C133.828 205.637 134.319 205.441 135.072 205.441V203.441ZM132.171 204.431C131.335 205.168 130.992 206.214 130.992 207.381H132.992C132.992 206.602 133.21 206.181 133.494 205.932L132.171 204.431ZM130.992 207.381V213.981H132.992V207.381H130.992ZM130.992 213.981C130.992 215.14 131.352 216.17 132.2 216.899L133.505 215.383C133.206 215.126 132.992 214.716 132.992 213.981H130.992ZM132.219 216.915C133.015 217.567 133.991 217.861 135.072 217.861V215.861C134.367 215.861 133.863 215.676 133.486 215.367L132.219 216.915ZM135.072 217.861C136.155 217.861 137.134 217.579 137.924 216.937L136.661 215.386C136.304 215.677 135.803 215.861 135.072 215.861V217.861ZM137.926 216.935C138.811 216.211 139.172 215.151 139.172 213.961H137.172C137.172 214.746 136.948 215.151 136.659 215.387L137.926 216.935ZM139.172 213.961V207.381H137.172V213.961H139.172ZM167.635 214.141L168.632 214.053L168.551 213.141H167.635V214.141ZM168.135 215.441L167.32 216.02L167.326 216.029L167.332 216.037L168.135 215.441ZM169.375 216.461L168.919 217.351L168.933 217.358L168.946 217.365L169.375 216.461ZM173.755 216.161L174.31 216.993L174.314 216.991L173.755 216.161ZM174.295 212.501L173.527 213.142L173.533 213.148L173.538 213.154L174.295 212.501ZM173.055 211.561L172.618 212.461L172.628 212.465L172.638 212.47L173.055 211.561ZM171.035 210.741L171.374 209.8L171.364 209.797L171.035 210.741ZM168.815 209.861L168.36 210.751L168.372 210.758L168.386 210.764L168.815 209.861ZM167.415 208.741L166.635 209.366L166.64 209.373L166.645 209.379L167.415 208.741ZM167.355 205.281L168.197 205.821L168.203 205.811L167.355 205.281ZM168.855 204.001L169.288 204.903L169.296 204.899L168.855 204.001ZM172.975 203.641L172.762 204.618V204.618L172.975 203.641ZM174.275 204.101L175.228 204.407L175.493 203.58L174.712 203.202L174.275 204.101ZM173.935 205.161L173.482 206.053L174.529 206.585L174.888 205.467L173.935 205.161ZM168.475 208.221L167.74 208.898L167.746 208.906L167.753 208.913L168.475 208.221ZM169.595 209.001L169.182 209.912L169.192 209.916L169.595 209.001ZM171.475 209.721L171.145 210.665L171.151 210.667L171.475 209.721ZM173.835 210.661L173.396 211.56L173.404 211.564L173.413 211.568L173.835 210.661ZM175.355 211.881L174.565 212.494L174.574 212.505L174.582 212.516L175.355 211.881ZM174.815 216.821L175.504 217.547L175.504 217.547L174.815 216.821ZM168.675 217.381L168.201 218.262L168.211 218.267L168.222 218.272L168.675 217.381ZM167.075 215.961L166.223 216.484L166.23 216.496L166.237 216.507L167.075 215.961ZM166.495 214.141V213.141H165.452L165.496 214.184L166.495 214.141ZM166.639 214.229C166.697 214.879 166.936 215.479 167.32 216.02L168.951 214.863C168.748 214.577 168.654 214.311 168.632 214.053L166.639 214.229ZM167.332 216.037C167.742 216.59 168.281 217.024 168.919 217.351L169.832 215.572C169.43 215.365 169.142 215.12 168.939 214.846L167.332 216.037ZM168.946 217.365C169.633 217.691 170.39 217.841 171.195 217.841V215.841C170.641 215.841 170.185 215.739 169.805 215.558L168.946 217.365ZM171.195 217.841C172.369 217.841 173.428 217.581 174.31 216.993L173.201 215.329C172.723 215.648 172.075 215.841 171.195 215.841V217.841ZM174.314 216.991C175.34 216.3 175.795 215.219 175.795 213.961H173.795C173.795 214.704 173.557 215.089 173.197 215.332L174.314 216.991ZM175.795 213.961C175.795 213.173 175.566 212.443 175.053 211.848L173.538 213.154C173.692 213.333 173.795 213.576 173.795 213.961H175.795ZM175.064 211.861C174.631 211.342 174.096 210.939 173.473 210.653L172.638 212.47C173.002 212.637 173.293 212.861 173.527 213.142L175.064 211.861ZM173.493 210.662C172.953 210.4 172.242 210.112 171.374 209.8L170.697 211.682C171.536 211.984 172.171 212.243 172.618 212.461L173.493 210.662ZM171.364 209.797C170.461 209.483 169.759 209.203 169.245 208.959L168.386 210.764C168.992 211.053 169.769 211.36 170.707 211.686L171.364 209.797ZM169.271 208.971C168.844 208.752 168.484 208.464 168.185 208.103L166.645 209.379C167.12 209.952 167.694 210.41 168.36 210.751L169.271 208.971ZM168.196 208.117C167.995 207.865 167.855 207.501 167.855 206.941H165.855C165.855 207.849 166.089 208.685 166.635 209.366L168.196 208.117ZM167.855 206.941C167.855 206.556 167.962 206.189 168.197 205.821L166.514 204.742C166.083 205.414 165.855 206.153 165.855 206.941H167.855ZM168.203 205.811C168.42 205.465 168.762 205.156 169.288 204.903L168.423 203.1C167.616 203.487 166.958 204.031 166.507 204.751L168.203 205.811ZM169.296 204.899C169.804 204.65 170.477 204.501 171.355 204.501V202.501C170.261 202.501 169.267 202.686 168.415 203.103L169.296 204.899ZM171.355 204.501C171.969 204.501 172.431 204.546 172.762 204.618L173.189 202.664C172.667 202.55 172.049 202.501 171.355 202.501V204.501ZM172.762 204.618C173.103 204.693 173.462 204.818 173.839 205.001L174.712 203.202C174.209 202.958 173.701 202.777 173.189 202.664L172.762 204.618ZM173.323 203.796L172.983 204.856L174.888 205.467L175.228 204.407L173.323 203.796ZM174.389 204.27C173.476 203.805 172.471 203.581 171.395 203.581V205.581C172.186 205.581 172.875 205.744 173.482 206.053L174.389 204.27ZM171.395 203.581C170.239 203.581 169.198 203.821 168.364 204.4L169.507 206.042C169.9 205.769 170.499 205.581 171.395 205.581V203.581ZM168.364 204.4C167.477 205.018 167.015 205.921 167.015 207.001H169.015C169.015 206.562 169.167 206.278 169.507 206.042L168.364 204.4ZM167.015 207.001C167.015 207.716 167.252 208.369 167.74 208.898L169.211 207.544C169.085 207.407 169.015 207.247 169.015 207.001H167.015ZM167.753 208.913C168.156 209.333 168.636 209.664 169.182 209.912L170.009 208.091C169.674 207.939 169.409 207.75 169.197 207.529L167.753 208.913ZM169.192 209.916C169.68 210.132 170.335 210.382 171.145 210.665L171.806 208.778C171.016 208.501 170.417 208.271 169.999 208.086L169.192 209.916ZM171.151 210.667C172.104 210.994 172.848 211.292 173.396 211.56L174.275 209.763C173.623 209.444 172.794 209.116 171.799 208.775L171.151 210.667ZM173.413 211.568C173.866 211.779 174.247 212.084 174.565 212.494L176.146 211.269C175.637 210.612 175.005 210.104 174.258 209.755L173.413 211.568ZM174.582 212.516C174.836 212.824 174.995 213.247 174.995 213.861H176.995C176.995 212.876 176.729 211.978 176.129 211.247L174.582 212.516ZM174.995 213.861C174.995 214.853 174.688 215.564 174.127 216.096L175.504 217.547C176.516 216.586 176.995 215.323 176.995 213.861H174.995ZM174.127 216.096C173.617 216.58 172.717 216.921 171.215 216.921V218.921C172.967 218.921 174.467 218.53 175.504 217.547L174.127 216.096ZM171.215 216.921C170.349 216.921 169.665 216.763 169.129 216.49L168.222 218.272C169.099 218.719 170.109 218.921 171.215 218.921V216.921ZM169.15 216.501C168.581 216.195 168.182 215.829 167.913 215.416L166.237 216.507C166.715 217.241 167.383 217.821 168.201 218.262L169.15 216.501ZM167.928 215.438C167.648 214.982 167.513 214.539 167.495 214.099L165.496 214.184C165.531 214.997 165.783 215.767 166.223 216.484L167.928 215.438ZM166.495 215.141H167.635V213.141H166.495V215.141ZM195.186 216.981L195.797 217.774L195.799 217.772L195.186 216.981ZM190.206 217.541L189.822 218.464L189.83 218.468L189.838 218.471L190.206 217.541ZM188.626 216.261L187.8 216.825L187.805 216.831L187.809 216.837L188.626 216.261ZM189.146 204.441L188.465 203.709L188.459 203.715L189.146 204.441ZM195.326 204.501L194.607 205.196L194.613 205.202L195.326 204.501ZM194.466 205.181L193.805 205.932L193.814 205.939L194.466 205.181ZM189.986 205.181L190.647 205.932L189.986 205.181ZM190.006 216.141L189.354 216.899L189.364 216.907L189.373 216.915L190.006 216.141ZM194.446 216.161L195.078 216.937L195.08 216.935L194.446 216.161ZM195.426 214.001C195.426 215.136 195.088 215.793 194.574 216.191L195.799 217.772C196.938 216.89 197.426 215.56 197.426 214.001H195.426ZM194.576 216.189C193.958 216.665 193.199 216.921 192.246 216.921V218.921C193.587 218.921 194.788 218.551 195.797 217.774L194.576 216.189ZM192.246 216.921C191.647 216.921 191.092 216.816 190.574 216.612L189.838 218.471C190.601 218.773 191.406 218.921 192.246 218.921V216.921ZM190.591 216.618C190.131 216.427 189.753 216.124 189.444 215.685L187.809 216.837C188.327 217.573 189.001 218.123 189.822 218.464L190.591 216.618ZM189.453 215.698C189.195 215.32 189.026 214.779 189.026 214.001H187.026C187.026 215.063 187.258 216.029 187.8 216.825L189.453 215.698ZM189.026 214.001V207.561H187.026V214.001H189.026ZM189.026 207.561C189.026 206.367 189.347 205.628 189.834 205.168L188.459 203.715C187.452 204.668 187.026 206.009 187.026 207.561H189.026ZM189.827 205.174C190.356 204.682 191.128 204.381 192.266 204.381V202.381C190.765 202.381 189.457 202.787 188.465 203.709L189.827 205.174ZM192.266 204.381C193.393 204.381 194.123 204.694 194.607 205.196L196.046 203.807C195.09 202.815 193.78 202.381 192.266 202.381V204.381ZM194.613 205.202C195.12 205.718 195.426 206.468 195.426 207.581H197.426C197.426 206.081 197 204.778 196.04 203.801L194.613 205.202ZM195.426 207.581V214.001H197.426V207.581H195.426ZM196.326 207.381C196.326 206.206 195.973 205.158 195.119 204.423L193.814 205.939C194.107 206.191 194.326 206.61 194.326 207.381H196.326ZM195.127 204.431C194.342 203.739 193.34 203.441 192.226 203.441V205.441C192.98 205.441 193.47 205.637 193.805 205.932L195.127 204.431ZM192.226 203.441C191.113 203.441 190.11 203.739 189.325 204.431L190.647 205.932C190.982 205.637 191.473 205.441 192.226 205.441V203.441ZM189.325 204.431C188.489 205.168 188.146 206.214 188.146 207.381H190.146C190.146 206.602 190.364 206.181 190.647 205.932L189.325 204.431ZM188.146 207.381V213.981H190.146V207.381H188.146ZM188.146 213.981C188.146 215.14 188.506 216.17 189.354 216.899L190.659 215.383C190.36 215.126 190.146 214.716 190.146 213.981H188.146ZM189.373 216.915C190.169 217.567 191.145 217.861 192.226 217.861V215.861C191.521 215.861 191.017 215.676 190.64 215.367L189.373 216.915ZM192.226 217.861C193.309 217.861 194.288 217.579 195.078 216.937L193.815 215.386C193.458 215.677 192.957 215.861 192.226 215.861V217.861ZM195.08 216.935C195.965 216.211 196.326 215.151 196.326 213.961H194.326C194.326 214.746 194.102 215.151 193.813 215.387L195.08 216.935ZM196.326 213.961V207.381H194.326V213.961H196.326ZM209.103 203.701V202.701H208.103V203.701H209.103ZM210.223 203.701H211.223V202.701H210.223V203.701ZM210.223 216.701H209.223V217.701H210.223V216.701ZM216.323 216.701H217.323V215.701H216.323V216.701ZM216.323 217.701V218.701H217.323V217.701H216.323ZM209.103 217.701H208.103V218.701H209.103V217.701ZM209.103 204.701H210.223V202.701H209.103V204.701ZM209.223 203.701V216.701H211.223V203.701H209.223ZM210.223 217.701H216.323V215.701H210.223V217.701ZM215.323 216.701V217.701H217.323V216.701H215.323ZM216.323 216.701H209.103V218.701H216.323V216.701ZM210.103 217.701V203.701H208.103V217.701H210.103ZM236.052 203.681H237.052V202.681H236.052V203.681ZM234.812 216.921L234.216 216.118L234.209 216.123L234.812 216.921ZM228.872 216.921L229.467 216.118L228.872 216.921ZM227.632 203.681V202.681H226.632V203.681H227.632ZM228.752 203.681H229.752V202.681H228.752V203.681ZM229.632 216.101L228.988 216.867L228.996 216.874L229.632 216.101ZM234.032 216.101L234.667 216.874L234.032 216.101ZM234.932 203.681V202.681H233.932V203.681H234.932ZM235.052 203.681V213.981H237.052V203.681H235.052ZM235.052 213.981C235.052 215.118 234.713 215.749 234.216 216.118L235.407 217.724C236.563 216.867 237.052 215.538 237.052 213.981H235.052ZM234.209 216.123C233.593 216.588 232.826 216.841 231.852 216.841V218.841C233.197 218.841 234.403 218.482 235.414 217.72L234.209 216.123ZM231.852 216.841C230.878 216.841 230.1 216.588 229.467 216.118L228.276 217.724C229.296 218.482 230.505 218.841 231.852 218.841V216.841ZM229.467 216.118C228.97 215.749 228.632 215.118 228.632 213.981H226.632C226.632 215.538 227.12 216.867 228.276 217.724L229.467 216.118ZM228.632 213.981V203.681H226.632V213.981H228.632ZM227.632 204.681H228.752V202.681H227.632V204.681ZM227.752 203.681V214.141H229.752V203.681H227.752ZM227.752 214.141C227.752 215.229 228.16 216.171 228.988 216.867L230.275 215.336C229.93 215.046 229.752 214.68 229.752 214.141H227.752ZM228.996 216.874C229.796 217.531 230.762 217.841 231.832 217.841V215.841C231.168 215.841 230.667 215.658 230.267 215.329L228.996 216.874ZM231.832 217.841C232.901 217.841 233.867 217.531 234.667 216.874L233.396 215.329C232.996 215.658 232.495 215.841 231.832 215.841V217.841ZM234.667 216.874C235.51 216.18 235.932 215.238 235.932 214.141H233.932C233.932 214.672 233.753 215.036 233.396 215.329L234.667 216.874ZM235.932 214.141V203.681H233.932V214.141H235.932ZM234.932 204.681H236.052V202.681H234.932V204.681ZM250.68 204.701H251.68V203.701H250.68V204.701ZM247.28 204.701H246.28V205.701H247.28V204.701ZM247.28 203.701V202.701H246.28V203.701H247.28ZM255.32 203.701H256.32V202.701H255.32V203.701ZM255.32 204.701V205.701H256.32V204.701H255.32ZM251.8 204.701V203.701H250.8V204.701H251.8ZM251.8 217.701V218.701H252.8V217.701H251.8ZM250.68 217.701H249.68V218.701H250.68V217.701ZM250.68 203.701H247.28V205.701H250.68V203.701ZM248.28 204.701V203.701H246.28V204.701H248.28ZM247.28 204.701H255.32V202.701H247.28V204.701ZM254.32 203.701V204.701H256.32V203.701H254.32ZM255.32 203.701H251.8V205.701H255.32V203.701ZM250.8 204.701V217.701H252.8V204.701H250.8ZM251.8 216.701H250.68V218.701H251.8V216.701ZM251.68 217.701V204.701H249.68V217.701H251.68ZM267.787 204.721H268.787V203.751L267.816 203.722L267.787 204.721ZM266.447 204.681H265.447V205.652L266.417 205.681L266.447 204.681ZM266.447 203.701V202.701H265.447V203.701H266.447ZM268.907 203.701H269.907V202.701H268.907V203.701ZM268.907 217.701V218.701H269.907V217.701H268.907ZM267.787 217.701H266.787V218.701H267.787V217.701ZM267.816 203.722L266.476 203.682L266.417 205.681L267.757 205.721L267.816 203.722ZM267.447 204.681V203.701H265.447V204.681H267.447ZM266.447 204.701H268.907V202.701H266.447V204.701ZM267.907 203.701V217.701H269.907V203.701H267.907ZM268.907 216.701H267.787V218.701H268.907V216.701ZM268.787 217.701V204.721H266.787V217.701H268.787ZM288.62 216.981L289.23 217.774L289.232 217.772L288.62 216.981ZM283.64 217.541L283.255 218.464L283.264 218.468L283.272 218.471L283.64 217.541ZM282.06 216.261L281.234 216.825L281.238 216.831L281.243 216.837L282.06 216.261ZM282.58 204.441L281.899 203.709L281.893 203.715L282.58 204.441ZM288.76 204.501L288.04 205.196L288.047 205.202L288.76 204.501ZM287.9 205.181L287.239 205.932L287.248 205.939L287.9 205.181ZM283.42 205.181L284.081 205.932L283.42 205.181ZM283.44 216.141L282.788 216.899L282.797 216.907L282.807 216.915L283.44 216.141ZM287.88 216.161L288.511 216.937L288.513 216.935L287.88 216.161ZM288.86 214.001C288.86 215.136 288.522 215.793 288.008 216.191L289.232 217.772C290.371 216.89 290.86 215.56 290.86 214.001H288.86ZM288.01 216.189C287.392 216.665 286.633 216.921 285.68 216.921V218.921C287.02 218.921 288.222 218.551 289.23 217.774L288.01 216.189ZM285.68 216.921C285.08 216.921 284.526 216.816 284.008 216.612L283.272 218.471C284.034 218.773 284.84 218.921 285.68 218.921V216.921ZM284.025 216.618C283.565 216.427 283.186 216.124 282.877 215.685L281.243 216.837C281.76 217.573 282.435 218.123 283.255 218.464L284.025 216.618ZM282.886 215.698C282.629 215.32 282.46 214.779 282.46 214.001H280.46C280.46 215.063 280.691 216.029 281.234 216.825L282.886 215.698ZM282.46 214.001V207.561H280.46V214.001H282.46ZM282.46 207.561C282.46 206.367 282.781 205.628 283.267 205.168L281.893 203.715C280.886 204.668 280.46 206.009 280.46 207.561H282.46ZM283.261 205.174C283.79 204.682 284.561 204.381 285.7 204.381V202.381C284.199 202.381 282.89 202.787 281.899 203.709L283.261 205.174ZM285.7 204.381C286.827 204.381 287.557 204.694 288.04 205.196L289.48 203.807C288.523 202.815 287.213 202.381 285.7 202.381V204.381ZM288.047 205.202C288.553 205.718 288.86 206.468 288.86 207.581H290.86C290.86 206.081 290.434 204.778 289.473 203.801L288.047 205.202ZM288.86 207.581V214.001H290.86V207.581H288.86ZM289.76 207.381C289.76 206.206 289.406 205.158 288.552 204.423L287.248 205.939C287.54 206.191 287.76 206.61 287.76 207.381H289.76ZM288.561 204.431C287.776 203.739 286.773 203.441 285.66 203.441V205.441C286.413 205.441 286.904 205.637 287.239 205.932L288.561 204.431ZM285.66 203.441C284.546 203.441 283.544 203.739 282.759 204.431L284.081 205.932C284.416 205.637 284.907 205.441 285.66 205.441V203.441ZM282.759 204.431C281.922 205.168 281.58 206.214 281.58 207.381H283.58C283.58 206.602 283.798 206.181 284.081 205.932L282.759 204.431ZM281.58 207.381V213.981H283.58V207.381H281.58ZM281.58 213.981C281.58 215.14 281.94 216.17 282.788 216.899L284.092 215.383C283.793 215.126 283.58 214.716 283.58 213.981H281.58ZM282.807 216.915C283.603 217.567 284.579 217.861 285.66 217.861V215.861C284.954 215.861 284.451 215.676 284.073 215.367L282.807 216.915ZM285.66 217.861C286.743 217.861 287.722 217.579 288.511 216.937L287.249 215.386C286.891 215.677 286.39 215.861 285.66 215.861V217.861ZM288.513 216.935C289.398 216.211 289.76 215.151 289.76 213.961H287.76C287.76 214.746 287.535 215.151 287.247 215.387L288.513 216.935ZM289.76 213.961V207.381H287.76V213.961H289.76ZM303.657 205.761L304.5 205.224L302.657 202.328V205.761H303.657ZM303.657 217.701V218.701H304.657V217.701H303.657ZM302.537 217.701H301.537V218.701H302.537V217.701ZM302.537 203.701V202.701H301.537V203.701H302.537ZM303.657 203.701L304.5 203.164L304.205 202.701H303.657V203.701ZM311.257 215.641L310.413 216.178L312.257 219.075V215.641H311.257ZM311.257 203.701V202.701H310.257V203.701H311.257ZM312.377 203.701H313.377V202.701H312.377V203.701ZM312.377 217.701V218.701H313.377V217.701H312.377ZM311.257 217.701L310.413 218.238L310.708 218.701H311.257V217.701ZM302.657 205.761V217.701H304.657V205.761H302.657ZM303.657 216.701H302.537V218.701H303.657V216.701ZM303.537 217.701V203.701H301.537V217.701H303.537ZM302.537 204.701H303.657V202.701H302.537V204.701ZM302.813 204.238L310.413 216.178L312.1 215.104L304.5 203.164L302.813 204.238ZM312.257 215.641V203.701H310.257V215.641H312.257ZM311.257 204.701H312.377V202.701H311.257V204.701ZM311.377 203.701V217.701H313.377V203.701H311.377ZM312.377 216.701H311.257V218.701H312.377V216.701ZM312.1 217.164L304.5 205.224L302.813 206.298L310.413 218.238L312.1 217.164ZM325.664 214.141L326.66 214.053L326.58 213.141H325.664V214.141ZM326.164 215.441L325.349 216.02L325.355 216.029L325.361 216.037L326.164 215.441ZM327.404 216.461L326.948 217.351L326.962 217.358L326.975 217.365L327.404 216.461ZM331.784 216.161L332.339 216.993L332.343 216.991L331.784 216.161ZM332.324 212.501L331.556 213.142L331.561 213.148L331.567 213.154L332.324 212.501ZM331.084 211.561L330.647 212.461L330.657 212.465L330.667 212.47L331.084 211.561ZM329.064 210.741L329.403 209.8L329.393 209.797L329.064 210.741ZM326.844 209.861L326.388 210.751L326.401 210.758L326.414 210.764L326.844 209.861ZM325.444 208.741L324.663 209.366L324.669 209.373L324.674 209.379L325.444 208.741ZM325.384 205.281L326.226 205.821L326.232 205.811L325.384 205.281ZM326.884 204.001L327.317 204.903L327.325 204.899L326.884 204.001ZM331.004 203.641L330.791 204.618V204.618L331.004 203.641ZM332.304 204.101L333.257 204.407L333.522 203.58L332.741 203.202L332.304 204.101ZM331.964 205.161L331.511 206.053L332.558 206.585L332.917 205.467L331.964 205.161ZM326.504 208.221L325.768 208.898L325.775 208.906L325.782 208.913L326.504 208.221ZM327.624 209.001L327.211 209.912L327.221 209.916L327.624 209.001ZM329.504 209.721L329.174 210.665L329.18 210.667L329.504 209.721ZM331.864 210.661L331.425 211.56L331.433 211.564L331.441 211.568L331.864 210.661ZM333.384 211.881L332.594 212.494L332.602 212.505L332.611 212.516L333.384 211.881ZM332.844 216.821L333.532 217.547L333.533 217.547L332.844 216.821ZM326.704 217.381L326.23 218.262L326.24 218.267L326.25 218.272L326.704 217.381ZM325.104 215.961L324.252 216.484L324.259 216.496L324.266 216.507L325.104 215.961ZM324.524 214.141V213.141H323.481L323.525 214.184L324.524 214.141ZM324.668 214.229C324.726 214.879 324.965 215.479 325.349 216.02L326.98 214.863C326.777 214.577 326.683 214.311 326.66 214.053L324.668 214.229ZM325.361 216.037C325.771 216.59 326.31 217.024 326.948 217.351L327.861 215.572C327.459 215.365 327.171 215.12 326.967 214.846L325.361 216.037ZM326.975 217.365C327.662 217.691 328.418 217.841 329.224 217.841V215.841C328.67 215.841 328.214 215.739 327.833 215.558L326.975 217.365ZM329.224 217.841C330.398 217.841 331.457 217.581 332.339 216.993L331.23 215.329C330.751 215.648 330.104 215.841 329.224 215.841V217.841ZM332.343 216.991C333.369 216.3 333.824 215.219 333.824 213.961H331.824C331.824 214.704 331.586 215.089 331.226 215.332L332.343 216.991ZM333.824 213.961C333.824 213.173 333.595 212.443 333.082 211.848L331.567 213.154C331.721 213.333 331.824 213.576 331.824 213.961H333.824ZM333.093 211.861C332.66 211.342 332.125 210.939 331.502 210.653L330.667 212.47C331.031 212.637 331.322 212.861 331.556 213.142L333.093 211.861ZM331.522 210.662C330.982 210.4 330.271 210.112 329.403 209.8L328.726 211.682C329.564 211.984 330.2 212.243 330.647 212.461L331.522 210.662ZM329.393 209.797C328.49 209.483 327.788 209.203 327.274 208.959L326.414 210.764C327.021 211.053 327.798 211.36 328.736 211.686L329.393 209.797ZM327.3 208.971C326.873 208.752 326.513 208.464 326.214 208.103L324.674 209.379C325.149 209.952 325.723 210.41 326.388 210.751L327.3 208.971ZM326.225 208.117C326.024 207.865 325.884 207.501 325.884 206.941H323.884C323.884 207.849 324.118 208.685 324.663 209.366L326.225 208.117ZM325.884 206.941C325.884 206.556 325.99 206.189 326.226 205.821L324.542 204.742C324.112 205.414 323.884 206.153 323.884 206.941H325.884ZM326.232 205.811C326.449 205.465 326.791 205.156 327.317 204.903L326.452 203.1C325.645 203.487 324.987 204.031 324.536 204.751L326.232 205.811ZM327.325 204.899C327.833 204.65 328.506 204.501 329.384 204.501V202.501C328.29 202.501 327.296 202.686 326.444 203.103L327.325 204.899ZM329.384 204.501C329.997 204.501 330.46 204.546 330.791 204.618L331.218 202.664C330.696 202.55 330.078 202.501 329.384 202.501V204.501ZM330.791 204.618C331.132 204.693 331.491 204.818 331.868 205.001L332.741 203.202C332.238 202.958 331.73 202.777 331.218 202.664L330.791 204.618ZM331.352 203.796L331.012 204.856L332.917 205.467L333.257 204.407L331.352 203.796ZM332.418 204.27C331.504 203.805 330.5 203.581 329.424 203.581V205.581C330.215 205.581 330.904 205.744 331.511 206.053L332.418 204.27ZM329.424 203.581C328.268 203.581 327.226 203.821 326.393 204.4L327.535 206.042C327.929 205.769 328.527 205.581 329.424 205.581V203.581ZM326.393 204.4C325.506 205.018 325.044 205.921 325.044 207.001H327.044C327.044 206.562 327.196 206.278 327.535 206.042L326.393 204.4ZM325.044 207.001C325.044 207.716 325.281 208.369 325.768 208.898L327.24 207.544C327.114 207.407 327.044 207.247 327.044 207.001H325.044ZM325.782 208.913C326.185 209.333 326.665 209.664 327.211 209.912L328.038 208.091C327.703 207.939 327.437 207.75 327.226 207.529L325.782 208.913ZM327.221 209.916C327.709 210.132 328.364 210.382 329.174 210.665L329.835 208.778C329.045 208.501 328.446 208.271 328.028 208.086L327.221 209.916ZM329.18 210.667C330.133 210.994 330.877 211.292 331.425 211.56L332.304 209.763C331.652 209.444 330.822 209.116 329.828 208.775L329.18 210.667ZM331.441 211.568C331.895 211.779 332.276 212.084 332.594 212.494L334.175 211.269C333.666 210.612 333.034 210.104 332.287 209.755L331.441 211.568ZM332.611 212.516C332.865 212.824 333.024 213.247 333.024 213.861H335.024C335.024 212.876 334.757 211.978 334.157 211.247L332.611 212.516ZM333.024 213.861C333.024 214.853 332.717 215.564 332.156 216.096L333.533 217.547C334.545 216.586 335.024 215.323 335.024 213.861H333.024ZM332.156 216.096C331.646 216.58 330.746 216.921 329.244 216.921V218.921C330.996 218.921 332.496 218.53 333.532 217.547L332.156 216.096ZM329.244 216.921C328.378 216.921 327.694 216.763 327.158 216.49L326.25 218.272C327.128 218.719 328.138 218.921 329.244 218.921V216.921ZM327.178 216.501C326.61 216.195 326.211 215.829 325.942 215.416L324.266 216.507C324.744 217.241 325.412 217.821 326.23 218.262L327.178 216.501ZM325.957 215.438C325.677 214.982 325.542 214.539 325.523 214.099L323.525 214.184C323.56 214.997 323.812 215.767 324.252 216.484L325.957 215.438ZM324.524 215.141H325.664V213.141H324.524V215.141Z" fill="#00AC83"/>
<path d="M58.853 131.029C62.8103 131.029 66.5437 131.776 70.053 133.269C73.5623 134.763 76.6237 136.816 79.237 139.429C81.8503 142.043 83.9037 145.104 85.397 148.613C86.965 152.123 87.749 155.856 87.749 159.813C87.749 163.771 86.965 167.504 85.397 171.013C83.9037 174.523 81.8503 177.584 79.237 180.197C76.6237 182.811 73.5623 184.864 70.053 186.357C66.5437 187.851 62.8103 188.597 58.853 188.597C51.1623 188.597 45.301 185.76 41.269 180.085V187.701H26.485V109.301H41.381V159.813C41.381 161.979 41.7917 163.995 42.613 165.861C43.4343 167.728 44.517 169.371 45.861 170.789C47.2797 172.133 48.9223 173.216 50.789 174.037C52.7303 174.859 54.7837 175.269 56.949 175.269C59.0397 175.269 61.0183 174.859 62.885 174.037C64.8263 173.216 66.469 172.133 67.813 170.789C69.2317 169.371 70.3517 167.728 71.173 165.861C71.9943 163.995 72.405 161.979 72.405 159.813C72.405 157.648 71.9943 155.632 71.173 153.765C70.3517 151.899 69.2317 150.256 67.813 148.837C66.469 147.419 64.8263 146.336 62.885 145.589C61.0183 144.768 59.0397 144.357 56.949 144.357C54.933 144.357 52.917 144.768 50.901 145.589L50.789 145.701L50.677 145.477L45.189 135.397L45.301 135.285C48.9597 132.448 53.477 131.029 58.853 131.029ZM143.623 130.805C147.655 130.805 151.426 131.589 154.935 133.157C158.444 134.651 161.506 136.704 164.119 139.317C166.732 141.931 168.786 144.992 170.279 148.501C171.847 152.011 172.631 155.744 172.631 159.701C172.631 163.659 171.847 167.392 170.279 170.901C168.786 174.411 166.732 177.472 164.119 180.085C161.506 182.699 158.444 184.789 154.935 186.357C151.426 187.851 147.655 188.597 143.623 188.597C139.591 188.597 135.82 187.851 132.311 186.357C128.802 184.789 125.74 182.699 123.127 180.085C120.514 177.472 118.423 174.411 116.855 170.901C115.362 167.392 114.615 163.659 114.615 159.701C114.615 155.744 115.362 152.011 116.855 148.501C118.423 144.992 120.514 141.931 123.127 139.317C125.74 136.704 128.802 134.651 132.311 133.157C135.82 131.589 139.591 130.805 143.623 130.805ZM143.623 175.269C145.49 175.269 147.207 174.859 148.775 174.037C150.418 173.216 151.836 172.096 153.031 170.677C154.3 169.184 155.271 167.504 155.943 165.637C156.69 163.696 157.063 161.605 157.063 159.365C157.063 157.275 156.69 155.296 155.943 153.429C155.271 151.488 154.3 149.845 153.031 148.501C151.836 147.083 150.418 145.963 148.775 145.141C147.207 144.32 145.49 143.909 143.623 143.909C141.756 143.909 140.002 144.32 138.359 145.141C136.716 145.963 135.26 147.083 133.991 148.501C132.796 149.845 131.826 151.488 131.079 153.429C130.407 155.296 130.071 157.275 130.071 159.365C130.071 161.605 130.407 163.696 131.079 165.637C131.826 167.504 132.796 169.184 133.991 170.677C135.26 172.096 136.716 173.216 138.359 174.037C140.002 174.859 141.756 175.269 143.623 175.269Z" fill="#2A4D4F"/>
<path d="M195.1 109.301L245.612 182.101V187.701H229.26L195.1 138.421V187.701H178.748V109.301H195.1ZM229.26 109.301H245.612V167.989L229.26 156.229V109.301ZM280.891 130.805C284.849 130.805 288.582 131.589 292.091 133.157C295.601 134.651 298.662 136.704 301.275 139.317C303.889 141.931 305.942 144.992 307.435 148.501C309.003 152.011 309.787 155.781 309.787 159.813C309.787 161.979 309.563 164.069 309.115 166.085L309.003 166.309H280.555L273.387 154.885H294.667C293.622 151.749 291.867 149.173 289.403 147.157C287.014 145.141 284.177 144.133 280.891 144.133C278.875 144.133 276.971 144.544 275.179 145.365C273.387 146.187 271.819 147.307 270.475 148.725C269.206 150.069 268.198 151.712 267.451 153.653C266.705 155.52 266.331 157.573 266.331 159.813C266.331 161.531 266.667 163.323 267.339 165.189C268.011 166.981 268.982 168.624 270.251 170.117C271.521 171.611 273.051 172.88 274.843 173.925C276.635 174.896 278.651 175.381 280.891 175.381C282.907 175.381 284.737 175.12 286.379 174.597C288.097 174 289.702 172.731 291.195 170.789L291.307 170.677L291.531 170.789L304.523 176.501L304.299 176.725C301.611 180.459 298.177 183.371 293.995 185.461C289.889 187.552 285.521 188.597 280.891 188.597C276.859 188.597 273.051 187.851 269.467 186.357C265.958 184.864 262.897 182.811 260.283 180.197C257.67 177.584 255.579 174.523 254.011 171.013C252.518 167.504 251.771 163.771 251.771 159.813C251.771 155.781 252.518 152.011 254.011 148.501C255.579 144.992 257.67 141.931 260.283 139.317C262.897 136.704 265.958 134.651 269.467 133.157C273.051 131.589 276.859 130.805 280.891 130.805ZM338.959 154.437C341.423 155.259 343.663 156.117 345.679 157.013C347.77 157.835 349.562 158.843 351.055 160.037C352.623 161.232 353.818 162.688 354.639 164.405C355.535 166.048 355.983 168.027 355.983 170.341V170.453C355.983 176.128 354.079 180.571 350.271 183.781C346.538 186.992 341.274 188.597 334.479 188.597C330.223 188.597 326.042 187.888 321.935 186.469C317.828 184.976 313.983 182.885 310.399 180.197L310.287 180.085L310.399 179.973L318.015 167.989L318.127 168.101C320.367 170.491 322.906 172.32 325.743 173.589C328.58 174.784 331.604 175.381 334.815 175.381C339.22 175.381 341.423 173.963 341.423 171.125C341.423 169.781 340.714 168.773 339.295 168.101C337.876 167.429 336.196 166.795 334.255 166.197C333.882 166.048 333.508 165.973 333.135 165.973C332.836 165.899 332.5 165.787 332.127 165.637C329.887 165.04 327.647 164.405 325.407 163.733C323.167 162.987 321.151 162.016 319.359 160.821C317.567 159.552 316.074 157.984 314.879 156.117C313.759 154.176 313.199 151.712 313.199 148.725V148.501C313.199 145.888 313.684 143.499 314.655 141.333C315.626 139.168 317.007 137.301 318.799 135.733C320.591 134.165 322.756 132.971 325.295 132.149C327.834 131.253 330.634 130.805 333.695 130.805C337.279 130.805 340.9 131.365 344.559 132.485C348.218 133.531 351.615 135.099 354.751 137.189V137.413L347.919 149.845L347.807 149.733C346.09 148.016 343.962 146.672 341.423 145.701C338.884 144.656 336.196 144.133 333.359 144.133C332.836 144.133 332.239 144.171 331.567 144.245C330.895 144.32 330.26 144.507 329.663 144.805C329.14 145.104 328.692 145.515 328.319 146.037C327.946 146.485 327.759 147.157 327.759 148.053C327.759 148.725 328.058 149.36 328.655 149.957C329.252 150.48 329.999 151.003 330.895 151.525C331.866 151.973 332.911 152.421 334.031 152.869C335.226 153.317 336.383 153.728 337.503 154.101C337.727 154.101 337.951 154.139 338.175 154.213C338.474 154.288 338.735 154.363 338.959 154.437ZM400.586 137.525V149.957H392.298L385.354 137.525H400.586ZM383.45 168.549C383.45 170.267 384.047 171.723 385.242 172.917C386.511 174.112 388.005 174.709 389.722 174.709H400.586V187.701H389.722C386.81 187.701 384.047 187.179 381.434 186.133C378.895 185.013 376.655 183.52 374.714 181.653C372.847 179.712 371.354 177.472 370.234 174.933C369.114 172.395 368.554 169.669 368.554 166.757V149.957H360.49V137.525H368.554V117.253H383.45V168.549Z" fill="#008061"/>
<path d="M82.9412 198.199C84.3197 191.257 84.3087 191.362 88.4812 184.012C92.9213 176.187 96.1431 168.554 100.15 166.869C105.165 164.762 108.274 170.97 111.79 179.568C112.752 181.921 113.866 183.751 115.89 186.38C118.152 188.02 118.692 186.848 118.152 185.657C116.893 182.044 106.147 163.717 108.266 149.091C112.282 120.616 130.108 100.415 129.756 100.8L129.103 101.619C129.103 101.619 130.951 99.7083 131.67 99.6519C133.507 99.5079 132.528 95.5537 127.733 98.8111L127.796 98.8323C124.86 100.8 119.521 108.185 117.195 111.996C111.119 121.943 108.122 129.339 102.84 130.476C96.3865 131.863 91.6429 125.296 88.1216 121.891C84.8005 118.68 77.7207 113.811 77.7207 113.811C75.6179 112.336 74.5119 113.808 75.1711 115.28C75.6379 116.32 77.7207 117.359 77.7207 117.359C77.7207 117.359 98.0466 130.006 97.9975 150.805C97.9674 163.95 79.8736 187.072 79.8736 198.2C79.8756 201.792 82.4212 201.136 82.9412 198.199Z" fill="#2A4D4F" stroke="#2A4D4F" stroke-miterlimit="10"/>
<path d="M100.803 121.149C105.172 121.149 108.714 117.589 108.714 113.197C108.714 108.806 105.172 105.246 100.803 105.246C96.4333 105.246 92.8912 108.806 92.8912 113.197C92.8912 117.589 96.4333 121.149 100.803 121.149Z" fill="#2A4D4F"/>
<path d="M121.761 96.0564C121.761 96.0564 106.732 91.0001 120.504 73.3524C120.504 73.3524 137.048 83.9029 125.26 95.8114L123.13 86.244L121.761 96.0564Z" fill="#80C41C"/>
<path d="M136.545 107.668C136.545 107.668 145.357 101.696 149.077 116.266C149.077 116.266 136.739 120.807 135.247 109.64L141.181 112.408L136.545 107.668Z" fill="#80C41C"/>
<path d="M68.1516 100.49C68.1516 100.49 52.4624 102.737 56.9083 80.7578C56.9083 80.7578 76.4029 82.7423 71.1694 98.6969L65.0026 91.1017L68.1516 100.49Z" fill="#00AC83"/>
<path d="M89.0072 95.7012C89.0072 95.7012 77.3628 94.9823 83.812 79.7984C83.812 79.7984 97.5765 84.1338 91.45 94.8581L88.1223 88.4621L89.0072 95.7012Z" fill="#00AC83"/>
<path d="M95.3038 69.0662C95.3038 69.0662 75.5694 64.0918 91.4538 40.1319C91.4538 40.1319 113.673 51.987 99.7583 68.4039L96.0876 56.3711L95.3038 69.0662Z" fill="#00AC83"/>
<path d="M77.3029 106.58C77.3029 106.58 73.6619 100.47 83.445 98.5027C83.445 98.5027 86.0129 106.921 78.5627 107.521L80.6064 103.649L77.3029 106.58Z" fill="#00AC83"/>
<path d="M137.387 80.2555C137.387 80.2555 131.932 75.7061 140.51 70.5851C140.51 70.5851 145.714 77.6683 138.885 80.7203L139.533 76.3859L137.387 80.2555Z" fill="#00AC83"/>
<path d="M140.846 93.5401C140.846 93.5401 147.462 90.0892 148.892 100.541C148.892 100.541 139.931 102.711 139.783 94.8101L143.698 97.2184L140.846 93.5401Z" fill="#00AC45"/>
<path d="M111.576 60.4974C111.576 60.4974 104.783 52.2834 118.833 47.104C118.833 47.104 124.563 58.9901 113.657 61.5984L115.801 55.3863L111.576 60.4974Z" fill="#00AC83"/>
<path d="M79.001 62.4531C79.001 62.4531 71.5422 61.7622 75.9757 52.144C75.9757 52.144 84.7253 55.1972 80.586 61.9585L78.5745 57.7894L79.001 62.4531Z" fill="#80C41C"/>
<path d="M114.762 31.8155C114.762 31.8155 109.398 26.5606 118.866 21.8902C118.866 21.8902 123.754 29.7974 116.304 32.4337L117.351 27.9213L114.762 31.8155Z" fill="#00AC83"/>
<path d="M123.299 67.8723C123.299 67.8723 114.788 53.3406 137.988 48.8583C137.988 48.8583 143.914 68.8379 126.266 70.119L131.177 60.9879L123.299 67.8723Z" fill="#00710B"/>
<path d="M68.9088 69.3562C68.9088 69.3562 59.2406 75.92 55.1459 59.9306C55.1459 59.9306 68.6863 54.9351 70.3318 67.1915L63.8151 64.1607L68.9088 69.3562Z" fill="#00710B"/>
<path d="M113.364 76.5283C113.364 76.5283 106.352 77.5686 108.295 67.7325C108.295 67.7325 117.015 68.5746 114.712 75.7205L111.936 72.3399L113.364 76.5283Z" fill="#80C41C"/>
<path d="M101.845 95.5707C101.845 95.5707 98.1532 90.4201 106.692 87.9338C106.692 87.9338 109.601 95.2129 103.034 96.3087L104.558 92.7176L101.845 95.5707Z" fill="#00710B"/>
<path d="M71.0629 116.328C71.0629 116.328 76.1987 121.757 66.6059 126.039C66.6059 126.039 62.0451 117.988 69.5558 115.653L68.343 120.102L71.0629 116.328Z" fill="#80C41C"/>
<path d="M178.32 52.3018C178.32 52.3018 175.964 36.5497 197.865 40.8506C197.865 40.8506 196.041 60.4586 180.128 55.3227L187.637 49.0659L178.32 52.3018Z" fill="#00AC83"/>
<path d="M238.245 52.0968C238.245 52.0968 235.537 40.6903 251.869 42.4723C251.869 42.4723 251.749 56.9693 239.758 54.2006L244.878 49.138L238.245 52.0968Z" fill="#80C41C"/>
<path d="M322.345 60.0299C322.345 60.0299 325.379 53.5917 332.44 60.6786C332.44 60.6786 326.899 67.4971 322.266 61.6032L326.607 61.162L322.345 60.0299Z" fill="#00AC83"/>
<path d="M264.008 68.06C264.008 68.06 270.626 64.6092 272.055 75.0612C272.055 75.0612 263.094 77.2309 262.947 69.3301L266.861 71.7371L264.008 68.06Z" fill="#00710B"/>
<path d="M81.9834 46.4124C81.9834 46.4124 70.4125 47.9048 73.9076 31.7725C73.9076 31.7725 88.238 33.4303 84.2261 45.1213L79.7605 39.4684L81.9834 46.4124Z" fill="#00710B"/>
<path d="M129.698 44.2803C129.698 44.2803 119.354 41.8323 127.468 29.1956C127.468 29.1956 139.162 35.2163 132.021 43.8988L130.012 37.642L129.698 44.2803Z" fill="#80C41C"/>
<path d="M127.526 114.164C127.526 114.164 134.973 114.523 130.982 124.281C130.982 124.281 122.15 121.628 125.974 114.725L128.155 118.783L127.526 114.164Z" fill="#00AC83"/>
<path d="M60.1162 52.3838C60.1162 52.3838 54.026 50.7062 59.1135 43.3819C59.1135 43.3819 65.9282 47.2081 61.5021 52.2086L60.4451 48.452L60.1162 52.3838Z" fill="#00AC45"/>
<path d="M97.4061 38.6691C97.4061 38.6691 87.4481 32.5599 100.213 22.1691C100.213 22.1691 110.363 32.4711 99.9568 39.0689L99.9913 31.8535L97.4061 38.6691Z" fill="#00AC83"/>
<path d="M50.0812 82.0128C50.0812 82.0128 41.3836 89.8279 35.1797 74.5382C35.1797 74.5382 47.9275 67.7532 51.2013 79.6741L44.3372 77.5541L50.0812 82.0128Z" fill="#80C41C"/>
<path d="M157.188 97.4652C157.188 97.4652 160.696 91.7303 166.604 99.1167C166.604 99.1167 160.702 104.951 156.953 98.9353L161.074 98.9689L157.188 97.4652Z" fill="#80C41C"/>
<path d="M139.617 39.1746C139.617 39.1746 136.429 35.9443 142.199 33.2214C142.199 33.2214 145.069 38.0475 140.541 39.5638L141.219 36.8475L139.617 39.1746Z" fill="#00AC45"/>
<path d="M178.289 80.698C178.289 80.698 185.217 71.2649 194.393 84.9603C194.393 84.9603 183.291 94.2144 177.666 83.2193L184.815 83.8866L178.289 80.698Z" fill="#80C41C"/>
<path d="M283.348 49.0026C283.348 49.0026 288.471 38.1367 299.869 49.3431C299.869 49.3431 290.628 61.0254 283.182 51.6109L290.301 50.5683L283.348 49.0026Z" fill="#00AC83"/>
<path d="M299.978 75.6041C299.978 75.6041 304.18 69.335 310.679 77.7584C310.679 77.7584 303.74 84.0584 299.659 77.2356L304.366 77.4089L299.978 75.6041Z" fill="#80C41C"/>
<path d="M141.473 86.2252C141.473 86.2252 141.449 70.2967 162.481 77.7887C162.481 77.7887 157.809 96.9146 142.82 89.4798L151.161 84.401L141.473 86.2252Z" fill="#00710B"/>
<path d="M71.472 81.3247C71.472 81.3247 67.0217 75.7797 76.4395 72.4686C76.4395 72.4686 80.143 80.4485 72.8474 82.0797L74.3378 77.9608L71.472 81.3247Z" fill="#00710B"/>
<path d="M65.8703 108.704C65.8703 108.704 64.8911 119.343 51.3161 113.013C51.3161 113.013 55.6297 100.537 65.1742 106.446L59.2856 109.312L65.8703 108.704Z" fill="#00710B"/>
<path d="M93.112 81.8285C93.112 81.8285 91.4355 74.908 101.36 75.9432C101.36 75.9432 101.33 84.7487 94.038 83.1022L97.1313 80.0129L93.112 81.8285Z" fill="#00710B"/>
<path d="M213.638 76.9362C213.638 76.9362 216.184 65.4925 230.084 74.2931C230.084 74.2931 223.65 87.269 214.083 79.4949L220.892 77.2009L213.638 76.9362Z" fill="#00710B"/>
<path d="M344.502 64.967C344.502 64.967 344.354 54.2862 358.518 59.1314C358.518 59.1314 355.547 71.998 345.432 67.1391L350.984 63.6609L344.502 64.967Z" fill="#00710B"/>
<path d="M104.792 45.4916C104.792 45.4916 103.114 38.5712 113.039 39.6063C113.039 39.6063 113.01 48.4106 105.716 46.7653L108.811 43.676L104.792 45.4916Z" fill="#00710B"/>
<path d="M146.41 63.9467C146.41 63.9467 140.21 55.2716 154.587 51.1C154.587 51.1 159.471 63.3626 148.41 65.1931L150.987 59.1487L146.41 63.9467Z" fill="#00710B"/>
<path d="M49.94 69.0356C49.94 69.0356 43.0487 70.6982 44.1107 60.7258C44.1107 60.7258 52.8713 60.7867 51.2072 68.1085L48.1436 64.9894L49.94 69.0356Z" fill="#00710B"/>
<path d="M48.44 100.919C48.44 100.919 50.9127 107.512 41.0479 107.694C41.0479 107.694 40.0242 99.0467 47.3792 99.7823L44.7112 103.19L48.44 100.919Z" fill="#80C41C"/>
</svg>
